<svg width="64px" height="64px" viewBox="0 0 24 24" xmlns="http://www.w3.org/2000/svg" fill="#000000" transform="matrix(1, 0, 0, 1, 0, 0)rotate(0)"><g id="SVGRepo_bgCarrier" stroke-width="0"></g><g id="SVGRepo_tracerCarrier" stroke-linecap="round" stroke-linejoin="round" stroke="#CCC#0088CECCC" stroke-width="4.8"> <title></title> <g id="Complete"> <g id="arrow-right"> <g> <polyline data-name="Right" fill="none" id="Right-2" points="16.4 7 21.5 12 16.4 17" stroke="#0088CE" stroke-linecap="round" stroke-linejoin="round" stroke-width="2"></polyline> <line fill="none" stroke="#0088CE" stroke-linecap="round" stroke-linejoin="round" stroke-width="2" x1="2.5" x2="19.2" y1="12" y2="12"></line> </g> </g> </g> </g><g id="SVGRepo_iconCarrier"> <title></title> <g id="Complete"> <g id="arrow-right"> <g> <polyline data-name="Right" fill="none" id="Right-2" points="16.4 7 21.5 12 16.4 17" stroke="<svg width=" 64px"="" height="64px" viewBox="0 0 24 24" xmlns="http://www.w3.org/2000/svg" transform="matrix(1, 0, 0, 1, 0, 0)rotate(0)"><g id="SVGRepo_bgCarrier" stroke-width="0"></g><g id="SVGRepo_tracerCarrier" stroke-linecap="round" stroke-linejoin="round" stroke="#CCC#0088CECCC" stroke-width="4.8"> <title></title> <g id="Complete"> <g id="arrow-right"> <g> <polyline data-name="Right" fill="none" id="Right-2" points="16.4 7 21.5 12 16.4 17" stroke="#0088CE" stroke-linecap="round" stroke-linejoin="round" stroke-width="2"></polyline> <line fill="none" stroke="#0088CE" stroke-linecap="round" stroke-linejoin="round" stroke-width="2" x1="2.5" x2="19.2" y1="12" y2="12"></line> </g> </g> </g> </g><g id="SVGRepo_iconCarrier"> <title></title> <g id="Complete"> <g id="arrow-right"> <g> <polyline data-name="Right" fill="none" id="Right-2" points="16.4 7 21.5 12 16.4 17" stroke="#0088CE" stroke-linecap="round" stroke-linejoin="round" stroke-width="2"></polyline> <line fill="none" stroke="#0088CE" stroke-linecap="round" stroke-linejoin="round" stroke-width="2" x1="2.5" x2="19.2" y1="12" y2="12"></line> </g> </g> </g> </g>" stroke-linecap="round" stroke-linejoin="round" stroke-width="2"&gt;</polyline> <line fill="none" stroke="<svg width=" 64px"="" height="64px" viewBox="0 0 24 24" xmlns="http://www.w3.org/2000/svg" transform="matrix(1, 0, 0, 1, 0, 0)rotate(0)"><g id="SVGRepo_bgCarrier" stroke-width="0"></g><g id="SVGRepo_tracerCarrier" stroke-linecap="round" stroke-linejoin="round" stroke="#CCC#0088CECCC" stroke-width="4.8"> <title></title> <g id="Complete"> <g id="arrow-right"> <g> <polyline data-name="Right" fill="none" id="Right-2" points="16.4 7 21.5 12 16.4 17" stroke="#0088CE" stroke-linecap="round" stroke-linejoin="round" stroke-width="2"></polyline> <line fill="none" stroke="#0088CE" stroke-linecap="round" stroke-linejoin="round" stroke-width="2" x1="2.5" x2="19.2" y1="12" y2="12"></line> </g> </g> </g> </g><g id="SVGRepo_iconCarrier"> <title></title> <g id="Complete"> <g id="arrow-right"> <g> <polyline data-name="Right" fill="none" id="Right-2" points="16.4 7 21.5 12 16.4 17" stroke="#0088CE" stroke-linecap="round" stroke-linejoin="round" stroke-width="2"></polyline> <line fill="none" stroke="#0088CE" stroke-linecap="round" stroke-linejoin="round" stroke-width="2" x1="2.5" x2="19.2" y1="12" y2="12"></line> </g> </g> </g> </g>" stroke-linecap="round" stroke-linejoin="round" stroke-width="2" x1="2.5" x2="19.2" y1="12" y2="12"&gt;</line> </g> </g> </g> </g></svg>