<svg id="Group_17" data-name="Group 17" xmlns="http://www.w3.org/2000/svg" xmlns:xlink="http://www.w3.org/1999/xlink" width="1441.565" height="493.355" viewBox="0 0 1441.565 493.355">
  <defs>
    <clipPath id="clip-path">
      <rect id="Rectangle_13" data-name="Rectangle 13" width="1441.565" height="493.355" fill="none"/>
    </clipPath>
  </defs>
  <g id="Group_16" data-name="Group 16" clip-path="url(#clip-path)">
    <path id="Path_62" data-name="Path 62" d="M42.979,281.518c32.093-16.811,46.534-15.67,79.1-17.379s47.625,26.436,51.166,14.541c11.612-39.01,59.687-62.535,97.615-47.766-.584-63.053,68.046-116.621,129.07-100.742,3.527-16.882,20.141-28.511,37.105-31.624s34.355.547,51.212,4.193c.076-12.955,4.687-20.584,10.763-31.627.132-.239,34.069-59.39,97.124-70.706S705.208,1,751.232,25.854c47.546,25.68,84.536,72.07,94.348,125.208a253.59,253.59,0,0,1,179.652-9.793c41.385,13.358,82.764,43.04,88.636,86.129,43.389-11.573,93.147,21.136,99.729,65.556,27.747-8.82,56.733-16.3,85.684-13.223S1357.4,298.4,1369.456,324.9c28.15-3.965,57.927,13.044,68.811,39.306,10.276,34.74,0,62.777-80.959,34.714-12.436-4.309-24.193,10.373-36.289,15.56-36.665,15.723-73.552,31.519-112.357,40.782a353.3,353.3,0,0,1-218.07-18.178c-9.486-4.018-18.914-8.493-29.043-10.376-19.01-3.533-38.333,2.353-57.561,4.39s-41.576-1.349-52.258-17.465c-41.9,29.27-96.982,38.825-146.293,25.381-115.276,73.963-274.454,72.273-388.133-4.122-7.129-4.791-14.921-10.078-23.469-9.235-6.577.648-12.167,4.828-17.794,8.294-41.282,25.423-101.717,11.982-128.332-28.542A145.452,145.452,0,0,1,52.735,431c-15.975-1.363-33.486-5.032-43.769-17.334-24.443-29.242,5.841-117.389,34.013-132.146" fill="#fff"/>
    <path id="Path_64" data-name="Path 64" d="M435.873,228.166c10.422-12.926,28-17.335,44.438-19.689,13.187-1.889,26.722-2.947,39.755-.19s25.639,9.761,32.7,21.059c.915-4.422-1.577-8.76-3.967-12.59-8.962-14.36-18.726-29.454-34.016-36.714-10.005-4.75-21.391-5.61-32.467-5.6-12.536.009-25.471,1.142-36.581,6.949s-20.035,17.233-19.644,29.763c-1.4-3.6-5.879-4.746-9.727-5.135-25.7-2.6-53.03,7.341-68.789,27.8-15.225,19.77-18.486,51.266-2.893,71.851-5.621-23.436,3.83-33.791,18.707-50.591,9.25-10.444,19.554-18.771,32.824-23.585a76.672,76.672,0,0,1,20.417-4.372c2.345-.174,18.663,1.766,19.245,1.043" fill="#d7fbff"/>
    <path id="Path_65" data-name="Path 65" d="M513.942,275.883a47.015,47.015,0,0,1,75.009,22.531c15.145-4.579,33.1.247,42.768,12.771s9.331,32.2-1.794,43.445c9.5-8.55,17.019-19.763,19.283-32.345s-1.323-26.523-10.79-35.114-24.963-10.521-35.318-3.026c1.926-8.348-5.79-15.673-13.207-19.961A101.449,101.449,0,0,0,546.948,250.9c-5.469-.414-11.147-.349-16.2,1.795-5.79,2.459-10.162,7.407-13.622,12.66-6.472,9.822-10.423,22.566-5.705,33.341a30.692,30.692,0,0,1,10.79-32.779Z" fill="#d7fbff"/>
    <path id="Path_69" data-name="Path 69" d="M513.942,275.883a47.015,47.015,0,0,1,75.009,22.531c15.145-4.579,33.1.247,42.768,12.771s9.331,32.2-1.794,43.445c9.5-8.55,17.019-19.763,19.283-32.345s-1.323-26.523-10.79-35.114-24.963-10.521-35.318-3.026c1.926-8.348-5.79-15.673-13.207-19.961A101.449,101.449,0,0,0,546.948,250.9c-5.469-.414-11.147-.349-16.2,1.795-5.79,2.459-10.162,7.407-13.622,12.66-6.472,9.822-10.423,22.566-5.705,33.341a30.692,30.692,0,0,1,10.79-32.779Z" transform="translate(81.216 68.164) rotate(-22)" fill="#d7fbff"/>
    <path id="Path_66" data-name="Path 66" d="M785.381,370.187a52.583,52.583,0,0,1,83.954-27.206,31.064,31.064,0,0,1,57.089-.047c.77-14.267-8.609-28.5-22.022-33.425s-29.774-.132-38.416,11.246c.388-3.273-2.677-5.849-5.545-7.475-22.6-12.813-54.112-6.746-70.342,13.543s-15.229,52.361,2.236,71.6a48.763,48.763,0,0,1-.291-38.879Z" fill="#fff"/>
    <path id="Path_67" data-name="Path 67" d="M1030.081,324.1c5.795-6.579,14.022-10.622,22.493-12.881,9.577-2.555,20.075-2.942,29.153,1.039s16.324,12.961,16.314,22.873c6.531-8.109,19.094-9.973,28.4-5.3s15.153,14.86,16.026,25.235-2.771,20.787-8.646,29.383a61.135,61.135,0,0,1-28.274,22.381,42.06,42.06,0,0,0,22.41-39.754c-.292-3.823-1.222-7.8-3.82-10.62-4.843-5.254-13.238-4.538-20.205-2.953-9.871,2.246-20.715,6.455-24.456,15.862,6.277-10.368,1.407-25.436-9.3-31.12s-25.112-1.981-32.676,7.489-8.3,23.484-2.82,34.3c-8.474-16.74-19.543-38.97-4.6-55.936" fill="#fff"/>
  </g>
</svg>
