<svg xmlns="http://www.w3.org/2000/svg" width="355.565" height="332.663" viewBox="0 0 355.565 332.663">
  <g id="FAQs-amico" transform="translate(-20.952 -46.034)">
    <g id="freepik--Floor--inject-2" transform="translate(20.952 173.415)">
      <ellipse id="freepik--floor--inject-2-2" data-name="freepik--floor--inject-2" cx="177.782" cy="102.641" rx="177.782" ry="102.641" fill="#f3f3f3"/>
    </g>
    <g id="freepik--paper-planes--inject-2" transform="translate(44.519 61.81)">
      <g id="freepik--paper-plane--inject-2" transform="translate(0 167.126)">
        <path id="Path_406" data-name="Path 406" d="M117.884,442.847,71.7,419.75,53.31,427.893Z" transform="translate(-53.31 -320.224)" fill="#f069a7"/>
        <g id="Group_126" data-name="Group 126" transform="translate(0 99.526)" opacity="0.15">
          <path id="Path_407" data-name="Path 407" d="M117.884,442.847,71.7,419.75,53.31,427.893Z" transform="translate(-53.31 -419.75)" fill="#fff"/>
        </g>
        <path id="Path_408" data-name="Path 408" d="M125.036,438.489,84.36,411.3l7.281-10.467Z" transform="translate(-60.462 -315.866)" fill="#f069a7"/>
        <g id="Group_127" data-name="Group 127" transform="translate(23.898 84.964)" opacity="0.15">
          <path id="Path_409" data-name="Path 409" d="M125.036,438.489,84.36,411.3l7.281-10.467Z" transform="translate(-84.36 -400.83)" fill="#fff"/>
        </g>
        <path id="Path_410" data-name="Path 410" d="M84.36,414.43l.762,7.227,39.914,19.965Z" transform="translate(-60.462 -318.998)" fill="#f069a7"/>
        <g id="Group_128" data-name="Group 128" transform="translate(23.898 95.432)" opacity="0.2">
          <path id="Path_411" data-name="Path 411" d="M84.36,414.43l.762,7.227,39.914,19.965Z" transform="translate(-84.36 -414.43)"/>
        </g>
        <path id="Path_412" data-name="Path 412" d="M75.4,411.97a.454.454,0,0,0,.3-.123.539.539,0,0,0,.046-.716l-.885-1.185a.431.431,0,0,0-.647-.062.546.546,0,0,0-.054.716c.292.393.593.77.893,1.162a.454.454,0,0,0,.346.208Z" transform="translate(-58.087 -317.924)" fill="#455a64"/>
        <path id="Path_413" data-name="Path 413" d="M66.708,379.947q-.824-1.2-1.593-2.424a.546.546,0,0,1,.115-.708.423.423,0,0,1,.631.123c.516.808,1.039,1.609,1.539,2.4a.531.531,0,0,1-.092.708.408.408,0,0,1-.269.1A.454.454,0,0,1,66.708,379.947Zm-4.071-6.611c-.469-.854-.931-1.724-1.37-2.594a.539.539,0,0,1,.177-.693.431.431,0,0,1,.623.2c.431.854.885,1.709,1.347,2.555a.539.539,0,0,1-.146.7.469.469,0,0,1-.239.069A.454.454,0,0,1,62.637,373.336Zm-3.433-7.05c-.385-.916-.77-1.84-1.093-2.755a.531.531,0,0,1,.246-.662.446.446,0,0,1,.6.277c.331.9.693,1.809,1.078,2.709a.539.539,0,0,1-.223.677.438.438,0,0,1-.192.046A.462.462,0,0,1,59.2,366.286Zm-2.663-7.45c-.277-.962-.539-1.939-.77-2.886a.508.508,0,0,1,.323-.623.454.454,0,0,1,.562.354c.223.939.477,1.893.77,2.84a.523.523,0,0,1-.292.639H57a.47.47,0,0,1-.454-.323Zm-1.786-7.781c-.154-.977-.292-1.978-.408-2.971a.493.493,0,0,1,.393-.57.485.485,0,0,1,.516.439c.108.977.246,1.963.4,2.925a.5.5,0,0,1-.362.585H55.21A.485.485,0,0,1,54.756,351.054Zm-.77-7.974c0-.77-.046-1.539-.046-2.363v-.646a.477.477,0,0,1,.454-.5h0a.485.485,0,0,1,.446.516v2.94a.493.493,0,0,1-.439.531h0a.477.477,0,0,1-.416-.477Zm.608-7.458a.5.5,0,0,1-.408-.554c.085-.993.192-2,.316-2.994a.462.462,0,0,1,.523-.423.493.493,0,0,1,.385.57c-.123.977-.231,1.97-.316,2.94a.485.485,0,0,1-.454.462Zm1.078-7.866a.508.508,0,0,1-.339-.608c.2-.977.431-1.955.685-2.917a.446.446,0,0,1,.562-.346.523.523,0,0,1,.316.631c-.246.939-.477,1.909-.677,2.863a.462.462,0,0,1-.439.393Zm2.078-7.612a.516.516,0,0,1-.254-.654c.331-.924.7-1.855,1.085-2.763a.446.446,0,0,1,.608-.246.546.546,0,0,1,.223.677c-.385.893-.77,1.8-1.07,2.709a.454.454,0,0,1-.423.316.338.338,0,0,1-.169-.038Zm3.163-7.15a.539.539,0,0,1-.162-.7c.469-.854.962-1.709,1.462-2.532a.431.431,0,0,1,.639-.139.554.554,0,0,1,.123.708c-.5.808-.985,1.647-1.439,2.486a.446.446,0,0,1-.393.246A.423.423,0,0,1,60.913,312.995ZM65,306.461a.539.539,0,0,1-.054-.708c.577-.77,1.185-1.539,1.793-2.263a.423.423,0,0,1,.647,0,.539.539,0,0,1,0,.716c-.6.716-1.193,1.455-1.763,2.217a.439.439,0,0,1-.354.185.416.416,0,0,1-.308-.146Zm4.949-5.757a.539.539,0,0,1,0-.716c.677-.67,1.378-1.324,2.078-1.94a.431.431,0,0,1,.647.085.554.554,0,0,1-.077.716c-.693.6-1.378,1.239-2.047,1.893a.431.431,0,0,1-.3.131.439.439,0,0,1-.339-.169Zm5.665-4.872a.554.554,0,0,1,.139-.7c.77-.554,1.539-1.07,2.309-1.539a.431.431,0,0,1,.616.2.531.531,0,0,1-.177.685c-.77.462-1.539.97-2.309,1.539a.424.424,0,0,1-.246.077.47.47,0,0,1-.369-.262Z" transform="translate(-53.455 -291.15)" fill="#455a64"/>
        <path id="Path_414" data-name="Path 414" d="M90.761,291.794H90.9a7.019,7.019,0,0,1,1.255-.346.5.5,0,0,0,.385-.577.47.47,0,0,0-.516-.431,8.741,8.741,0,0,0-1.4.385.516.516,0,0,0-.3.639A.47.47,0,0,0,90.761,291.794Z" transform="translate(-61.83 -290.437)" fill="#455a64"/>
      </g>
      <g id="freepik--paper-plane--inject-2-2" data-name="freepik--paper-plane--inject-2" transform="translate(176.354 0)">
        <path id="Path_415" data-name="Path 415" d="M357.534,57.808,310.2,43.3l36.466,25.052Z" transform="translate(-310.2 -40.953)" fill="#b4e1e8"/>
        <path id="Path_416" data-name="Path 416" d="M357.534,57.808,310.2,43.3l36.466,25.052Z" transform="translate(-310.2 -40.953)" fill="#fff" opacity="0.15"/>
        <path id="Path_417" data-name="Path 417" d="M310.2,42.6l50.943,8.2L372.011,40.25Z" transform="translate(-310.2 -40.25)" fill="#b4e1e8"/>
        <path id="Path_418" data-name="Path 418" d="M310.2,42.6l50.943,8.2L372.011,40.25Z" transform="translate(-310.2 -40.25)" fill="#fff" opacity="0.15"/>
        <path id="Path_419" data-name="Path 419" d="M361.143,51.5l.046,12.592-3.656-6.28L310.2,43.3Z" transform="translate(-310.2 -40.953)" fill="#b4e1e8"/>
        <path id="Path_420" data-name="Path 420" d="M361.143,51.5l.046,12.592-3.656-6.28L310.2,43.3Z" transform="translate(-310.2 -40.953)" opacity="0.2"/>
        <path id="Path_421" data-name="Path 421" d="M374.271,68.43l-7.281-2.763,3.625-3.517Z" transform="translate(-323.281 -45.295)" fill="#ba68c8"/>
        <path id="Path_422" data-name="Path 422" d="M370.615,62.15l-3.625,3.517,1.162.439Z" transform="translate(-323.281 -45.295)" opacity="0.2"/>
        <path id="Path_423" data-name="Path 423" d="M388.81,59.244a.408.408,0,0,0-.162.277.554.554,0,0,0,.4.6l1.4.377a.423.423,0,0,0,.546-.346.546.546,0,0,0-.385-.6l-1.416-.377A.439.439,0,0,0,388.81,59.244Z" transform="translate(-328.269 -44.605)" fill="#455a64"/>
        <path id="Path_424" data-name="Path 424" d="M397.016,61.492c.916.308,1.832.631,2.732.962a.554.554,0,0,1,.346.631.431.431,0,0,1-.585.285c-.893-.331-1.8-.647-2.709-.954a.539.539,0,0,1-.354-.616.393.393,0,0,1,.154-.246A.439.439,0,0,1,397.016,61.492Zm7.242,2.786c.9.4,1.786.77,2.663,1.239a.531.531,0,0,1,.277.654.439.439,0,0,1-.616.223c-.862-.423-1.739-.831-2.625-1.216a.546.546,0,0,1-.3-.646.407.407,0,0,1,.146-.208A.446.446,0,0,1,404.259,64.278Zm7,3.533c.862.493,1.709,1.008,2.54,1.539a.539.539,0,0,1,.208.677.446.446,0,0,1-.647.146c-.816-.516-1.655-1.016-2.5-1.539a.531.531,0,0,1-.231-.67.378.378,0,0,1,.123-.162.462.462,0,0,1,.508.008Zm6.634,4.318c.808.593,1.6,1.208,2.363,1.824a.516.516,0,0,1,.115.693.446.446,0,0,1-.662.054c-.77-.608-1.539-1.208-2.309-1.793a.523.523,0,0,1-.154-.693.285.285,0,0,1,.092-.1A.477.477,0,0,1,417.9,72.129Zm6.119,5.141c.723.685,1.439,1.393,2.132,2.117a.5.5,0,0,1,0,.693.477.477,0,0,1-.677,0c-.677-.708-1.385-1.408-2.093-2.078a.508.508,0,0,1-.062-.693l.062-.062A.477.477,0,0,1,424.016,77.27Zm5.457,5.865c.5.608.985,1.224,1.47,1.855l.385.516a.485.485,0,0,1-.061.677h0a.477.477,0,0,1-.67-.131l-.385-.508c-.469-.616-.947-1.224-1.439-1.824a.493.493,0,0,1,0-.685h0a.477.477,0,0,1,.7.069Zm4.041,6.311a.5.5,0,0,1,.662.185c.531.847,1.054,1.709,1.539,2.578a.469.469,0,0,1-.154.654.508.508,0,0,1-.654-.223c-.493-.854-1.008-1.709-1.539-2.532a.477.477,0,0,1,.085-.639Zm3.9,6.927a.516.516,0,0,1,.646.277c.423.9.839,1.816,1.216,2.732a.462.462,0,0,1-.239.623.523.523,0,0,1-.631-.316c-.369-.9-.77-1.8-1.193-2.678a.462.462,0,0,1,.115-.585.316.316,0,0,1,.085-.108Zm2.963,7.312a.523.523,0,0,1,.6.369c.292.939.569,1.9.808,2.855a.439.439,0,0,1-.339.562.523.523,0,0,1-.577-.4c-.239-.939-.508-1.886-.77-2.8a.454.454,0,0,1,.139-.508.393.393,0,0,1,.139-.131Zm1.847,7.581a.539.539,0,0,1,.546.462c.154.962.277,1.94.377,2.909a.431.431,0,0,1-.423.485.531.531,0,0,1-.523-.485c-.1-.947-.216-1.9-.37-2.848a.454.454,0,0,1,.162-.431.431.431,0,0,1,.231-.146Z" transform="translate(-330.064 -45.137)" fill="#455a64"/>
      </g>
    </g>
    <g id="freepik--Stars--inject-2" transform="translate(149.006 46.035)">
      <g id="freepik--stars--inject-2-2" data-name="freepik--stars--inject-2" transform="translate(0 198.757)">
        <path id="Path_425" data-name="Path 425" d="M455.359,285.713c-2.376-1.419-5.727-1.223-9.451.886l-67.52,39.008c-7.208,4.158-13.059,14.052-13.059,22.093,0,3.927,1.4,6.676,3.67,7.979l7.243,4.176c2.367,1.348,5.674,1.135,9.344-.984l67.529-39.008c7.208-4.158,13.05-14.052,13.05-22.093,0-3.9-1.383-6.658-3.635-7.979C461.3,289.118,456.547,286.423,455.359,285.713Z" transform="translate(-365.33 -284.802)" fill="#e0e0e0"/>
        <path id="Path_426" data-name="Path 426" d="M380.574,360.927c-4.078,0-6.614-3.227-6.614-8.413,0-7.881,5.754-17.625,12.828-21.7L454.317,291.8a11.871,11.871,0,0,1,5.771-1.773c4.078,0,6.614,3.227,6.614,8.413,0,7.89-5.754,17.625-12.828,21.712l-67.529,39.008A11.773,11.773,0,0,1,380.574,360.927Z" transform="translate(-366.309 -285.395)" fill="#fafafa"/>
        <path id="Path_427" data-name="Path 427" d="M460.032,290.378h0c3.8,0,6.206,3.059,6.206,7.979,0,7.749-5.656,17.314-12.607,21.277L386.1,358.642a11.41,11.41,0,0,1-5.55,1.72,5.514,5.514,0,0,1-4.433-1.995,9.318,9.318,0,0,1-1.773-5.975c0-7.74,5.656-17.305,12.607-21.277l67.529-39.008a11.41,11.41,0,0,1,5.55-1.72m0-.887a12.163,12.163,0,0,0-5.993,1.844L386.51,330.352c-7.208,4.167-13.05,14.052-13.05,22.093,0,5.63,2.864,8.866,7.092,8.866a12.261,12.261,0,0,0,5.993-1.835l67.529-39.008c7.208-4.158,13.05-14.052,13.05-22.093,0-5.63-2.864-8.865-7.092-8.865Z" transform="translate(-366.252 -285.335)" fill="#ebebeb"/>
        <g id="freepik--stars--inject-2-3" data-name="freepik--stars--inject-2" transform="translate(16.605 12.514)">
          <path id="Path_428" data-name="Path 428" d="M398.3,344.763c.275-.514.23-1.046,0-1.188l-2.261-1.3a.337.337,0,0,0-.31,0l-2.075.8-.683-1.454a.372.372,0,0,0-.16-.168l-2.261-1.312c-.284-.16-.754.2-.94.807l-1.41,4.619a1.4,1.4,0,0,1-.461.709l-3.147,2.438c-.505.381-.7,1.321-.337,1.578l2.278,1.649a.683.683,0,0,1,.177.621l-.541,4.495c-.044.328.053.55.2.629l2.261,1.312c.177.1.443,0,.683-.293l2.819-3.6a.674.674,0,0,1,.567-.328l2.828.31c.443.062.966-.753.887-1.365l-.541-3.874a1.437,1.437,0,0,1,.177-.825Z" transform="translate(-384.061 -303.589)" fill="#b4e1e8"/>
          <path id="Path_429" data-name="Path 429" d="M399.5,343.828a.373.373,0,0,0-.31,0l-3.156,1.206a.328.328,0,0,1-.452-.177l-.727-1.543,2.075-.789a.346.346,0,0,1,.31,0Z" transform="translate(-385.284 -303.861)" fill="#fff" opacity="0.15"/>
          <path id="Path_430" data-name="Path 430" d="M390.456,347.553a1.435,1.435,0,0,1-.461.709l-3.147,2.429a1.144,1.144,0,0,0-.337.426l-2.261-1.312a1.3,1.3,0,0,1,.337-.426l3.147-2.429a1.41,1.41,0,0,0,.461-.7h0Z" transform="translate(-384.081 -304.287)" fill="#fff" opacity="0.15"/>
          <path id="Path_431" data-name="Path 431" d="M393.328,341.436c-.284-.186-.762.177-.957.8l-1.41,4.619-2.261-1.312,1.41-4.619c.186-.6.656-.966.94-.807.062,0,1.977,1.152,2.27,1.312Z" transform="translate(-384.586 -303.587)" opacity="0.1"/>
          <path id="Path_432" data-name="Path 432" d="M388.768,354.385l-2.243-1.294h0l-2.278-1.649c-.266-.195-.231-.727,0-1.161l2.261,1.312c-.23.426-.266.966,0,1.161Z" transform="translate(-384.06 -304.745)" opacity="0.25"/>
          <path id="Path_433" data-name="Path 433" d="M388.71,359.861c0,.328.053.55.222.638h0l-2.27-1.312a.612.612,0,0,1-.2-.629l.541-4.495a.692.692,0,0,0-.16-.6l2.243,1.294h0a.665.665,0,0,1,.16.594Z" transform="translate(-384.33 -305.105)" opacity="0.15"/>
          <path id="Path_434" data-name="Path 434" d="M393.235,341.763l1.41,3a.328.328,0,0,0,.452.177l3.156-1.206c.5-.195.7.514.337,1.2l-2.278,4.273a1.436,1.436,0,0,0-.177.824l.541,3.874c.08.612-.443,1.427-.887,1.365l-2.819-.346a.674.674,0,0,0-.567.328l-2.784,3.6c-.452.576-.975.372-.887-.346l.541-4.495a.665.665,0,0,0-.177-.621l-2.278-1.64c-.364-.266-.16-1.2.337-1.587l3.147-2.429a1.4,1.4,0,0,0,.461-.709l1.41-4.619C392.357,341.666,393,341.293,393.235,341.763Z" transform="translate(-384.352 -303.755)" fill="#b4e1e8"/>
          <path id="Path_435" data-name="Path 435" d="M393.235,341.763l1.41,3a.328.328,0,0,0,.452.177l3.156-1.206c.5-.195.7.514.337,1.2l-2.278,4.273a1.436,1.436,0,0,0-.177.824l.541,3.874c.08.612-.443,1.427-.887,1.365l-2.819-.346a.674.674,0,0,0-.567.328l-2.784,3.6c-.452.576-.975.372-.887-.346l.541-4.495a.665.665,0,0,0-.177-.621l-2.278-1.64c-.364-.266-.16-1.2.337-1.587l3.147-2.429a1.4,1.4,0,0,0,.461-.709l1.41-4.619C392.357,341.666,393,341.293,393.235,341.763Z" transform="translate(-384.352 -303.755)" fill="#fff" opacity="0.5"/>
          <path id="Path_436" data-name="Path 436" d="M416.172,334.464c.275-.514.222-1.037,0-1.179l-2.252-1.3a.355.355,0,0,0-.319,0l-2.066.8-.691-1.454a.32.32,0,0,0-.151-.168l-2.261-1.312c-.284-.16-.754.2-.94.807l-1.472,4.646a1.463,1.463,0,0,1-.461.709l-3.147,2.429c-.505.39-.7,1.33-.346,1.587l2.287,1.649a.665.665,0,0,1,.168.621l-.532,4.495c-.044.328.044.55.2.629l2.234,1.268c.177.1.434,0,.683-.293l2.819-3.6a.673.673,0,0,1,.567-.328l2.819.346c.443.053.966-.754.887-1.365l-.532-3.874a1.374,1.374,0,0,1,.177-.824Z" transform="translate(-386.082 -302.422)" fill="#b4e1e8"/>
          <path id="Path_437" data-name="Path 437" d="M417.342,333.548a.381.381,0,0,0-.31,0l-3.183,1.206a.337.337,0,0,1-.461-.177l-.718-1.543,2.066-.789a.363.363,0,0,1,.319,0Z" transform="translate(-387.306 -302.694)" fill="#fff" opacity="0.15"/>
          <path id="Path_438" data-name="Path 438" d="M408.3,337.265a1.437,1.437,0,0,1-.461.709l-3.174,2.456a1.144,1.144,0,0,0-.337.426l-2.243-1.312a1.461,1.461,0,0,1,.346-.426l3.147-2.429a1.463,1.463,0,0,0,.461-.709h0Z" transform="translate(-386.105 -303.122)" fill="#fff" opacity="0.15"/>
          <path id="Path_439" data-name="Path 439" d="M411.178,331.152c-.284-.186-.762.177-.957.8l-1.41,4.619L406.55,335.3l1.41-4.619c.186-.6.656-.966.94-.807.062,0,1.977,1.153,2.261,1.3Z" transform="translate(-386.611 -302.425)" opacity="0.1"/>
          <path id="Path_440" data-name="Path 440" d="M406.618,344.086l-2.243-1.286h0l-2.278-1.649c-.257-.2-.222-.727,0-1.161l2.27,1.312c-.231.426-.266.966,0,1.153Z" transform="translate(-386.086 -303.577)" opacity="0.25"/>
          <path id="Path_441" data-name="Path 441" d="M406.522,349.562c-.044.337.053.559.213.647h0l-2.261-1.312c-.151-.089-.239-.3-.2-.629l.541-4.495a.718.718,0,0,0-.16-.6l2.243,1.286h0a.665.665,0,0,1,.16.594Z" transform="translate(-386.352 -303.938)" opacity="0.15"/>
          <path id="Path_442" data-name="Path 442" d="M411.07,331.475l1.41,3a.337.337,0,0,0,.461.177l3.156-1.206c.5-.2.7.514.337,1.188l-2.278,4.282a1.374,1.374,0,0,0-.177.824l.532,3.874c.089.612-.434,1.418-.887,1.365l-2.819-.346a.673.673,0,0,0-.567.328l-2.819,3.6c-.452.576-.975.372-.887-.346l.541-4.495a.683.683,0,0,0-.177-.621l-2.278-1.64c-.363-.266-.168-1.2.337-1.587l3.147-2.429a1.4,1.4,0,0,0,.461-.709l1.41-4.619C410.2,331.377,410.849,331.032,411.07,331.475Z" transform="translate(-386.371 -302.589)" fill="#b4e1e8"/>
          <path id="Path_443" data-name="Path 443" d="M411.07,331.475l1.41,3a.337.337,0,0,0,.461.177l3.156-1.206c.5-.2.7.514.337,1.188l-2.278,4.282a1.374,1.374,0,0,0-.177.824l.532,3.874c.089.612-.434,1.418-.887,1.365l-2.819-.346a.673.673,0,0,0-.567.328l-2.819,3.6c-.452.576-.975.372-.887-.346l.541-4.495a.683.683,0,0,0-.177-.621l-2.278-1.64c-.363-.266-.168-1.2.337-1.587l3.147-2.429a1.4,1.4,0,0,0,.461-.709l1.41-4.619C410.2,331.377,410.849,331.032,411.07,331.475Z" transform="translate(-386.371 -302.589)" fill="#fff" opacity="0.5"/>
          <path id="Path_444" data-name="Path 444" d="M433.995,324.178c.266-.514.222-1.037,0-1.179l-2.287-1.277a.39.39,0,0,0-.319,0l-2.074.8-.683-1.454a.319.319,0,0,0-.151-.168l-2.261-1.312c-.284-.16-.762.2-.94.807l-1.41,4.619a1.462,1.462,0,0,1-.461.709l-3.156,2.429c-.5.39-.7,1.321-.337,1.587l2.278,1.649a.638.638,0,0,1,.177.621l-.541,4.495c0,.328.053.541.2.629l2.261,1.312c.186.1.443,0,.691-.293l2.81-3.6a.674.674,0,0,1,.576-.328l2.81.346c.452.053.975-.754.887-1.365l-.532-3.874a1.428,1.428,0,0,1,.168-.825Z" transform="translate(-388.107 -301.258)" fill="#b4e1e8"/>
          <path id="Path_445" data-name="Path 445" d="M435.194,323.259a.4.4,0,0,0-.319,0l-3.147,1.206a.337.337,0,0,1-.461-.177l-.727-1.543,2.075-.789a.346.346,0,0,1,.31,0Z" transform="translate(-389.333 -301.527)" fill="#fff" opacity="0.15"/>
          <path id="Path_446" data-name="Path 446" d="M426.2,326.963a1.49,1.49,0,0,1-.461.718L422.6,330.11a1.257,1.257,0,0,0-.346.426l-2.261-1.312a1.464,1.464,0,0,1,.346-.426l3.147-2.429a1.462,1.462,0,0,0,.461-.709h0Z" transform="translate(-388.136 -301.952)" fill="#fff" opacity="0.15"/>
          <path id="Path_447" data-name="Path 447" d="M429.034,320.83c-.284-.186-.771.177-.957.789l-1.365,4.646-2.261-1.3,1.41-4.619c.186-.6.656-.966.94-.807.062,0,1.968,1.152,2.261,1.3Z" transform="translate(-388.642 -301.252)" opacity="0.1"/>
          <path id="Path_448" data-name="Path 448" d="M424.456,333.795l-2.234-1.286h0l-2.305-1.658c-.257-.2-.231-.727,0-1.161L422.177,331c-.222.426-.257.966,0,1.153Z" transform="translate(-388.107 -302.409)" opacity="0.25"/>
          <path id="Path_449" data-name="Path 449" d="M424.371,339.272c-.044.337.053.559.213.647h0l-2.261-1.312c-.151-.089-.239-.3-.2-.629l.541-4.5a.683.683,0,0,0-.151-.594l2.234,1.286h0a.709.709,0,0,1,.16.594Z" transform="translate(-388.377 -302.771)" opacity="0.15"/>
          <path id="Path_450" data-name="Path 450" d="M428.921,321.183l1.41,3a.337.337,0,0,0,.461.177l3.147-1.206c.505-.2.7.514.346,1.188L432,328.622a1.427,1.427,0,0,0-.168.824l.532,3.874c.089.612-.434,1.418-.887,1.365l-2.81-.346a.674.674,0,0,0-.576.328l-2.81,3.6c-.452.576-.975.372-.887-.346l.532-4.495a.665.665,0,0,0-.168-.621l-2.287-1.649c-.355-.257-.159-1.2.346-1.578l3.147-2.429a1.463,1.463,0,0,0,.461-.709l1.41-4.619C428.052,321.086,428.7,320.713,428.921,321.183Z" transform="translate(-388.396 -301.42)" fill="#b4e1e8"/>
          <path id="Path_451" data-name="Path 451" d="M428.921,321.183l1.41,3a.337.337,0,0,0,.461.177l3.147-1.206c.505-.2.7.514.346,1.188L432,328.622a1.427,1.427,0,0,0-.168.824l.532,3.874c.089.612-.434,1.418-.887,1.365l-2.81-.346a.674.674,0,0,0-.576.328l-2.81,3.6c-.452.576-.975.372-.887-.346l.532-4.495a.665.665,0,0,0-.168-.621l-2.287-1.649c-.355-.257-.159-1.2.346-1.578l3.147-2.429a1.463,1.463,0,0,0,.461-.709l1.41-4.619C428.052,321.086,428.7,320.713,428.921,321.183Z" transform="translate(-388.396 -301.42)" fill="#fff" opacity="0.5"/>
          <path id="Path_452" data-name="Path 452" d="M451.839,313.883c.275-.514.231-1.037,0-1.179l-2.252-1.312a.39.39,0,0,0-.319,0l-2.075.8-.683-1.454a.373.373,0,0,0-.151-.177c-.284-.151-2.2-1.268-2.261-1.3-.284-.16-.762.2-.949.807l-1.41,4.619a1.446,1.446,0,0,1-.452.709l-3.156,2.429c-.5.39-.7,1.321-.337,1.587l2.278,1.649a.638.638,0,0,1,.177.612l-.541,4.495c0,.328.053.55.2.638l2.261,1.312c.177.1.443,0,.683-.292l2.819-3.6a.674.674,0,0,1,.567-.328l2.819.346c.452.053.975-.754.887-1.365L449.41,319a1.5,1.5,0,0,1,.177-.824Z" transform="translate(-390.135 -300.086)" fill="#b4e1e8"/>
          <path id="Path_453" data-name="Path 453" d="M453.036,312.968a.372.372,0,0,0-.31,0l-3.156,1.206a.328.328,0,0,1-.452-.177l-.727-1.543,2.075-.789a.319.319,0,0,1,.31,0Z" transform="translate(-391.358 -300.359)" fill="#fff" opacity="0.15"/>
          <path id="Path_454" data-name="Path 454" d="M444,316.673a1.49,1.49,0,0,1-.461.718L440.4,319.82a1.259,1.259,0,0,0-.346.426l-2.261-1.312a1.426,1.426,0,0,1,.337-.426l3.147-2.429a1.41,1.41,0,0,0,.47-.709h0Z" transform="translate(-390.155 -300.784)" fill="#fff" opacity="0.15"/>
          <path id="Path_455" data-name="Path 455" d="M446.878,310.566c-.284-.186-.771.177-.957.789l-1.41,4.619-2.261-1.3,1.41-4.619c.177-.6.656-.966.94-.807.062,0,1.968,1.152,2.261,1.3Z" transform="translate(-390.661 -300.085)" opacity="0.1"/>
          <path id="Path_456" data-name="Path 456" d="M442.309,323.476l-2.234-1.286h0l-2.278-1.649c-.266-.2-.231-.727,0-1.161l2.261,1.312c-.231.426-.257.966,0,1.153Z" transform="translate(-390.135 -301.239)" opacity="0.25"/>
          <path id="Path_457" data-name="Path 457" d="M442.21,328.976c0,.337.062.559.222.647h0l-2.278-1.356c-.151-.089-.239-.3-.2-.629l.541-4.5a.709.709,0,0,0-.151-.594l2.234,1.286h0a.683.683,0,0,1,.151.594Z" transform="translate(-390.399 -301.598)" opacity="0.15"/>
          <path id="Path_458" data-name="Path 458" d="M446.77,310.893l1.41,3a.337.337,0,0,0,.461.177l3.147-1.206c.505-.2.7.514.337,1.188l-2.278,4.282a1.5,1.5,0,0,0-.177.824l.541,3.874c.089.612-.434,1.418-.887,1.365l-2.819-.346a.674.674,0,0,0-.567.328l-2.819,3.6c-.443.576-.966.372-.887-.346l.541-4.495a.638.638,0,0,0-.177-.621l-2.278-1.649c-.363-.257-.16-1.2.337-1.578l3.156-2.429a1.5,1.5,0,0,0,.461-.709l1.41-4.628C445.9,310.8,446.549,310.423,446.77,310.893Z" transform="translate(-390.421 -300.253)" fill="#b4e1e8"/>
          <path id="Path_459" data-name="Path 459" d="M446.77,310.893l1.41,3a.337.337,0,0,0,.461.177l3.147-1.206c.505-.2.7.514.337,1.188l-2.278,4.282a1.5,1.5,0,0,0-.177.824l.541,3.874c.089.612-.434,1.418-.887,1.365l-2.819-.346a.674.674,0,0,0-.567.328l-2.819,3.6c-.443.576-.966.372-.887-.346l.541-4.495a.638.638,0,0,0-.177-.621l-2.278-1.649c-.363-.257-.16-1.2.337-1.578l3.156-2.429a1.5,1.5,0,0,0,.461-.709l1.41-4.628C445.9,310.8,446.549,310.423,446.77,310.893Z" transform="translate(-390.421 -300.253)" fill="#fff" opacity="0.5"/>
          <path id="Path_460" data-name="Path 460" d="M469.683,303.593c.275-.514.23-1.037,0-1.188l-2.261-1.3a.372.372,0,0,0-.31,0l-2.075.8-.683-1.454a.514.514,0,0,0-.151-.177c-.293-.151-2.207-1.268-2.261-1.3-.293-.16-.762.2-.949.807l-1.41,4.619a1.4,1.4,0,0,1-.461.709l-3.192,2.42c-.505.39-.7,1.321-.337,1.587l2.279,1.649a.638.638,0,0,1,.177.612l-.523,4.468c0,.328.053.55.2.638l2.261,1.312c.177.1.443,0,.683-.293l2.819-3.6a.674.674,0,0,1,.567-.328l2.819.346c.443.053.966-.754.887-1.365l-.541-3.874a1.427,1.427,0,0,1,.177-.824Z" transform="translate(-392.154 -298.919)" fill="#b4e1e8"/>
          <path id="Path_461" data-name="Path 461" d="M470.886,302.677a.346.346,0,0,0-.31,0l-3.156,1.206a.328.328,0,0,1-.452-.177l-.727-1.543,2.075-.8a.337.337,0,0,1,.31,0Z" transform="translate(-393.383 -299.191)" fill="#fff" opacity="0.15"/>
          <path id="Path_462" data-name="Path 462" d="M461.855,306.383a1.5,1.5,0,0,1-.47.718l-3.147,2.429a1.241,1.241,0,0,0-.337.426l-2.261-1.312a1.3,1.3,0,0,1,.337-.426l3.147-2.429a1.4,1.4,0,0,0,.461-.709h0Z" transform="translate(-392.18 -299.617)" fill="#fff" opacity="0.15"/>
          <path id="Path_463" data-name="Path 463" d="M464.727,300.267c-.284-.177-.771.186-.957.8l-1.41,4.619-2.27-1.3,1.41-4.619c.186-.6.665-.966.949-.807.062,0,1.968,1.152,2.261,1.3Z" transform="translate(-392.685 -298.918)" opacity="0.1"/>
          <path id="Path_464" data-name="Path 464" d="M460.158,313.216l-2.243-1.286-2.278-1.649c-.266-.2-.231-.727,0-1.161l2.261,1.312c-.231.426-.266.966,0,1.153Z" transform="translate(-392.159 -300.075)" opacity="0.25"/>
          <path id="Path_465" data-name="Path 465" d="M460.056,318.691c0,.337.053.559.222.638h0l-2.305-1.312c-.151-.089-.239-.3-.2-.638l.541-4.495a.683.683,0,0,0-.16-.594l2.243,1.286h0a.673.673,0,0,1,.151.594Z" transform="translate(-392.421 -300.435)" opacity="0.15"/>
          <path id="Path_466" data-name="Path 466" d="M464.62,300.6l1.41,3a.337.337,0,0,0,.461.177l3.147-1.206c.5-.2.7.514.337,1.188l-2.278,4.264a1.427,1.427,0,0,0-.177.824l.541,3.874c.08.612-.443,1.418-.887,1.365l-2.819-.346a.674.674,0,0,0-.567.328l-2.819,3.6c-.443.576-.966.363-.887-.346l.541-4.495a.665.665,0,0,0-.177-.621l-2.278-1.649c-.364-.257-.16-1.2.337-1.578l3.156-2.429a1.533,1.533,0,0,0,.452-.709l1.41-4.628C463.752,300.505,464.4,300.124,464.62,300.6Z" transform="translate(-392.446 -299.085)" fill="#b4e1e8"/>
          <path id="Path_467" data-name="Path 467" d="M464.62,300.6l1.41,3a.337.337,0,0,0,.461.177l3.147-1.206c.5-.2.7.514.337,1.188l-2.278,4.264a1.427,1.427,0,0,0-.177.824l.541,3.874c.08.612-.443,1.418-.887,1.365l-2.819-.346a.674.674,0,0,0-.567.328l-2.819,3.6c-.443.576-.966.363-.887-.346l.541-4.495a.665.665,0,0,0-.177-.621l-2.278-1.649c-.364-.257-.16-1.2.337-1.578l3.156-2.429a1.533,1.533,0,0,0,.452-.709l1.41-4.628C463.752,300.505,464.4,300.124,464.62,300.6Z" transform="translate(-392.446 -299.085)" fill="#fff" opacity="0.5"/>
        </g>
      </g>
      <path id="freepik--Star--inject-2" d="M475.167,55.135l-7.092,3.041-1.516,7.562a1.144,1.144,0,0,1-1.977.523l-5.08-5.807-7.669.887a1.135,1.135,0,0,1-1.1-1.773l3.945-6.623-3.209-7.013a1.135,1.135,0,0,1,1.25-1.551l7.518,1.711,5.674-5.222a1.135,1.135,0,0,1,1.906.736l.7,7.678,6.72,3.777a1.135,1.135,0,0,1-.071,2.075Z" transform="translate(-411.617 -26.801)" fill="#e0e0e0"/>
      <path id="freepik--star--inject-2-2" data-name="freepik--star--inject-2" d="M432.522,40.235a1.012,1.012,0,0,1-.222.213.993.993,0,0,1-1.046.071l-3.945-2.075-3.954,2.075a.993.993,0,0,1-1.046-.071.966.966,0,0,1-.39-.975l.754-4.433-3.2-3.112a.995.995,0,0,1,.55-1.693l4.433-.638,1.977-4.007a.984.984,0,0,1,.887-.55,1,1,0,0,1,.887.55l1.977,4.007,4.433.638a.993.993,0,0,1,.55,1.693h0l-3.2,3.112.762,4.433a1.046,1.046,0,0,1-.2.762Zm-12.616-9.211-.053.115a.363.363,0,0,0,.1.381l3.422,3.342-.807,4.716a.381.381,0,0,0,.55.4l4.238-2.225,4.229,2.225a.4.4,0,0,0,.4,0,.364.364,0,0,0,.151-.372l-.807-4.716,3.422-3.342a.381.381,0,0,0,.1-.381.363.363,0,0,0-.3-.257l-4.743-.692-2.163-4.326a.363.363,0,0,0-.337-.213.381.381,0,0,0-.3.213l-2.11,4.291-4.743.692A.4.4,0,0,0,419.906,31.024Z" transform="translate(-408.06 -25.04)" fill="#e0e0e0"/>
    </g>
    <g id="freepik--speech-bubbles--inject-2" transform="translate(97.764 86.456)">
      <g id="freepik--speech-bubbles--inject-2-2" data-name="freepik--speech-bubbles--inject-2" transform="translate(0 0)">
        <g id="freepik--speech-bubble--inject-2">
          <g id="freepik--speech-bubble--inject-2-2" data-name="freepik--speech-bubble--inject-2">
            <path id="Path_468" data-name="Path 468" d="M370.484,108.683c-6.676-3.865-15.852-3.342-25.994,2.509-20.391,11.791-36.96,40.666-36.96,64.505,0,12,4.2,20.391,10.967,24.318,1.569.887,7.7,4.433,7.7,4.433a16.915,16.915,0,0,1-8.608,13c-.39.222-.151.6.2.8l9.371,5.417a.887.887,0,0,0,.417.124c9.229,0,19.912-6.206,22.891-19.1,1.117-.532,2.243-1.108,3.387-1.773,20.391-11.782,36.96-40.666,36.96-64.5,0-12-4.193-20.391-10.958-24.345Z" transform="translate(-307.53 -106.204)" fill="#0177b4"/>
            <path id="Path_469" data-name="Path 469" d="M355.05,117.291c-20.391,11.782-36.96,40.666-36.96,64.5,0,16.18,7.615,25.861,18.892,26.747-.426,5.142-1.924,10.922-8.866,15.009-.55.328.168.94.629.94,9.229,0,19.912-6.206,22.891-19.1,1.117-.532,2.243-1.108,3.387-1.773,20.391-11.782,36.96-40.666,36.96-64.5S375.459,105.509,355.05,117.291Z" transform="translate(-308.728 -106.896)" fill="#0088ce"/>
            <path id="Path_470" data-name="Path 470" d="M328.207,235.422c-.337.213-.186.523.1.736l-9.256-5.319c-.346-.213-.585-.576-.2-.807A16.907,16.907,0,0,0,327.463,217l1.02.6.94.55a18.4,18.4,0,0,0,7.624,2.234C336.63,225.555,335.122,231.336,328.207,235.422Z" transform="translate(-308.792 -118.774)" fill="#0177b4"/>
          </g>
          <path id="Path_471" data-name="Path 471" d="M355.191,187.982c-.984-.7-1.481-1.959-1.481-3.777a11.224,11.224,0,0,1,1.454-5.4,9.956,9.956,0,0,1,3.724-3.981q2.261-1.3,3.715-.31c.966.656,1.454,1.9,1.454,3.715a11.587,11.587,0,0,1-1.481,5.5,9.894,9.894,0,0,1-3.688,4.034C357.416,188.6,356.184,188.682,355.191,187.982Zm-1.321-48.193L363.9,134l-1.676,33.8-6.676,3.857Z" transform="translate(-312.769 -109.358)" fill="#fafafa"/>
        </g>
        <path id="Path_472" data-name="Path 472" d="M365.34,207.272c10.887-7.979,20.275-20.63,26.02-34.212C380.473,181.048,371.085,193.69,365.34,207.272Z" transform="translate(-314.088 -113.789)" opacity="0.2"/>
        <g id="freepik--speech-bubble--inject-2-3" data-name="freepik--speech-bubble--inject-2" transform="translate(48.193 52.893)">
          <g id="freepik--speech-bubble--inject-2-4" data-name="freepik--speech-bubble--inject-2">
            <path id="Path_473" data-name="Path 473" d="M434.561,252.645c-3.777.044-6.587-2.6-8.351-5.922,11.312-13.91,18.963-32.439,18.963-48.645,0-12.013-4.211-20.453-10.993-24.354l-9.353-5.39c-6.676-3.856-15.843-3.325-25.976,2.518-20.391,11.791-36.96,40.666-36.96,64.505,0,12,4.193,20.391,10.958,24.336,1.578.887,7.793,4.486,9.327,5.381,6.685,3.892,15.878,3.378,26.038-2.491a56.28,56.28,0,0,0,7.722-5.408c6.862,5.435,15.231-.488,18.547-3.325C434.924,253.478,434.977,252.645,434.561,252.645Z" transform="translate(-361.89 -165.866)" fill="#e0e0e0"/>
            <path id="Path_474" data-name="Path 474" d="M393.127,267.821c-12.358,0-20.027-10.062-20.027-26.251,0-23.618,16.454-52.306,36.668-64,5.656-3.262,11.064-4.92,16.073-4.92,12.35,0,20.027,10.053,20.027,26.251,0,15.488-7.217,33.99-18.83,48.273l-.239.3.177.337c2.083,3.927,5.107,6.126,8.529,6.206a.46.46,0,0,1-.124.2c-2.358,2.021-7.039,5.4-11.889,5.4h0a9.335,9.335,0,0,1-5.931-2.092l-.363-.284-.363.293a56.206,56.206,0,0,1-7.642,5.319C403.544,266.119,398.136,267.821,393.127,267.821Z" transform="translate(-363.162 -166.635)" fill="#fafafa"/>
            <path id="Path_475" data-name="Path 475" d="M425.763,172v1.153c12,0,19.451,9.841,19.451,25.666,0,15.373-7.163,33.733-18.7,47.918l-.488.594.364.674c1.915,3.617,4.61,5.842,7.7,6.4-2.456,1.959-6.525,4.575-10.683,4.575a8.768,8.768,0,0,1-5.576-1.968l-.727-.576-.718.594a56.16,56.16,0,0,1-7.562,5.319c-5.568,3.209-10.878,4.841-15.781,4.841-12,0-19.451-9.841-19.451-25.71,0-23.432,16.321-51.916,36.349-63.5,5.568-3.209,10.878-4.841,15.781-4.841V172m0,0c-4.929,0-10.479,1.6-16.357,5-20.391,11.782-36.96,40.657-36.96,64.5,0,16.977,8.4,26.827,20.6,26.827,4.929,0,10.479-1.6,16.357-5a56.283,56.283,0,0,0,7.722-5.408,9.831,9.831,0,0,0,6.286,2.216c5.071,0,9.921-3.546,12.261-5.541.443-.372.5-1.206.08-1.206h-.089c-3.724,0-6.507-2.615-8.263-5.922,11.312-13.91,18.963-32.439,18.963-48.645,0-16.977-8.4-26.818-20.6-26.818Z" transform="translate(-363.084 -166.562)" fill="#f069a7"/>
          </g>
          <path id="Path_476" data-name="Path 476" d="M410.336,226.832a67.5,67.5,0,0,1,3.7-7.518,56.594,56.594,0,0,0,2.606-5.133,9.68,9.68,0,0,0,.842-3.821c0-1.773-.532-2.864-1.6-3.289s-2.465-.115-4.229.887a15.486,15.486,0,0,0-4.495,3.989,24.619,24.619,0,0,0-3.316,5.833l-6.516-1.339a38.533,38.533,0,0,1,6.117-10.639,32.8,32.8,0,0,1,9.132-7.793q6.206-3.546,9.938-2.216t3.741,7.607a20.894,20.894,0,0,1-.727,5.594,26.866,26.866,0,0,1-1.773,4.8c-.7,1.436-1.614,3.147-2.722,5.133a56.832,56.832,0,0,0-2.908,5.665,11.169,11.169,0,0,0-.887,4.433l-8.13,4.7A18.556,18.556,0,0,1,410.336,226.832Zm-.887,22.811c-.984-.7-1.481-1.959-1.481-3.786a11.224,11.224,0,0,1,1.454-5.4,10,10,0,0,1,3.715-3.981c1.516-.887,2.748-.975,3.724-.31s1.454,1.906,1.454,3.724a11.578,11.578,0,0,1-1.481,5.488,9.849,9.849,0,0,1-3.7,4.034c-1.427.851-2.651.922-3.644.23Z" transform="translate(-365.911 -169.22)" fill="#455a64"/>
        </g>
      </g>
    </g>
  </g>
</svg>
