<svg xmlns="http://www.w3.org/2000/svg" xmlns:xlink="http://www.w3.org/1999/xlink" width="272.437" height="80.525" viewBox="0 0 272.437 80.525"><defs><clipPath id="a"><rect width="272.377" height="80.525" transform="translate(0 0)" fill="none"/></clipPath></defs><g transform="translate(0 0)"><g clip-path="url(#a)"><path d="M34.007,26.13s4.671,1.8,3.336,5.877a13.827,13.827,0,0,1-4.5,6.368s9.412,6.118,10.246,7.261-3.812,5.821-3.812,5.821l-4.5,7.928-1.466,5.694-1.914-.044-2.14-7.3-9.1-10.687,2.682-3.45,7.006-4.9L31,36.742,28.169,34.13,28,28.089l4.337-3.222s2.335,1.59,1.668,1.263" fill="#b4e1e8"/><path d="M21.25,47.484l-2.5-1.327a12.145,12.145,0,0,1,1.665-2.388A22.131,22.131,0,0,1,26.9,39.292c1.273-.573,2.139-.988,2.778-1.324a8.423,8.423,0,0,1-3.77-7.526,6.257,6.257,0,0,1,12.512,0,8.475,8.475,0,0,1-3.651,7.552c.593.329,1.408.736,2.659,1.3a22.126,22.126,0,0,1,6.486,4.477,11.7,11.7,0,0,1,1.428,1.991l-2.463,1.4A8.839,8.839,0,0,0,41.8,45.652a19.228,19.228,0,0,0-5.533-3.777,25.871,25.871,0,0,1-4.025-2.108,34.208,34.208,0,0,1-4.177,2.108,19.215,19.215,0,0,0-5.534,3.778,9.342,9.342,0,0,0-1.278,1.831M32.257,27.136a3.593,3.593,0,0,0-3.524,3.49c-.2,3.038,1.8,4.531,3.519,5.7,1.661-1.156,3.538-2.652,3.34-5.7a3.5,3.5,0,0,0-3.335-3.49" fill="#0088ce"/><path d="M23.6,65.258a20.235,20.235,0,0,0-1-3.632C19.476,53.13,9.462,47.158,0,46.764v4.075a22.121,22.121,0,0,1,15.3,4.832,20.377,20.377,0,0,1,6.608,9.587Z" fill="#f069a7"/><path d="M28.441,58.629A27.844,27.844,0,0,1,30.9,65.258h1.514A28.3,28.3,0,0,0,30.5,58.215C25.753,46.5,13.269,38.277,0,37.931v4.075a30.219,30.219,0,0,1,28.44,16.623" fill="#0088ce"/><path d="M51.747,40.789A32.357,32.357,0,0,0,34.195,58.214a28.492,28.492,0,0,0-1.824,7.043h1.518a27.994,27.994,0,0,1,2.376-6.643A29.968,29.968,0,0,1,64.678,42.005V37.93a36.789,36.789,0,0,0-12.931,2.859" fill="#0088ce"/><path d="M55.429,48.964c-5.658,2.493-11.278,7.128-13.358,12.662a20.366,20.366,0,0,0-.995,3.631h1.7a20.382,20.382,0,0,1,6.608-9.587,22.118,22.118,0,0,1,15.3-4.831V46.764a26.2,26.2,0,0,0-9.249,2.2" fill="#f069a7"/><path d="M29.2.136A32.4,32.4,0,0,0,.018,32.378h3.3A29.089,29.089,0,0,1,29.2,3.461Z" fill="#0088ce"/><path d="M59.918,56.863a28.762,28.762,0,0,1-54.974-.007,22.276,22.276,0,0,0-3.5-.1,32.088,32.088,0,0,0,61.984-.005,22.327,22.327,0,0,0-3.507.114" fill="#0088ce"/><path d="M32.653,13.388v3.307A16.613,16.613,0,0,1,48.262,32.422l3.3-.16a19.923,19.923,0,0,0-18.91-18.874" fill="#b4e1e8"/><path d="M32.653,0V3.3A29.12,29.12,0,0,1,61.21,32.378h3.305A32.429,32.429,0,0,0,32.653,0" fill="#b4e1e8"/><path d="M32.653,6.679V9.985A23.2,23.2,0,0,1,55.174,32.4l3.3-.117A26.5,26.5,0,0,0,32.653,6.679" fill="#b4e1e8"/><path d="M89.535,53.86h-6.3V41.445c0-7.307,4.752-12.118,11.94-12.118s11.939,4.811,11.939,12.118V53.86h-6.3V41.445c0-3.683-2.258-6.119-5.643-6.119s-5.644,2.436-5.644,6.119Z" fill="#0088ce"/><path d="M112.641,20.714a3.867,3.867,0,0,1,4.039-4.04,3.916,3.916,0,0,1,4.1,4.04,3.869,3.869,0,0,1-4.1,3.98,3.82,3.82,0,0,1-4.039-3.98m.891,9.385h6.356V53.86h-6.356Z" fill="#0088ce"/><path d="M155.764,42.811c0-8.613,4.693-13.187,12.95-13.187h3.267v6.118h-3.327c-4.1,0-6.534,2.376-6.534,6.95V53.86h-6.356Z" fill="#0088ce"/><path d="M175.544,20.714a3.867,3.867,0,0,1,4.039-4.04,3.916,3.916,0,0,1,4.1,4.04,3.869,3.869,0,0,1-4.1,3.98,3.82,3.82,0,0,1-4.039-3.98m.89,9.385h6.356V53.86h-6.356Z" fill="#0088ce"/><path d="M143.588,30.1v2.494a9.265,9.265,0,0,0-7.306-3.207c-6.593,0-12,5.227-12,12.593s5.406,12.593,12,12.593a9.265,9.265,0,0,0,7.306-3.207s-.013,2.627-.034,3.158l0,.743a6.689,6.689,0,0,1-12.555,3.042l-6.8-.064a13.039,13.039,0,0,0,25.693-2.953l.054-25.192Zm-6.415,18.652a6.367,6.367,0,0,1-6.594-6.772,6.412,6.412,0,0,1,6.653-6.772,6.477,6.477,0,0,1,6.713,6.713,6.556,6.556,0,0,1-6.772,6.831" fill="#0088ce"/></g></g><text transform="translate(193.895 40.665)" fill="#0088ce" font-size="18.126" font-family="FONTSPRINGDEMO-QuinoaRoundBold, FONTSPRING DEMO - Quinoa Round" font-weight="700"><tspan x="0" y="0">J</tspan></text><text transform="translate(202.105 40.665)" fill="#0088ce" font-size="18.126" font-family="FONTSPRINGDEMO-QuinoaRoundBold, FONTSPRING DEMO - Quinoa Round" font-weight="700"><tspan x="0" y="0" letter-spacing="0.146em">EW</tspan><tspan y="0">I</tspan></text><text transform="translate(246.078 40.665)" fill="#0088ce" font-size="18.126" font-family="FONTSPRINGDEMO-QuinoaRoundBold, FONTSPRING DEMO - Quinoa Round" font-weight="700"><tspan x="0" y="0">S</tspan></text><text transform="translate(259.437 40.665)" fill="#0088ce" font-size="18.126" font-family="FONTSPRINGDEMO-QuinoaRoundBold, FONTSPRING DEMO - Quinoa Round" font-weight="700"><tspan x="0" y="0">H</tspan></text><text transform="translate(192.715 53.956)" fill="#f069a7" font-size="8.257" font-family="FONTSPRINGDEMO-QuinoaRoundBold, FONTSPRING DEMO - Quinoa Round" font-weight="700"><tspan x="0" y="0" letter-spacing="0.154em">ON</tspan><tspan y="0" letter-spacing="0.153em">L</tspan><tspan y="0" letter-spacing="0.154em">IN</tspan><tspan y="0">E</tspan></text><text transform="translate(230.482 53.956)" fill="#f069a7" font-size="8.257" font-family="FONTSPRINGDEMO-QuinoaRoundBold, FONTSPRING DEMO - Quinoa Round" font-weight="700"><tspan x="0" y="0" letter-spacing="0.153em"> </tspan><tspan y="0">S</tspan></text><text transform="translate(239.961 53.956)" fill="#f069a7" font-size="8.257" font-family="FONTSPRINGDEMO-QuinoaRoundBold, FONTSPRING DEMO - Quinoa Round" font-weight="700"><tspan x="0" y="0">C</tspan></text><text transform="translate(246.435 53.956)" fill="#f069a7" font-size="8.257" font-family="FONTSPRINGDEMO-QuinoaRoundBold, FONTSPRING DEMO - Quinoa Round" font-weight="700"><tspan x="0" y="0">H</tspan></text><text transform="translate(253.42 53.956)" fill="#f069a7" font-size="8.257" font-family="FONTSPRINGDEMO-QuinoaRoundBold, FONTSPRING DEMO - Quinoa Round" font-weight="700"><tspan x="0" y="0">O</tspan></text><text transform="translate(260.678 53.956)" fill="#f069a7" font-size="8.257" font-family="FONTSPRINGDEMO-QuinoaRoundBold, FONTSPRING DEMO - Quinoa Round" font-weight="700"><tspan x="0" y="0">O</tspan></text><g transform="translate(0 0)"><g clip-path="url(#a)"><text transform="translate(267.894 53.956)" fill="#f069a7" font-size="8.257" font-family="FONTSPRINGDEMO-QuinoaRoundBold, FONTSPRING DEMO - Quinoa Round" font-weight="700"><tspan x="0" y="0">L</tspan></text></g></g></svg>