<svg xmlns="http://www.w3.org/2000/svg" width="489.307" height="434.435" viewBox="0 0 489.307 434.435">
  <g id="Webinar-amico" transform="translate(-11.99 -65.922)">
    <g id="freepik--Floor--inject-2" transform="translate(11.99 209.273)">
      <ellipse id="freepik--floor--inject-2-2" data-name="freepik--floor--inject-2" cx="244.653" cy="145.542" rx="244.653" ry="145.542" fill="#f5f5f5"/>
    </g>
    <g id="freepik--Shadows--inject-2" transform="translate(58.503 224.894)">
      <path id="freepik--Shadow--inject-2" d="M382,342.46l80.65-46.523c3.187-1.83,3.187-4.811,0-6.651l-116.38-67.328a12.736,12.736,0,0,0-11.533,0l-80.671,46.523c-3.187,1.84-3.187,4.821,0,6.651l116.38,67.328a12.736,12.736,0,0,0,11.554,0Z" transform="translate(-51.813 -220.577)" fill="#e0e0e0"/>
      <path id="freepik--shadow--inject-2-2" data-name="freepik--shadow--inject-2" d="M182.141,454.361,61.289,384.689c-3.4-1.963-3.4-5.14,0-7.113L229.425,280.49a13.63,13.63,0,0,1,12.335,0l120.852,69.672c3.4,1.963,3.4,5.14,0,7.113L194.466,454.361a13.63,13.63,0,0,1-12.325,0Z" transform="translate(-57.198 -218.946)" fill="#e0e0e0"/>
      <ellipse id="Ellipse_6" data-name="Ellipse 6" cx="34.106" cy="19.695" rx="34.106" ry="19.695" transform="translate(0 192.222)" fill="#e0e0e0"/>
      <path id="Path_477" data-name="Path 477" d="M242.553,439.019l.113-.134,6.085-6.681h0v-.051a.587.587,0,0,1,.113-.113l.062-.072h0c.874-.833,2.251-.9,3.8,0a10.516,10.516,0,0,1,4.77,8.223c0,1.768-.72,2.919-1.84,3.279h-.072l-.339.072h-.082l-8.809,1.922a2.148,2.148,0,0,1-1.542-.329,6.034,6.034,0,0,1-2.724-4.718,2.282,2.282,0,0,1,.463-1.4Z" transform="translate(-52.08 -214.695)" fill="#e0e0e0"/>
      <path id="Path_478" data-name="Path 478" d="M385.083,379.15,256.83,453.272l-17.762,3.618a.545.545,0,0,1-.586-.792l5.561-10.207,128.263-74.133C375.811,369.734,387.827,377.567,385.083,379.15Z" transform="translate(-52.183 -216.367)" fill="#e0e0e0"/>
      <path id="freepik--shadow--inject-2-3" data-name="freepik--shadow--inject-2" d="M310.1,439.779c1.285,3.495,5.016,5.674,11.245,6.486l111.1-64.7,11.533-11.687a.894.894,0,0,0-.915-1.48l-21.237,7.031Z" transform="translate(-50.182 -216.452)" fill="#e0e0e0"/>
    </g>
    <g id="freepik--Books--inject-2" transform="translate(66.12 192.538)">
      <g id="freepik--books--inject-2-2" data-name="freepik--books--inject-2" transform="translate(202.252)">
        <g id="freepik--Book--inject-2" transform="translate(0 21.596)">
          <path id="Path_479" data-name="Path 479" d="M445.675,292.452l-71.532,40.4L264.29,269.807l71.522-40.4Z" transform="translate(-261.33 -209.571)" fill="#b4e1e8"/>
          <path id="Path_480" data-name="Path 480" d="M445.675,292.452l-71.532,40.4L264.29,269.807l71.522-40.4Z" transform="translate(-261.33 -209.571)" opacity="0.6"/>
          <path id="Path_481" data-name="Path 481" d="M370.4,328.584l69.127-39.235c-1.717-4.872-1.593-6.352.36-12.839l-68.706,38.876S369.93,315.252,370.4,328.584Z" transform="translate(-258.371 -208.257)" fill="#f5f5f5"/>
          <path id="Path_482" data-name="Path 482" d="M374.591,310.16a13.846,13.846,0,0,0-6.311,10.875v8.542c0,4,2.827,5.623,6.311,3.629l68.171-38.732v-3.145l-67.308,38.033c-2.056,1.192-3.793.226-3.783-2.179l.051-7.565a8.347,8.347,0,0,1,3.8-6.527l67.225-38.033V271.49Z" transform="translate(-258.427 -208.397)" fill="#b4e1e8"/>
          <path id="Path_483" data-name="Path 483" d="M374.591,310.16a13.846,13.846,0,0,0-6.311,10.875v8.542c0,4,2.827,5.623,6.311,3.629l68.171-38.732v-3.145l-67.308,38.033c-2.056,1.192-3.793.226-3.783-2.179l.051-7.565a8.347,8.347,0,0,1,3.8-6.527l67.225-38.033V271.49Z" transform="translate(-258.427 -208.397)" opacity="0.5"/>
          <path id="Path_484" data-name="Path 484" d="M445.745,273.152,335.892,210.11l-68.161,38.721a13.867,13.867,0,0,0-6.322,10.875v8.5c0,1.994.7,3.4,1.85,4.06L373.113,335.3c-1.151-.658-1.85-2.056-1.85-4.05v-8.511a13.877,13.877,0,0,1,6.311-10.875Z" transform="translate(-261.41 -210.11)" fill="#b4e1e8"/>
          <path id="Path_485" data-name="Path 485" d="M445.745,273.152,335.892,210.11l-68.161,38.721a13.867,13.867,0,0,0-6.322,10.875v8.5c0,1.994.7,3.4,1.85,4.06L373.113,335.3c-1.151-.658-1.85-2.056-1.85-4.05v-8.511a13.877,13.877,0,0,1,6.311-10.875Z" transform="translate(-261.41 -210.11)" opacity="0.35"/>
          <path id="Path_486" data-name="Path 486" d="M373.1,315.371a12.839,12.839,0,0,0-1.85,6.167v8.573c0,1.994.7,3.392,1.85,4.05L263.26,271.089c-1.151-.658-1.85-2.056-1.85-4.06v-8.5a12.839,12.839,0,0,1,1.85-6.167Z" transform="translate(-261.41 -208.931)" fill="#b4e1e8"/>
          <path id="Path_487" data-name="Path 487" d="M373.1,315.371a12.839,12.839,0,0,0-1.85,6.167v8.573c0,1.994.7,3.392,1.85,4.05L263.26,271.089c-1.151-.658-1.85-2.056-1.85-4.06v-8.5a12.839,12.839,0,0,1,1.85-6.167Z" transform="translate(-261.41 -208.931)" opacity="0.45"/>
          <path id="Path_488" data-name="Path 488" d="M277.692,260.54c-2.056,8.891-2.056,12.335,0,18.883l5.222,3.022c-2.056-6.517-2.056-9.991,0-18.883Z" transform="translate(-260.999 -208.702)" fill="#b4e1e8"/>
          <path id="Path_489" data-name="Path 489" d="M347.782,300.82c-2.056,8.891-2.056,12.253,0,18.77l5.232,3.022c-2.056-6.527-2.056-9.889,0-18.77Z" transform="translate(-259.042 -207.578)" fill="#b4e1e8"/>
        </g>
        <g id="freepik--book--inject-2-2" data-name="freepik--book--inject-2" transform="translate(14.432)">
          <path id="Path_490" data-name="Path 490" d="M459.715,272.122l-71.532,40.4L278.33,249.477l71.522-40.4Z" transform="translate(-275.37 -188.542)" fill="#f069a7"/>
          <path id="Path_491" data-name="Path 491" d="M459.715,272.122l-71.532,40.4L278.33,249.477l71.522-40.4Z" transform="translate(-275.37 -188.542)" opacity="0.4"/>
          <path id="Path_492" data-name="Path 492" d="M384.443,308.264,453.57,269c-1.717-4.872-1.593-7.051.349-13.538l-68.7,38.865S383.99,294.932,384.443,308.264Z" transform="translate(-272.411 -187.248)" fill="#f5f5f5"/>
          <path id="Path_493" data-name="Path 493" d="M388.632,289.14a13.877,13.877,0,0,0-6.322,10.875v9.2c0,4,2.827,5.623,6.322,3.618L456.8,274.112v-3.145L389.5,309c-2.056,1.2-3.793.226-3.793-2.169l.062-8.223a8.336,8.336,0,0,1,3.793-6.527l67.236-38.033V250.48Z" transform="translate(-272.467 -187.387)" fill="#f069a7"/>
          <path id="Path_494" data-name="Path 494" d="M388.632,289.14a13.877,13.877,0,0,0-6.322,10.875v9.2c0,4,2.827,5.623,6.322,3.618L456.8,274.112v-3.145L389.5,309c-2.056,1.2-3.793.226-3.793-2.169l.062-8.223a8.336,8.336,0,0,1,3.793-6.527l67.236-38.033V250.48Z" transform="translate(-272.467 -187.387)" opacity="0.25"/>
          <path id="Path_495" data-name="Path 495" d="M459.785,252.142,349.932,189.1l-68.171,38.721A13.846,13.846,0,0,0,275.45,238.7v9.251c0,1.994.7,3.392,1.85,4.05L387.153,315.04c-1.151-.658-1.85-2.056-1.85-4.06v-9.2a13.846,13.846,0,0,1,6.311-10.875Z" transform="translate(-275.45 -189.1)" fill="#f069a7"/>
          <path id="Path_496" data-name="Path 496" d="M387.143,294.362a12.777,12.777,0,0,0-1.85,6.167v9.2c0,1.994.7,3.4,1.85,4.06L277.3,250.769c-1.151-.658-1.85-2.056-1.85-4.05v-9.251a12.777,12.777,0,0,1,1.85-6.167Z" transform="translate(-275.45 -187.922)" fill="#f069a7"/>
          <path id="Path_497" data-name="Path 497" d="M387.143,294.362a12.777,12.777,0,0,0-1.85,6.167v9.2c0,1.994.7,3.4,1.85,4.06L277.3,250.769c-1.151-.658-1.85-2.056-1.85-4.05v-9.251a12.777,12.777,0,0,1,1.85-6.167Z" transform="translate(-275.45 -187.922)" opacity="0.15"/>
          <path id="Path_498" data-name="Path 498" d="M291.722,239.52c-2.056,8.891-2.056,13.075,0,19.592l5.232,3.022c-2.056-6.527-2.056-10.7,0-19.592Z" transform="translate(-275.039 -187.693)" fill="#f069a7"/>
          <path id="Path_499" data-name="Path 499" d="M361.822,279.85c-2.056,8.891-2.056,12.921,0,19.438l5.232,3.022c-2.056-6.517-2.056-10.577,0-19.469Z" transform="translate(-273.082 -186.567)" fill="#f069a7"/>
          <g id="Group_135" data-name="Group 135" transform="translate(15.141 51.827)" opacity="0.4">
            <path id="Path_500" data-name="Path 500" d="M291.722,239.52c-2.056,8.891-2.056,13.075,0,19.592l5.232,3.022c-2.056-6.527-2.056-10.7,0-19.592Z" transform="translate(-290.18 -239.52)" fill="#fff"/>
            <path id="Path_501" data-name="Path 501" d="M361.822,279.85c-2.056,8.891-2.056,12.921,0,19.438l5.232,3.022c-2.056-6.517-2.056-10.577,0-19.469Z" transform="translate(-288.223 -238.394)" fill="#fff"/>
          </g>
        </g>
      </g>
      <g id="freepik--books--inject-2-3" data-name="freepik--books--inject-2" transform="translate(0 59.516)">
        <g id="freepik--book--inject-2-3" data-name="freepik--book--inject-2" transform="translate(14.237 20.61)">
          <path id="Path_502" data-name="Path 502" d="M78.5,380.922l111.107,63.124,161.156-92.512-111.1-63.124Z" transform="translate(-78.5 -266.454)" fill="#f069a7"/>
          <path id="Path_503" data-name="Path 503" d="M78.5,380.922l111.107,63.124,161.156-92.512-111.1-63.124Z" transform="translate(-78.5 -266.454)" opacity="0.4"/>
          <path id="Path_504" data-name="Path 504" d="M190.358,438.824,81.82,376.9c1.84-5.212,1.7-7.545-.38-14.473l108.085,61.5S190.861,424.578,190.358,438.824Z" transform="translate(-78.418 -264.388)" fill="#f5f5f5"/>
          <path id="Path_505" data-name="Path 505" d="M186.019,418.385A14.8,14.8,0,0,1,192.773,430v9.827c0,4.286-3.022,6.013-6.753,3.875L78.51,382.367v-3.361L185.1,439.56c2.231,1.285,4.04.247,4.04-2.323l-.062-8.83a8.891,8.891,0,0,0-4.05-6.969L78.51,360.853v-3.8Z" transform="translate(-78.5 -264.538)" fill="#f069a7"/>
          <path id="Path_506" data-name="Path 506" d="M186.019,418.385A14.8,14.8,0,0,1,192.773,430v9.827c0,4.286-3.022,6.013-6.753,3.875L78.51,382.367v-3.361L185.1,439.56c2.231,1.285,4.04.247,4.04-2.323l-.062-8.83a8.891,8.891,0,0,0-4.05-6.969L78.51,360.853v-3.8Z" transform="translate(-78.5 -264.538)" opacity="0.3"/>
          <path id="Path_507" data-name="Path 507" d="M78.51,359.562,239.666,267.05l107.509,61.335A14.8,14.8,0,0,1,353.929,340v9.827c0,2.138-.75,3.639-1.974,4.338L190.789,446.678c1.223-.7,1.974-2.21,1.974-4.338v-9.847a14.812,14.812,0,0,0-6.743-11.615Z" transform="translate(-78.5 -267.05)" fill="#f069a7"/>
          <path id="Path_508" data-name="Path 508" d="M78.51,359.562,239.666,267.05l107.509,61.335A14.8,14.8,0,0,1,353.929,340v9.827c0,2.138-.75,3.639-1.974,4.338L190.789,446.678c1.223-.7,1.974-2.21,1.974-4.338v-9.847a14.812,14.812,0,0,0-6.743-11.615Z" transform="translate(-78.5 -267.05)" opacity="0.2"/>
          <path id="Path_509" data-name="Path 509" d="M187.75,424.1a13.641,13.641,0,0,1,1.974,6.609v9.837c0,2.128-.75,3.639-1.974,4.338l161.166-92.512c1.223-.7,1.974-2.2,1.974-4.338v-9.858a13.743,13.743,0,0,0-1.974-6.609Z" transform="translate(-75.451 -265.249)" fill="#f069a7"/>
          <path id="Path_510" data-name="Path 510" d="M187.75,424.1a13.6,13.6,0,0,1,1.974,6.609v9.837c0,2.128-.75,3.629-1.974,4.338l161.156-92.512c1.234-.7,1.974-2.21,1.984-4.338v-9.858a13.6,13.6,0,0,0-1.974-6.609Z" transform="translate(-75.451 -265.249)" fill="#f069a7"/>
          <path id="Path_511" data-name="Path 511" d="M329.252,340.36c2.189,9.5,2.159,13.959,0,20.928l-5.592,3.228c2.159-6.969,2.189-11.43,0-20.928Z" transform="translate(-71.657 -265.004)" fill="#f069a7"/>
          <path id="Path_512" data-name="Path 512" d="M211.762,407.89c2.189,9.5,2.159,13.825,0,20.795l-5.582,3.2c2.148-6.969,2.179-11.307,0-20.784Z" transform="translate(-74.936 -263.119)" fill="#f069a7"/>
          <g id="Group_136" data-name="Group 136" transform="translate(131.244 75.356)" opacity="0.4">
            <path id="Path_513" data-name="Path 513" d="M329.252,340.36c2.189,9.5,2.159,13.959,0,20.928l-5.592,3.228c2.159-6.969,2.189-11.43,0-20.928Z" transform="translate(-202.901 -340.36)" fill="#fff"/>
            <path id="Path_514" data-name="Path 514" d="M211.762,407.89c2.189,9.5,2.159,13.825,0,20.795l-5.582,3.2c2.148-6.969,2.179-11.307,0-20.784Z" transform="translate(-206.18 -338.475)" fill="#fff"/>
          </g>
        </g>
        <g id="freepik--book--inject-2-4" data-name="freepik--book--inject-2">
          <path id="Path_515" data-name="Path 515" d="M64.65,360.152l111.107,63.124,161.156-92.512-111.1-63.124Z" transform="translate(-64.65 -246.424)" fill="#b4e1e8"/>
          <path id="Path_516" data-name="Path 516" d="M64.65,360.152l111.107,63.124,161.156-92.512-111.1-63.124Z" transform="translate(-64.65 -246.424)" fill="#fff" opacity="0.2"/>
          <path id="Path_517" data-name="Path 517" d="M176.506,418.055,68.01,356.113c1.84-5.212,1.7-6.794-.38-13.723l108.085,61.49S176.969,403.787,176.506,418.055Z" transform="translate(-64.567 -244.337)" fill="#f5f5f5"/>
          <path id="Path_518" data-name="Path 518" d="M172.169,398.346a14.8,14.8,0,0,1,6.753,11.615v9.076c0,4.286-3.022,6.013-6.753,3.875L64.66,361.577v-3.361L171.254,418.77c2.231,1.285,4.04.247,4.04-2.323l-.062-8.079a8.912,8.912,0,0,0-4.05-6.98L64.66,340.814V337Z" transform="translate(-64.65 -244.488)" fill="#b4e1e8"/>
          <path id="Path_519" data-name="Path 519" d="M172.169,398.346a14.8,14.8,0,0,1,6.753,11.615v9.076c0,4.286-3.022,6.013-6.753,3.875L64.66,361.577v-3.361L171.254,418.77c2.231,1.285,4.04.247,4.04-2.323l-.062-8.079a8.912,8.912,0,0,0-4.05-6.98L64.66,340.814V337Z" transform="translate(-64.65 -244.488)" fill="#fff" opacity="0.4"/>
          <path id="Path_520" data-name="Path 520" d="M64.65,339.512,225.816,247l107.478,61.346a14.823,14.823,0,0,1,6.784,11.636v9.076c0,2.138-.75,3.639-1.984,4.338L176.939,425.857c1.223-.709,1.974-2.21,1.974-4.338v-9.025a14.833,14.833,0,0,0-6.743-11.626Z" transform="translate(-64.65 -247)" fill="#b4e1e8"/>
          <path id="Path_521" data-name="Path 521" d="M64.65,339.512,225.816,247l107.478,61.346a14.823,14.823,0,0,1,6.784,11.636v9.076c0,2.138-.75,3.639-1.984,4.338L176.939,425.857c1.223-.709,1.974-2.21,1.974-4.338v-9.025a14.833,14.833,0,0,0-6.743-11.626Z" transform="translate(-64.65 -247)" fill="#fff" opacity="0.85"/>
          <path id="Path_522" data-name="Path 522" d="M173.9,404.061a13.6,13.6,0,0,1,1.974,6.609v9.087c0,2.128-.75,3.629-1.974,4.338l161.156-92.512c1.233-.7,1.984-2.2,1.984-4.338v-9.066a13.62,13.62,0,0,0-1.984-6.609Z" transform="translate(-61.601 -245.198)" fill="#b4e1e8"/>
          <path id="Path_523" data-name="Path 523" d="M173.9,404.061a13.6,13.6,0,0,1,1.974,6.609v9.087c0,2.128-.75,3.629-1.974,4.338l161.156-92.512c1.233-.7,1.984-2.2,1.984-4.338v-9.066a13.62,13.62,0,0,0-1.984-6.609Z" transform="translate(-61.601 -245.198)" fill="#fff" opacity="0.6"/>
          <path id="Path_524" data-name="Path 524" d="M315.4,320.32c2.189,9.5,2.159,13.209,0,20.178l-5.592,3.228c2.159-6.969,2.189-10.68,0-20.188Z" transform="translate(-57.807 -244.953)" fill="#fff"/>
          <path id="Path_525" data-name="Path 525" d="M197.912,387.82c2.189,9.5,2.159,13.1,0,20.065L192.32,411.1c2.159-6.959,2.189-10.557,0-20.055Z" transform="translate(-61.086 -243.069)" fill="#fff"/>
        </g>
      </g>
    </g>
    <g id="freepik--graduation-cap--inject-2" transform="translate(285.302 146.2)">
      <g id="freepik--graduation-cap--inject-2-2" data-name="freepik--graduation-cap--inject-2">
        <path id="Path_526" data-name="Path 526" d="M307.85,196.577v41.836c0,6.024,5.294,12.047,15.8,16.642,21.052,9.251,55.189,9.251,76.24,0,10.536-4.615,15.789-10.649,15.789-16.693V196.577h0c.123-6.167-5.14-12.232-15.778-16.9-21.052-9.251-55.189-9.251-76.24,0-10.67,4.636-15.922,10.8-15.8,16.9Z" transform="translate(-277.043 -143.218)" fill="#37474f"/>
        <path id="Path_527" data-name="Path 527" d="M307.861,196.577c-.123-6.167,5.14-12.232,15.789-16.9,21.052-9.251,55.189-9.251,76.24,0,10.649,4.667,15.9,10.783,15.778,16.9h0v19.109c0-4.739-4.2-8.131-16.652-3.546-20.4,7.514-31.865,19.921-52.67,26.058-17.207,5.068-32.451,3.084-38.506-3.217v-38.4Z" transform="translate(-277.044 -143.218)" fill="#263238"/>
        <path id="Path_528" data-name="Path 528" d="M307.85,217.471v4.749c0,6.013,5.294,12.047,15.8,16.632,21.052,9.251,55.189,9.251,76.24,0,10.608-4.636,15.861-10.742,15.789-16.827V217.43c0,6.034-5.253,12.068-15.789,16.693-21.052,9.251-55.189,9.251-76.24,0C313.144,229.518,307.881,223.5,307.85,217.471Z" transform="translate(-277.043 -141.971)" fill="#0088ce"/>
        <path id="Path_529" data-name="Path 529" d="M447.311,184.037,362.6,144.02l-84.72,40.017v6.671l84.72,35.576,84.71-35.576Z" transform="translate(-277.88 -144.02)" fill="#37474f"/>
        <path id="Path_530" data-name="Path 530" d="M360.3,225.2v-6.671l84.71-35.576v6.671Z" transform="translate(-275.579 -142.933)" fill="#0088ce" opacity="0.2"/>
        <path id="Path_531" data-name="Path 531" d="M360.3,218.526l83.5-33.592,1.213,4.687V182.95Z" transform="translate(-275.579 -142.933)" fill="#0088ce" opacity="0.2"/>
        <path id="Path_532" data-name="Path 532" d="M362.6,144.02l-84.72,40.017,84.72,35.576,84.71-35.576Z" transform="translate(-277.88 -144.02)" fill="#455a64"/>
        <path id="Path_533" data-name="Path 533" d="M316.111,215.866c0-.555-.267-13.558,1.028-17.259s6.106-7.452,16.148-12.551a105.8,105.8,0,0,1,22.563-8.326l.411,1.85a103.5,103.5,0,0,0-22.121,8.162c-9.436,4.79-14.124,8.336-15.2,11.482-.966,2.806-.977,12.931-.894,16.6Z" transform="translate(-276.814 -143.079)" fill="#0088ce"/>
        <path id="Path_534" data-name="Path 534" d="M316.111,215.866c0-.555-.267-13.558,1.028-17.259s6.106-7.452,16.148-12.551a105.8,105.8,0,0,1,22.563-8.326l.411,1.85a103.5,103.5,0,0,0-22.121,8.162c-9.436,4.79-14.124,8.336-15.2,11.482-.966,2.806-.977,12.931-.894,16.6Z" transform="translate(-276.814 -143.079)" fill="#fff" opacity="0.8"/>
        <path id="Path_535" data-name="Path 535" d="M327.368,254.4c0-9.734-1.614-27.168-6.723-32.235h-6.733c-5.14,5.068-6.712,22.5-6.712,32.235h0c0,1.49.977,2.981,2.95,4.112a15.748,15.748,0,0,0,14.257,0c1.974-1.141,2.96-2.631,2.96-4.112Z" transform="translate(-277.062 -141.839)" fill="#0088ce"/>
        <path id="Path_536" data-name="Path 536" d="M327.368,254.4c0-9.734-1.614-27.168-6.723-32.235h-6.733c-5.14,5.068-6.712,22.5-6.712,32.235h0c0,1.49.977,2.981,2.95,4.112a15.748,15.748,0,0,0,14.257,0c1.974-1.141,2.96-2.631,2.96-4.112Z" transform="translate(-277.062 -141.839)" fill="#fff" opacity="0.5"/>
        <path id="Path_537" data-name="Path 537" d="M313.88,222.16a9.374,9.374,0,0,0-1.09,1.357c1.285,1.357,3.259,1.706,5.222,1.861s4.009,1.747,4.883,9.734,2.57,18.184-.6,21.278-10.228,3.084-13.939.761h0a7.783,7.783,0,0,0,1.758,1.367,15.748,15.748,0,0,0,14.257,0c1.974-1.141,2.96-2.631,2.96-4.112h0c0-9.734-1.614-27.168-6.723-32.235Z" transform="translate(-277.029 -141.839)" fill="#0088ce" opacity="0.6"/>
        <path id="Path_538" data-name="Path 538" d="M322.195,218.847a5.047,5.047,0,1,1-1.475-3.575,5.057,5.057,0,0,1,1.475,3.575Z" transform="translate(-276.925 -142.073)" fill="#0088ce"/>
        <path id="Path_539" data-name="Path 539" d="M322.195,218.847a5.047,5.047,0,1,1-1.475-3.575,5.057,5.057,0,0,1,1.475,3.575Z" transform="translate(-276.925 -142.073)" fill="#fff" opacity="0.5"/>
        <path id="Path_540" data-name="Path 540" d="M320.07,214.72a4.584,4.584,0,0,1-1.223,6.568,4.944,4.944,0,0,1-6.507-.966,5.037,5.037,0,1,0,7.73-5.6Z" transform="translate(-276.918 -142.047)" fill="#0088ce" opacity="0.4"/>
        <path id="Path_541" data-name="Path 541" d="M353.67,175.487a3.4,3.4,0,0,1,1.994-2.775,10.67,10.67,0,0,1,9.632,0,3.4,3.4,0,0,1,1.994,2.775v2.231a3.392,3.392,0,0,1-1.994,2.775,10.67,10.67,0,0,1-9.632,0,3.392,3.392,0,0,1-1.994-2.775Z" transform="translate(-275.765 -143.251)" fill="#263238"/>
        <path id="Path_542" data-name="Path 542" d="M365.316,178.272c2.662-1.542,2.662-4.029,0-5.561a10.67,10.67,0,0,0-9.632,0c-2.652,1.532-2.652,4.019,0,5.561a10.67,10.67,0,0,0,9.632,0Z" transform="translate(-275.764 -143.251)" fill="#37474f"/>
      </g>
    </g>
    <g id="freepik--Apple--inject-2" transform="translate(53.989 363.094)">
      <g id="freepik--apple--inject-2-2" data-name="freepik--apple--inject-2" transform="translate(0)">
        <path id="Path_543" data-name="Path 543" d="M99.2,373.1c6.024-.668,16.519-1.645,25.235,10.546,9.93,13.867,5.787,33.921-4.112,43.82-12.479,12.335-34.6,16.765-49.73,7.072C53.836,423.817,48.512,399,56.53,386.37s23.755-12.1,28-11.091C90.9,376.79,94.521,373.624,99.2,373.1Z" transform="translate(-52.848 -354.53)" fill="#f069a7"/>
        <path id="Path_544" data-name="Path 544" d="M78.239,429.4c16.868,5.818,37.488-.411,48.589-12.335a32,32,0,0,1-6.548,9.755c-12.479,12.335-34.6,16.765-49.73,7.072C57.877,425.792,51.771,409.52,53,396.64,53,400.186,59.675,423.016,78.239,429.4Z" transform="translate(-52.848 -353.863)" opacity="0.1"/>
        <g id="Group_137" data-name="Group 137" transform="translate(50.616 22.586)" opacity="0.1">
          <path id="Path_545" data-name="Path 545" d="M104.917,377.226c3.783-1.028,9.94,1.47,13.753,6.167,4.739,5.88,6.753,14.987,6.764,21.853,0,13.846-11.8,23.128-13.25,22.2s6.5-11.307-1.028-23.858C103.6,390.939,98.708,378.84,104.917,377.226Z" transform="translate(-102.09 -376.997)" fill="#fff"/>
        </g>
        <g id="Group_138" data-name="Group 138" transform="translate(52.398 24.369)" opacity="0.1">
          <path id="Path_546" data-name="Path 546" d="M108.209,378.843c4.112.658,9.734,6.167,11.667,10.372s1.871,7.339,1.357,7.966c-.925,1.11-10.2-5.3-13.363-8.347C103.357,384.507,101.528,377.784,108.209,378.843Z" transform="translate(-103.823 -378.732)" fill="#fff"/>
        </g>
        <path id="Path_547" data-name="Path 547" d="M94.217,385.379c1.8-2.056,3.629-3.2,5.14-.863s-3.433,7.2-9.9,6.466-9.251-4.41-9.508-6.466c0,0,3.536,3.937,7.761,3.731a10.536,10.536,0,0,0,6.507-2.868Z" transform="translate(-52.092 -354.237)" opacity="0.2"/>
        <path id="Path_548" data-name="Path 548" d="M88.919,390.185a58.529,58.529,0,0,1-.093-17.32c1.449-8.377,5.438-14.74,6.671-15.583a16.8,16.8,0,0,1,6.579-2.159c3.166-.5,7.3,1.028,6.466,2.375s-5.232,3.084-9.878,9.2-8.223,17.053-7.2,23.056A2.457,2.457,0,0,1,88.919,390.185Z" transform="translate(-51.861 -355.024)" fill="#37474f"/>
        <path id="Path_549" data-name="Path 549" d="M95.522,357.147l.278-.175h0a18.5,18.5,0,0,1,6.044-1.83c2.333-.37,5.14.349,6.167,1.305.3.421-.3,1.151-3.084,2.056a17.9,17.9,0,0,1-8.449.637C95.275,358.853,94.607,357.846,95.522,357.147Z" transform="translate(-51.669 -355.024)" fill="#455a64"/>
        <path id="Path_550" data-name="Path 550" d="M91.331,379.356c1.275-7.545,7.822-14.771,12.541-18.276h0a32.4,32.4,0,0,0-5.212,5.448c-4.656,6.106-8.223,17.053-7.2,23.056a2.457,2.457,0,0,1-2.529.432s-.37-2.159-.576-5.335C89.018,387.559,90.149,386.315,91.331,379.356Z" transform="translate(-51.857 -354.855)" opacity="0.1"/>
        <path id="Path_551" data-name="Path 551" d="M88.807,377.367A15.1,15.1,0,0,1,74.1,374.283c-5.325-4.985-3.762-12.921-3.762-12.921a14.062,14.062,0,0,1,12.8,1.737C87.666,366.368,89.527,373.831,88.807,377.367Z" transform="translate(-52.366 -354.87)" fill="#f069a7"/>
        <path id="Path_552" data-name="Path 552" d="M88.807,377.367A15.1,15.1,0,0,1,74.1,374.283c-5.325-4.985-3.762-12.921-3.762-12.921a14.062,14.062,0,0,1,12.8,1.737C87.666,366.368,89.527,373.831,88.807,377.367Z" transform="translate(-52.366 -354.87)" opacity="0.3"/>
        <path id="Path_553" data-name="Path 553" d="M70.33,361.392a14.062,14.062,0,0,1,12.8,1.737c4.533,3.238,6.352,10.7,5.674,14.237C83.354,366.943,70.33,361.392,70.33,361.392Z" transform="translate(-52.36 -354.869)" fill="#ba68c8"/>
        <path id="Path_554" data-name="Path 554" d="M70.33,361.392a14.062,14.062,0,0,1,12.8,1.737c4.533,3.238,6.352,10.7,5.674,14.237C83.354,366.943,70.33,361.392,70.33,361.392Z" transform="translate(-52.36 -354.869)" opacity="0.2"/>
      </g>
    </g>
    <g id="freepik--Pen--inject-2" transform="translate(243.779 369.586)">
      <g id="freepik--pen--inject-2-2" data-name="freepik--pen--inject-2">
        <g id="freepik--pen--inject-2-3" data-name="freepik--pen--inject-2">
          <path id="Path_555" data-name="Path 555" d="M369.1,364.681a10.536,10.536,0,0,0,4.77,8.223,3.793,3.793,0,0,0,2.734.576,2.449,2.449,0,0,1-.514.411l1.141-.658h.072l.164-.113a1.863,1.863,0,0,0,.216-.185l.123-.123h0l.113-.134a2.93,2.93,0,0,0,.391-.709,2.151,2.151,0,0,0,.082-.236.236.236,0,0,0,0-.113.864.864,0,0,0,.051-.206,4.811,4.811,0,0,0,.134-1.192A10.536,10.536,0,0,0,373.818,362a4.255,4.255,0,0,0-2.138-.658h-.3l-.278.051h-.257l-.2.082h0l-.185.092-1.028.565a2.189,2.189,0,0,1,.514-.185,3.8,3.8,0,0,0-.853,2.734Zm7.853,8.727h.082Z" transform="translate(-233.812 -361.34)" fill="#0088ce"/>
          <path id="Path_556" data-name="Path 556" d="M249.23,433.543l6.712,11.718,1.141-.658L379.4,373.935a2.449,2.449,0,0,0,.514-.411,3.772,3.772,0,0,0,.884-2.673,10.536,10.536,0,0,0-4.77-8.223,4.307,4.307,0,0,0-2.128-.648,2.886,2.886,0,0,0-.606.062,2.19,2.19,0,0,0-.514.185H372.7Z" transform="translate(-237.158 -361.322)" fill="#f0f0f0"/>
          <path id="Path_557" data-name="Path 557" d="M252.629,431.948c-2.631-1.521-4.759-.288-4.759,2.745a10.526,10.526,0,0,0,4.759,8.223c2.631,1.521,4.77.288,4.77-2.755a10.516,10.516,0,0,0-4.77-8.213Z" transform="translate(-237.196 -359.387)" fill="#0088ce"/>
          <path id="Path_558" data-name="Path 558" d="M320.331,396.614h0l.154-.092a1.264,1.264,0,0,1,1.11.164,3.762,3.762,0,0,1,1.7,2.93,1.264,1.264,0,0,1-.4,1.028h0l-.206.123-72.406,41.795-4.759-2.755Z" transform="translate(-237.261 -360.36)" fill="#455a64"/>
          <path id="Path_559" data-name="Path 559" d="M257.032,437.622l-6.723,3.885-4.759-2.755,9.107-5.253a11.5,11.5,0,0,1,2.374,4.122Z" transform="translate(-237.26 -359.326)" fill="#37474f"/>
          <path id="Path_560" data-name="Path 560" d="M240.217,442.082h0l5.52-6.065.144-.164a2.159,2.159,0,0,1,2.724,0,7.442,7.442,0,0,1,3.361,5.828A2.22,2.22,0,0,1,250.681,444h0l-.216.051-8.09,1.758h0a1.264,1.264,0,0,1-.874-.185,3.4,3.4,0,0,1-1.532-2.662,1.213,1.213,0,0,1,.247-.884Z" transform="translate(-237.416 -359.274)" fill="#0088ce"/>
          <path id="Path_561" data-name="Path 561" d="M240.217,442.082h0l5.52-6.065.144-.164a2.159,2.159,0,0,1,2.724,0,7.442,7.442,0,0,1,3.361,5.828A2.22,2.22,0,0,1,250.681,444h0l-.216.051-8.09,1.758h0a1.264,1.264,0,0,1-.874-.185,3.4,3.4,0,0,1-1.532-2.662,1.213,1.213,0,0,1,.247-.884Z" transform="translate(-237.416 -359.274)" opacity="0.1"/>
          <path id="Path_562" data-name="Path 562" d="M239.91,442.878a3.382,3.382,0,0,0,1.542,2.652,1.234,1.234,0,0,0,.863.185h0l4.112-.884c.637-.144,1.028-.75,1.028-1.717a5.427,5.427,0,0,0-2.446-4.256,1.583,1.583,0,0,0-1.963,0l-.113.123-2.734,3h0A1.182,1.182,0,0,0,239.91,442.878Z" transform="translate(-237.418 -359.186)" fill="#0088ce"/>
          <path id="Path_563" data-name="Path 563" d="M241.442,441.9c-.843-.483-1.532-.093-1.532.884a3.4,3.4,0,0,0,1.532,2.662c.853.483,1.532.093,1.532-.884a3.392,3.392,0,0,0-1.532-2.662Z" transform="translate(-237.418 -359.097)" opacity="0.1"/>
          <path id="Path_564" data-name="Path 564" d="M360.594,372.823a1.162,1.162,0,0,1,1.192.113,3.711,3.711,0,0,1,1.686,2.919,1.172,1.172,0,0,1-.5,1.1h0l-42.083,24.331a1.264,1.264,0,0,0,.4-1.028,3.762,3.762,0,0,0-1.7-2.93,1.264,1.264,0,0,0-1.11-.164Z" transform="translate(-235.225 -361.023)" fill="#fafafa"/>
          <path id="Path_565" data-name="Path 565" d="M359,373.913a3.762,3.762,0,0,0,1.686,2.919,1.032,1.032,0,0,0,1.686-.977,3.711,3.711,0,0,0-1.686-2.919,1.028,1.028,0,0,0-1.686.977Z" transform="translate(-234.094 -361.023)" fill="#f5f5f5"/>
          <path id="Path_566" data-name="Path 566" d="M362.671,366.98h.134l7.031-4.112.164-.092h0a3.084,3.084,0,0,1,2.9.36,9.467,9.467,0,0,1,4.286,7.432,3,3,0,0,1-1.264,2.775h0l-7.113,4.112h0a3.084,3.084,0,0,1-2.971-.329,9.5,9.5,0,0,1-4.286-7.432,3.084,3.084,0,0,1,1.12-2.714Z" transform="translate(-234.023 -361.306)" fill="#0088ce"/>
          <path id="Path_567" data-name="Path 567" d="M362.671,366.98h.134l7.031-4.112.164-.092h0a3.084,3.084,0,0,1,2.9.36,9.467,9.467,0,0,1,4.286,7.432,3,3,0,0,1-1.264,2.775h0l-7.113,4.112h0a3.084,3.084,0,0,1-2.971-.329,9.5,9.5,0,0,1-4.286-7.432,3.084,3.084,0,0,1,1.12-2.714Z" transform="translate(-234.023 -361.306)" opacity="0.05"/>
          <path id="Path_568" data-name="Path 568" d="M365.786,367.116c-2.364-1.367-4.286-.267-4.286,2.467a9.5,9.5,0,0,0,4.286,7.432c2.364,1.367,4.286.257,4.286-2.477A9.477,9.477,0,0,0,365.786,367.116Z" transform="translate(-234.024 -361.195)" opacity="0.1"/>
          <path id="Path_569" data-name="Path 569" d="M238.014,444.44h0l2.909-1.747h0a.545.545,0,0,1,.565,0,1.768,1.768,0,0,1,.791,1.367.545.545,0,0,1-.236.5h0l-2.9,1.758h0a1.141,1.141,0,0,1-.535.134,1.11,1.11,0,0,1-.6-2.056Z" transform="translate(-237.485 -359.071)" fill="#455a64"/>
          <path id="Path_570" data-name="Path 570" d="M237.86,444.524h0l.154-.123h0a.555.555,0,0,1,.5.082,1.748,1.748,0,0,1,.791,1.367.535.535,0,0,1-.226.493h-.113a.853.853,0,0,1-.36.062,1.12,1.12,0,0,1-1.12-1.12,1.028,1.028,0,0,1,.37-.761Z" transform="translate(-237.485 -359.022)" fill="#263238"/>
        </g>
      </g>
    </g>
    <g id="freepik--Pencil--inject-2" transform="translate(322.209 372.307)">
      <g id="freepik--pencil--inject-2-2" data-name="freepik--pencil--inject-2">
        <path id="Path_571" data-name="Path 571" d="M419.59,367.66,438.514,364a.586.586,0,0,1,.555.966l-12.89,14.452Z" transform="translate(-310.832 -363.988)" fill="#ffa8a7"/>
        <path id="Path_572" data-name="Path 572" d="M438.624,364.915A.586.586,0,0,0,438.1,364l-3.69.73h0a3.207,3.207,0,0,1,1.521,3.012v.329Z" transform="translate(-310.418 -363.987)" fill="#263238"/>
        <path id="Path_573" data-name="Path 573" d="M335.874,432.514l1.542-.884,1.871-1.028L428.7,379.32a8.573,8.573,0,0,0-.524-6.27c-1.336-3-3.937-5.366-6.1-5.51l-89.428,51.211-3.567,2.056C331.526,419.624,338.249,431.281,335.874,432.514Z" transform="translate(-313.358 -363.889)" fill="#455a64"/>
        <path id="Path_574" data-name="Path 574" d="M341.6,427.854l3.454-1.984c1.028-.545.432-3.084-.761-5.633-1.573-3.433-4.677-6.764-6.024-6.054l-2.549,1.46-.894.545c1.347-.72,4.451,2.611,6.024,6.054,1.141,2.477,1.717,4.893.853,5.54h0A.154.154,0,0,1,341.6,427.854Z" transform="translate(-313.198 -362.589)" fill="#ebebeb"/>
        <path id="Path_575" data-name="Path 575" d="M342.538,427.32c2.364-1.254-4.42-12.931-6.784-11.677l-3.454,1.984c2.364-1.254,9.148,10.423,6.774,11.677Z" transform="translate(-313.268 -362.549)" fill="#f069a7"/>
        <path id="Path_576" data-name="Path 576" d="M335.873,431.124l3.413-1.953c2.333-1.213-4.112-12.541-6.579-11.79l-.144.051-3.423,1.994C331.525,418.234,338.247,429.891,335.873,431.124Z" transform="translate(-313.357 -362.498)" fill="#ebebeb"/>
        <path id="Path_577" data-name="Path 577" d="M441.521,364.278l-.606-.278L427.2,371.5l-93.3,53.451c-.134-.206-.247-.226-.329-.082,2.056,3.145,3.536,7.1,2.21,7.792l1.542-.884,1.871-1.028,89.387-51.334h0L441.4,364.9a.586.586,0,0,0,.123-.627Z" transform="translate(-313.233 -363.987)" opacity="0.15"/>
        <path id="Path_578" data-name="Path 578" d="M321.818,439.355,336.3,431.07c1.028-.524.452-3-.72-5.582-1.562-3.444-4.656-6.8-6.013-6.116h0L315.034,427.7c-2.888,1.665-.236,7.935,2.981,10.731C319.207,439.489,320.543,439.951,321.818,439.355Z" transform="translate(-313.785 -362.444)" fill="#f28f8f"/>
        <path id="Path_579" data-name="Path 579" d="M322.682,434.638c-.833-3.258-3.474-6.466-5.91-7.144a2.333,2.333,0,0,0-2.169.288c-2.179,2.056.36,7.771,3.4,10.423a3.464,3.464,0,0,0,3.731.956C322.825,438.523,323.257,436.858,322.682,434.638Z" transform="translate(-313.785 -362.219)" opacity="0.1"/>
      </g>
    </g>
    <g id="freepik--Character--inject-2" transform="translate(60.634 89.884)">
      <g id="freepik--Laptop--inject-2" transform="translate(0)">
        <path id="Path_580" data-name="Path 580" d="M72.27,326.011c0,2.652,1.994,4.358,4.451,5.777L177.3,389.865a9.816,9.816,0,0,0,8.891,0L348.5,296.181c2.457-1.419,4.451-3.248,4.451-5.9s-1.994-4.307-4.441-5.725L247.868,226.489a9.8,9.8,0,0,0-8.881,0L76.721,320.173C74.264,321.612,72.27,323.349,72.27,326.011Z" transform="translate(-58.952 -85.432)" fill="#37474f"/>
        <path id="Path_581" data-name="Path 581" d="M76.65,325.3l100.581,58.067a9.816,9.816,0,0,0,8.891,0L348.43,289.685c2.446-1.408,2.446-3.711,0-5.14L247.8,226.489a9.8,9.8,0,0,0-8.881,0L76.65,320.173C74.193,321.612,74.193,323.884,76.65,325.3Z" transform="translate(-58.881 -85.432)" fill="#455a64"/>
        <path id="Path_582" data-name="Path 582" d="M181.753,381.87v6.476a9.077,9.077,0,0,1-4.451-1.028L76.721,329.21c-2.457-1.419-4.451-3.084-4.451-5.777,0-2.5,1.789-4.235,4.112-5.643-1.912,1.347-1.943,3.608.349,4.934L177.312,380.8A9.077,9.077,0,0,0,181.753,381.87Z" transform="translate(-58.952 -82.854)" fill="#263238"/>
        <path id="Path_583" data-name="Path 583" d="M70.709,324.663c-1.953-.9-2.477-2.446-2.673-5.14L59.32,191.959a8.84,8.84,0,0,1,4.112-7.5L225.7,90.731c2.446-1.419,4.245-2.189,6.517-.637s2.313,2.405,2.5,5.14l8.717,127.574a8.83,8.83,0,0,1-4.112,7.5L77.062,323.984C74.605,325.413,73.217,325.814,70.709,324.663Z" transform="translate(-59.313 -89.233)" fill="#37474f"/>
        <path id="Path_584" data-name="Path 584" d="M234.735,95.223c-.185-2.724-2.323-3.783-4.78-2.374L67.638,186.542a8.4,8.4,0,0,0-3.084,3.258l-4.194-2.128h0a8.583,8.583,0,0,1,3.084-3.258L225.659,90.731c2.457-1.419,4.266-2.2,6.527-.637S234.5,92.5,234.735,95.223Z" transform="translate(-59.284 -89.233)" fill="#455a64"/>
        <path id="Path_585" data-name="Path 585" d="M76.733,321.5c-2.241,1.316-3.649,1.48-6.024.483-1.819-.761-2.477-2.436-2.662-5.14L59.32,189.245a7.884,7.884,0,0,1,1.028-4.235l4.235,2.107h0a8.038,8.038,0,0,0-1.028,4.235l8.727,127.584C72.447,321.465,74.636,322.74,76.733,321.5Z" transform="translate(-59.313 -86.56)" fill="#263238"/>
        <path id="Path_586" data-name="Path 586" d="M70.247,191.1l156.16-90.086c1.47-.853,2.755-.216,2.868,1.419l8.131,119.012a5.3,5.3,0,0,1-2.457,4.5L78.789,316.029c-1.47.853-2.755.216-2.868-1.419L67.78,195.578a5.335,5.335,0,0,1,2.467-4.482Z" transform="translate(-59.077 -88.915)"/>
        <path id="Path_587" data-name="Path 587" d="M70.247,191.058a5.335,5.335,0,0,0-2.467,4.5l8.007,117.028,154.372-89.1a5.3,5.3,0,0,0,2.457-4.5l-8-116.987Z" transform="translate(-59.077 -88.877)" fill="#b4e1e8"/>
        <path id="Path_588" data-name="Path 588" d="M70.247,191.058a5.335,5.335,0,0,0-2.467,4.5l8.007,117.028,154.372-89.1a5.3,5.3,0,0,0,2.457-4.5l-8-116.987Z" transform="translate(-59.077 -88.877)" fill="#fff" opacity="0.8"/>
        <path id="Path_589" data-name="Path 589" d="M90.023,320.681,239.07,234.594a4.636,4.636,0,0,1,4.194,0l5.438,3.084a1.285,1.285,0,0,1,0,2.426L99.572,326.139a4.636,4.636,0,0,1-4.194,0l-5.407-3.084a1.275,1.275,0,0,1,.051-2.374Z" transform="translate(-58.479 -85.19)" fill="#263238"/>
        <path id="Path_590" data-name="Path 590" d="M104.217,329.082l149.119-86.067a4.256,4.256,0,0,1,3.824-.206l38.814,22.408c.956.555.8,1.542-.36,2.21L146.669,353.4a4.287,4.287,0,0,1-3.824.216l-38.978-22.306C102.9,330.737,103.065,329.75,104.217,329.082Z" transform="translate(-58.087 -84.957)" fill="#263238"/>
        <path id="Path_591" data-name="Path 591" d="M233.332,279.069,238,276.375c.2-.123.216-.3,0-.4l-4.471-2.57a.75.75,0,0,0-.678,0l-4.667,2.693c-.2.113-.216.288,0,.391l4.471,2.58A.75.75,0,0,0,233.332,279.069Zm-6.825-9.333-4.667,2.7c-.2.113-.216.288,0,.391l4.4,2.58a.73.73,0,0,0,.678,0l4.667-2.693c.2-.113.216-.288,0-.391l-4.471-2.58a.75.75,0,0,0-.606-.01Zm-15.079,8.717-7.9,4.564c-.2.123-.216.3,0,.4l4.471,2.57a.75.75,0,0,0,.678,0l7.9-4.564c.2-.113.216-.288,0-.391l-4.461-2.58a.792.792,0,0,0-.689,0Zm8.223-4.77-4.677,2.693c-.2.113-.216.288,0,.391l4.471,2.58a.75.75,0,0,0,.678,0l4.667-2.7c.2-.113.216-.288,0-.391l-4.471-2.58a.771.771,0,0,0-.627.01Zm-18.276,10.567-4.677,2.7c-.2.113-.216.288,0,.391l4.461,2.58a.73.73,0,0,0,.678,0l4.667-2.693c.206-.113.216-.288,0-.391l-4.461-2.58A.75.75,0,0,0,201.374,284.249Zm-6.825,3.906-4.667,2.693c-.206.113-.216.288,0,.391l4.461,2.58a.75.75,0,0,0,.678,0l4.667-2.7c.206-.113.216-.288,0-.391l-4.461-2.57a.75.75,0,0,0-.678,0Zm17.475,10.516,4.667-2.693c.206-.113.216-.288,0-.391l-4.461-2.58a.75.75,0,0,0-.678,0l-4.677,2.7c-.2.113-.216.288,0,.391l4.461,2.58a.73.73,0,0,0,.72.031Zm-6.825,3.947,4.667-2.7c.206-.113.216-.288,0-.391l-4.461-2.57a.75.75,0,0,0-.678,0l-4.667,2.693c-.206.113-.216.288,0,.391l4.461,2.58a.75.75,0,0,0,.709.041Zm-6.825,3.937,4.677-2.693c.2-.113.216-.288,0-.391l-4.461-2.58a.75.75,0,0,0-.678,0l-4.564,2.755c-.206.113-.216.288,0,.391l4.461,2.58a.75.75,0,0,0,.6-.021Zm-6.815,3.937,4.667-2.693c.2-.113.216-.288,0-.391l-4.471-2.58a.75.75,0,0,0-.678,0l-4.667,2.7c-.2.113-.216.288,0,.391l4.471,2.57a.75.75,0,0,0,.709.041Zm34.949-27.527,4.667-2.693c.2-.113.216-.288,0-.391L226.7,277.3a.75.75,0,0,0-.678,0l-4.667,2.693c-.2.113-.216.3,0,.391l4.471,2.631a.75.75,0,0,0,.678,0Zm-7.627,11.77,10.444-5.972c.2-.113.216-.288,0-.391l-10.844-6.26a.75.75,0,0,0-.678,0l-5.386,3.084c-.206.113-.216.288,0,.391l5.736,3.31c.185.1.164.278,0,.391l-4.317,2.488c-.2.123-.216.3,0,.4l4.471,2.57a.75.75,0,0,0,.576.031Zm-31.156-2.642-4.656,2.734c-.206.113-.216.288,0,.391l4.461,2.58a.75.75,0,0,0,.678,0l4.677-2.693c.2-.113.216-.288,0-.391l-4.461-2.58a.75.75,0,0,0-.7,0Zm-6.825,3.937-4.667,2.693c-.2.123-.216.3,0,.4l4.471,2.57a.75.75,0,0,0,.678,0L186.048,299c.2-.113.216-.288,0-.391l-4.471-2.58a.75.75,0,0,0-.678.041Zm-37.755,42.062a.75.75,0,0,0,.678,0l4.667-2.693c.2-.113.216-.288,0-.391l-4.471-2.58a.75.75,0,0,0-.678,0l-4.667,2.693c-.2.123-.216.3,0,.391Zm-16.837-10.546-4.667,2.755c-.2.113-.216.288,0,.391l4.471,2.58a.792.792,0,0,0,.678,0l4.667-2.693c.2-.113.216-.288,0-.391l-4.471-2.58a.75.75,0,0,0-.678-.021Zm8.655,7.9a.75.75,0,0,0,.678,0l4.667-2.7c.206-.113.216-.288,0-.391l-4.461-2.58a.73.73,0,0,0-.678,0l-4.667,2.693c-.206.113-.216.288,0,.391Zm18.831,4.235,4.667-2.693c.2-.123.216-.3,0-.4l-4.471-2.57a.75.75,0,0,0-.678,0l-4.667,2.693c-.2.113-.216.288,0,.391l4.471,2.58a.75.75,0,0,0,.678.041Zm-7.5,3.957a.75.75,0,0,0,.678,0l4.667-2.693c.2-.113.216-.288,0-.391l-4.461-2.58a.75.75,0,0,0-.678,0l-4.677,2.693c-.2.113-.216.288,0,.391Zm-13.157-20.034-4.667,2.693c-.2.123-.216.3,0,.391l4.471,2.58a.75.75,0,0,0,.678,0l4.667-2.693c.2-.113.216-.288,0-.391l-4.471-2.58a.75.75,0,0,0-.678.041Zm34.116-19.695-4.667,2.745c-.2.113-.216.288,0,.391l4.471,2.58a.75.75,0,0,0,.678,0l4.667-2.693c.2-.123.216-.3,0-.4l-4.471-2.57a.75.75,0,0,0-.678-.01Zm-27.291,15.8-4.667,2.693c-.2.113-.216.288,0,.391l4.471,2.58a.75.75,0,0,0,.678,0l4.667-2.693c.2-.123.216-.3,0-.4l-4.471-2.57a.751.751,0,0,0-.678,0Zm34.116-19.695-4.667,2.693c-.2.113-.216.288,0,.391l4.471,2.58a.73.73,0,0,0,.678,0l4.667-2.693c.2-.113.216-.288,0-.391l-4.471-2.58a.73.73,0,0,0-.678,0Zm-13.62,7.874-4.677,2.693c-.2.113-.216.288,0,.391l4.461,2.58a.75.75,0,0,0,.678,0l4.667-2.693c.206-.113.216-.288,0-.391l-4.461-2.58a.75.75,0,0,0-.668,0Zm-6.846,3.906-4.667,2.7c-.206.113-.216.288,0,.391l4.461,2.58a.791.791,0,0,0,.678,0l4.667-2.693c.206-.113.216-.288,0-.391l-4.461-2.59a.75.75,0,0,0-.678,0Zm-6.825,3.947-4.667,2.693c-.206.113-.216.288,0,.391l4.461,2.58a.75.75,0,0,0,.678,0l4.677-2.7c.2-.113.216-.288,0-.391l-4.461-2.58a.73.73,0,0,0-.689.041Zm31.146,2.673,4.667-2.693c.2-.123.216-.3,0-.4l-4.471-2.57a.75.75,0,0,0-.678,0l-4.656,2.714c-.2.113-.216.288,0,.391l4.471,2.58a.75.75,0,0,0,.668-.021Zm63.659-57.388-4.667,2.693c-.206.123-.216.3,0,.4l4.461,2.57a.75.75,0,0,0,.678,0L246.726,264c.206-.113.216-.288,0-.391l-4.461-2.58a.75.75,0,0,0-.668,0Zm-8.223,4.77-4.667,2.693c-.2.123-.216.3,0,.391l4.471,2.58a.75.75,0,0,0,.678,0l4.667-2.693c.2-.113.216-.288,0-.391l-4.471-2.58a.751.751,0,0,0-.709,0Zm15.09-8.706-4.739,2.693c-.2.113-.216.288,0,.391l4.461,2.58a.75.75,0,0,0,.678,0l4.667-2.693c.206-.113.216-.3,0-.391l-4.461-2.58a.751.751,0,0,0-.637,0Zm-37.724,35.042,4.677-2.7c.2-.113.216-.288,0-.391l-4.471-2.58a.791.791,0,0,0-.678,0l-4.656,2.724c-.2.113-.216.288,0,.391l4.461,2.58a.751.751,0,0,0,.637-.021Zm45.228-39.061a.791.791,0,0,0-.678,0l-4.667,2.693c-.2.113-.216.288,0,.391l4.471,2.58a.75.75,0,0,0,.678,0l4.667-2.7c.2-.113.216-.288,0-.391Zm-71.193,61.4,4.667-2.693c.2-.113.216-.288,0-.391l-4.471-2.58a.73.73,0,0,0-.678,0l-4.667,2.693c-.2.113-.216.288,0,.391l4.471,2.58a.73.73,0,0,0,.678,0Zm83.672-48.312,4.677-2.673c.2-.113.216-.288,0-.391l-4.471-2.58a.73.73,0,0,0-.678,0l-4.667,2.693c-.2.113-.216.288,0,.391l4.461,2.58A.719.719,0,0,0,268.435,266.158Zm-13.2.257,4.667-2.693c.2-.113.216-.288,0-.391l-4.471-2.58a.75.75,0,0,0-.678,0l-4.626,2.734c-.2.113-.216.288,0,.391l4.471,2.58A.792.792,0,0,0,255.237,266.415Zm7.062-9.6a.75.75,0,0,0-.678,0l-4.667,2.693c-.2.113-.216.3,0,.391l4.471,2.58a.75.75,0,0,0,.678,0l4.667-2.693c.2-.113.216-.288,0-.391Zm1.439-.833,10.814,6.26a.75.75,0,0,0,.678,0l4.667-2.693c.206-.113.216-.288,0-.391l-10.844-6.26a.75.75,0,0,0-.678,0l-4.667,2.693a.228.228,0,0,0,.031.391Zm-15.758,8.737-4.677,2.693c-.2.113-.216.288,0,.391l4.471,2.58a.75.75,0,0,0,.678,0l4.667-2.7c.2-.113.216-.288,0-.391l-4.461-2.58a.72.72,0,0,0-.678.01Zm-51.4,29.645-4.667,2.693c-.2.123-.216.3,0,.4l4.471,2.57a.75.75,0,0,0,.678,0l4.667-2.693c.2-.113.216-.288,0-.391l-4.441-2.621a.75.75,0,0,0-.678,0Zm64.327-24.238a.75.75,0,0,0,.678,0l4.667-2.7c.2-.113.216-.288,0-.391l-4.471-2.58a.791.791,0,0,0-.678,0l-4.667,2.693c-.2.113-.216.288,0,.391Zm-57.5,20.3-4.667,2.693c-.2.113-.216.288,0,.391l4.471,2.58a.75.75,0,0,0,.678,0l4.667-2.693c.2-.113.216-.3,0-.391l-4.471-2.58a.75.75,0,0,0-.648,0ZM149.958,334.2a.75.75,0,0,0,.678,0L155.3,331.5c.2-.123.216-.3,0-.4l-4.471-2.57a.75.75,0,0,0-.678,0l-4.667,2.693c-.2.113-.216.288,0,.391Zm-7.935-8.316-4.677,2.7c-.2.113-.216.288,0,.391l4.461,2.58a.791.791,0,0,0,.678,0l4.667-2.693c.206-.113.216-.288,0-.391l-4.461-2.58a.75.75,0,0,0-.658-.01Zm15.419,4.358,4.677-2.7c.2-.113.216-.288,0-.391l-4.461-2.58a.73.73,0,0,0-.678,0l-4.667,2.693c-.206.113-.216.288,0,.391l4.461,2.58a.75.75,0,0,0,.689.01Zm6.825-3.947,4.667-2.693c.206-.113.216-.288,0-.391l-4.369-2.58a.75.75,0,0,0-.678,0l-4.667,2.7c-.206.113-.216.288,0,.391l4.461,2.58a.791.791,0,0,0,.606-.01Zm6.825-3.937,4.667-2.693c.206-.113.216-.288,0-.391l-4.461-2.58a.75.75,0,0,0-.678,0l-4.677,2.693c-.2.113-.216.3,0,.391l4.461,2.58a.75.75,0,0,0,.709,0Zm-22.265-.411-4.667,2.693c-.2.113-.216.288,0,.391l4.471,2.58a.75.75,0,0,0,.678,0l4.667-2.693c.2-.113.216-.288,0-.391l-4.471-2.58a.75.75,0,0,0-.658,0Zm6.825-3.937-4.667,2.693c-.2.113-.216.288,0,.391l4.471,2.58a.75.75,0,0,0,.678,0l4.667-2.7c.2-.113.216-.288,0-.391l-4.461-2.611a.75.75,0,0,0-.668,0Zm27.3-15.758-4.677,2.693c-.2.113-.216.288,0,.391l4.461,2.58a.75.75,0,0,0,.678,0l4.667-2.7c.206-.113.216-.288,0-.391l-4.461-2.58a.791.791,0,0,0-.648.01Zm-6.825,3.937-4.667,2.693c-.206.113-.216.288,0,.391l4.461,2.58a.75.75,0,0,0,.678,0l4.667-2.693c.206-.113.216-.288,0-.391l-4.461-2.58a.75.75,0,0,0-.658,0Zm13.64-7.884-4.646,2.7c-.2.113-.216.288,0,.391l4.471,2.58a.73.73,0,0,0,.678,0l4.667-2.693c.2-.113.216-.288,0-.391l-4.471-2.58a.75.75,0,0,0-.678-.01Zm-27.26,15.768-4.667,2.693c-.2.113-.216.288,0,.391l4.471,2.58a.73.73,0,0,0,.678,0l4.667-2.693c.2-.113.216-.288,0-.391l-4.471-2.58a.73.73,0,0,0-.678,0Zm6.825-3.947-4.677,2.7c-.206.123-.216.3,0,.4l4.461,2.57a.75.75,0,0,0,.678,0l4.677-2.693c.2-.113.216-.288,0-.391L170,310.132a.75.75,0,0,0-.678-.01Zm-8.706,25.7,4.667-2.693c.2-.113.216-.288,0-.391l-4.471-2.58a.73.73,0,0,0-.678,0l-4.667,2.693c-.2.113-.216.288,0,.391l4.471,2.58a.73.73,0,0,0,.668-.041Zm-35.977-1.7-4.461-2.58a.791.791,0,0,0-.678,0l-4.677,2.693c-.2.113-.216.288,0,.391l4.461,2.58a.75.75,0,0,0,.678,0l4.667-2.7a.242.242,0,0,0-.01-.421Zm8.891,2.231-4.461-2.57a.75.75,0,0,0-.678,0l-7.2,4.112c-.2.113-.216.288,0,.391l4.471,2.58a.75.75,0,0,0,.678,0l7.2-4.112c.175-.164.175-.288-.031-.442Zm-15.552-7.319-4.471-2.58a.75.75,0,0,0-.678,0l-5.746,3.32c-.2.113-.216.288,0,.391l4.471,2.58a.75.75,0,0,0,.678,0l5.746-3.32c.134-.154.154-.329-.021-.432Zm4.4-2.549a.75.75,0,0,0,.678,0l4.667-2.693c.206-.113.216-.288,0-.391l-4.461-2.58a.75.75,0,0,0-.678,0l-4.667,2.693c-.206.123-.226.3,0,.391Zm19.335,12.52-4.471-2.58a.75.75,0,0,0-.678,0l-9.015,5.181c-.2.113-.216.288,0,.391l4.471,2.58a.73.73,0,0,0,.678,0l8.974-5.14c.175-.2.2-.37.021-.473Zm3.145,5.551-4.461-2.58a.75.75,0,0,0-.678,0l-5.746,3.32c-.206.113-.216.288,0,.391l4.461,2.58a.75.75,0,0,0,.678,0l5.746-3.32c.164-.154.164-.329-.021-.432ZM173.127,297.2a.75.75,0,0,0,.678,0l4.667-2.7c.2-.113.216-.288,0-.391L174,291.527a.73.73,0,0,0-.678,0l-4.646,2.662c-.2.113-.216.288,0,.391Zm-13.7,7.833a.75.75,0,0,0,.678,0l4.667-2.693c.206-.113.216-.288,0-.391l-4.461-2.58a.75.75,0,0,0-.678,0l-4.667,2.693c-.206.113-.226.288,0,.391Zm-30.262,17.475a.75.75,0,0,0,.678,0l4.667-2.693c.2-.123.216-.3,0-.391l-4.461-2.58a.751.751,0,0,0-.678,0l-4.677,2.693c-.2.113-.216.288,0,.391ZM166.251,301.1a.75.75,0,0,0,.678,0L171.6,298.4c.2-.123.216-.3,0-.4l-4.461-2.57a.75.75,0,0,0-.678,0l-4.677,2.693c-.2.113-.216.288,0,.391ZM152.6,308.981a.791.791,0,0,0,.678,0l4.667-2.693c.206-.113.226-.288,0-.391l-4.461-2.58a.75.75,0,0,0-.678,0l-4.667,2.7c-.206.113-.216.288,0,.391Zm-4.43,35.812a.75.75,0,0,0-.678,0l-7.2,4.112c-.2.123-.216.3,0,.4l4.461,2.57a.75.75,0,0,0,.678,0l7.2-4.112c.2-.113.216-.288,0-.391Zm-5.355-30.159a.792.792,0,0,0,.678,0l4.667-2.693c.2-.113.216-.288,0-.391l-4.471-2.58a.75.75,0,0,0-.678,0l-4.667,2.7c-.2.113-.216.288,0,.391Zm-6.825,3.937a.75.75,0,0,0,.678,0l4.667-2.7c.2-.113.216-.288,0-.391l-4.471-2.58a.761.761,0,0,0-.678,0l-4.667,2.693c-.2.113-.216.288,0,.391Zm138.6-46.77a.73.73,0,0,0-.678,0l-11.492,6.63c-.206.113-.216.288,0,.391l4.461,2.58a.75.75,0,0,0,.678,0l11.482-6.61c.206-.113.216-.288,0-.391Zm-15.09,8.717a.75.75,0,0,0-.678,0l-4.667,2.693c-.2.113-.216.288,0,.391l4.471,2.58a.75.75,0,0,0,.678,0l4.667-2.7c.2-.113.216-.288,0-.391Zm-92.1,51.324,4.677-2.693c.2-.113.216-.288,0-.391l-4.43-2.57a.75.75,0,0,0-.678,0l-4.667,2.7c-.2.113-.216.288,0,.391l4.471,2.57a.73.73,0,0,0,.658-.01Zm78.461-43.45a.75.75,0,0,0-.678,0l-4.677,2.7c-.2.113-.216.288,0,.391l4.461,2.58a.791.791,0,0,0,.678,0l4.667-2.693c.206-.113.216-.288,0-.391Zm35.555-20.558a.75.75,0,0,0-.678,0l-4.677,2.7c-.2.113-.216.288,0,.391l4.471,2.57a.75.75,0,0,0,.678,0l4.667-2.693c.2-.113.216-.288,0-.391Zm11.307-1.357-10.844-6.27a.719.719,0,0,0-.678,0l-4.677,2.693c-.2.113-.216.288,0,.391l10.824,6.363a.75.75,0,0,0,.678,0l4.667-2.693c.2-.175.216-.391.041-.452Zm-72.344,36.6a.73.73,0,0,0-.678,0l-5.746,3.31c-.2.113-.216.288,0,.391l4.471,2.58a.75.75,0,0,0,.678,0l5.746-3.32c.2-.113.216-.288,0-.391Zm17.238-9.95a.75.75,0,0,0-.678,0l-7.2,4.112c-.2.113-.216.288,0,.391l4.471,2.58a.73.73,0,0,0,.678,0l7.2-4.112c.2-.113.216-.288,0-.391Zm-33.037,19.078a.75.75,0,0,0-.678,0l-38.423,22.2c-.2.123-.216.3,0,.4l4.471,2.57a.75.75,0,0,0,.678,0L209.053,315.2c.206-.113.216-.288,0-.391ZM164,335.635a.75.75,0,0,0-.678,0l-5.746,3.32c-.206.113-.226.288,0,.391l4.461,2.58a.75.75,0,0,0,.678,0l5.746-3.32c.2-.113.216-.288,0-.391Zm48.487-27.949a.75.75,0,0,0-.678,0l-5.746,3.32c-.2.113-.216.288,0,.391l4.471,2.58a.75.75,0,0,0,.678,0l5.746-3.32c.2-.113.216-.288,0-.391ZM156.105,340.24a.751.751,0,0,0-.678,0l-5.746,3.32c-.2.113-.216.288,0,.391l4.471,2.58a.75.75,0,0,0,.678,0l5.746-3.32c.2-.113.216-.288,0-.391Zm72.19-41.692a.791.791,0,0,0-.678,0l-5.746,3.31c-.206.123-.216.3,0,.4l4.461,2.57a.75.75,0,0,0,.678,0l5.7-3.31c.206-.113.216-.288,0-.391Zm24.413-14.093a.75.75,0,0,0-.678,0l-4.667,2.673c-.2.113-.216.288,0,.391l4.471,2.58a.75.75,0,0,0,.678,0l4.667-2.693c.2-.113.216-.288,0-.391Zm15.285-10.69,4.677-2.693c.2-.113.216-.288,0-.391l-4.461-2.58a.75.75,0,0,0-.678,0l-4.667,2.693c-.206.123-.216.3,0,.391l4.492,2.58a.75.75,0,0,0,.637,0Zm-27.846,1.347,4.677-2.7c.2-.113.216-.288,0-.391l-4.471-2.58a.73.73,0,0,0-.678,0l-4.667,2.693c-.206.113-.216.288,0,.391l4.461,2.58a.75.75,0,0,0,.678.031Zm-18.122,25.215,13.651-7.874c.2-.123.216-.3,0-.4l-4.471-2.57a.75.75,0,0,0-.678,0l-13.6,7.925c-.206.123-.216.3,0,.391l4.461,2.58a.75.75,0,0,0,.637-.051ZM260.5,277.712a.73.73,0,0,0,.668,0l4.677-2.693c.2-.113.216-.288,0-.391l-4.471-2.58a.75.75,0,0,0-.678,0l-4.646,2.745c-.2.113-.216.288,0,.391Zm-5.7-3.711,4.667-2.693c.2-.113.216-.288,0-.391l-4.441-2.539a.75.75,0,0,0-.678,0l-4.667,2.693c-.2.113-.216.288,0,.391l4.471,2.58a.75.75,0,0,0,.648,0Zm-39.6,30.221,4.677-2.693c.2-.113.216-.288,0-.391l-4.461-2.58a.75.75,0,0,0-.678,0l-4.667,2.7c-.206.113-.216.288,0,.391l4.461,2.58a.72.72,0,0,0,.668.031Zm30.21-17.8a.75.75,0,0,0,.678,0l4.667-2.7c.206-.113.216-.288,0-.391l-4.461-2.58a.719.719,0,0,0-.678,0l-4.677,2.693c-.2.113-.216.288,0,.391Zm-64.327,37.509,4.667-2.7c.206-.113.216-.288,0-.391l-4.461-2.58a.791.791,0,0,0-.678,0l-4.626,2.8c-.206.113-.216.288,0,.391l4.461,2.58a.75.75,0,0,0,.637-.051Zm6.825-3.947,4.667-2.693c.206-.113.216-.288,0-.391l-4.369-2.539a.75.75,0,0,0-.678,0l-4.677,2.7c-.2.113-.216.288,0,.391l4.471,2.58a.73.73,0,0,0,.586-.01Zm-13.651,7.884,4.677-2.693c.2-.113.216-.288,0-.391l-4.461-2.58a.75.75,0,0,0-.678,0l-4.667,2.693c-.206.113-.216.288,0,.391l4.461,2.58a.75.75,0,0,0,.668.041Zm27.312-15.717,4.667-2.693c.2-.113.216-.3,0-.391l-4.471-2.58a.75.75,0,0,0-.678,0L196.43,309.2c-.2.113-.216.288,0,.391l4.471,2.58a.75.75,0,0,0,.668-.021Zm-6.825,3.937,4.667-2.693c.2-.113.216-.288,0-.391l-4.471-2.58a.75.75,0,0,0-.678,0l-4.667,2.693c-.2.123-.216.3,0,.4l4.471,2.57a.75.75,0,0,0,.668,0Zm13.64-7.874,4.677-2.7c.2-.113.216-.288,0-.391l-4.441-2.57a.791.791,0,0,0-.678,0l-4.667,2.693c-.2.113-.216.288,0,.391l4.471,2.58a.73.73,0,0,0,.627,0ZM245.626,253.4a.75.75,0,0,0,.678,0l4.667-2.7c.206-.113.216-.288,0-.391l-1.182-.689a.791.791,0,0,0-.678,0l-4.677,2.693c-.2.113-.216.288,0,.391ZM211.7,274.875a.75.75,0,0,0,.678,0l4.667-2.7c.2-.113.216-.288,0-.391l-4.471-2.57a.751.751,0,0,0-.678,0l-4.667,2.693c-.2.113-.216.288,0,.391Zm13.64-7.884a.75.75,0,0,0,.678,0l4.667-2.693c.206-.113.216-.288,0-.391l-4.451-2.6a.75.75,0,0,0-.678,0L220.894,264c-.206.123-.216.3,0,.4Zm-21.977,12.695a.75.75,0,0,0,.678,0l4.667-2.7c.2-.113.216-.288,0-.391l-4.461-2.58a.791.791,0,0,0-.678,0L198.9,276.7c-.2.113-.216.288,0,.391Zm15.151-8.748a.719.719,0,0,0,.678,0l4.677-2.693c.2-.113.216-.288,0-.391l-4.461-2.58a.75.75,0,0,0-.678,0l-4.667,2.7c-.206.113-.216.288,0,.391Zm-28.782,16.621a.75.75,0,0,0,.678,0l4.667-2.693c.206-.113.226-.288,0-.391l-4.461-2.58a.75.75,0,0,0-.678,0l-4.667,2.693c-.206.123-.216.3,0,.4Zm6.825-3.937a.75.75,0,0,0,.678,0l4.667-2.693c.206-.113.216-.288,0-.391l-4.451-2.6a.75.75,0,0,0-.678,0l-4.667,2.693c-.206.113-.226.288,0,.391Zm35.422-22.347a.75.75,0,0,0,.678,0l4.677-2.693c.2-.113.216-.288,0-.391l-1.192-.689a.75.75,0,0,0-.678,0l-4.667,2.7c-.206.113-.216.288,0,.391Zm20.476-11.811a.761.761,0,0,0,.678,0l4.667-2.693c.2-.113.216-.288,0-.391l-1.192-.689a.73.73,0,0,0-.678,0l-4.667,2.693c-.2.113-.216.288,0,.391Zm9.385,5.417a.73.73,0,0,0,.678,0l4.667-2.693c.2-.113.216-.288,0-.391l-4.471-2.58a.75.75,0,0,0-.678,0l-4.667,2.7c-.2.113-.216.288,0,.391Zm12.993,14.966,4.667-2.693c.206-.123.216-.3,0-.391l-4.461-2.58a.75.75,0,0,0-.678,0l-4.667,2.693c-.206.113-.216.288,0,.391l4.461,2.58a.75.75,0,0,0,.658,0Zm-35.977-12.51a.75.75,0,0,0,.678,0l4.667-2.693c.206-.113.216-.3,0-.391l-1.182-.689a.75.75,0,0,0-.678,0l-4.708,2.724c-.2.113-.216.288,0,.391Zm-55.9,34.168a.719.719,0,0,0,.678,0l4.677-2.693c.2-.113.216-.288,0-.391l-4.471-2.58a.73.73,0,0,0-.678,0l-4.667,2.693c-.2.113-.216.288,0,.391Z" transform="translate(-57.984 -84.869)" fill="#455a64"/>
        <path id="Path_592" data-name="Path 592" d="M199.85,328.8l1.018.586,26.962,15.573,47.952-27.692,1-.565L248.8,300.55Z" transform="translate(-55.391 -83.335)" fill="#263238"/>
        <path id="Path_593" data-name="Path 593" d="M275.121,317.573,248.755,302.36,201.43,329.692l26.356,15.213Z" transform="translate(-55.347 -83.285)" fill="#37474f"/>
      </g>
      <g id="freepik--video-bar--inject-2" transform="translate(16.998 115.927)">
        <g id="freepik--Window--inject-2">
          <path id="Path_621" data-name="Path 621" d="M234.541,205.837a1.2,1.2,0,0,0-.051-.278v-.051a1.714,1.714,0,0,0-.062-.267,1.6,1.6,0,0,0-.175-.38.5.5,0,0,0-.1-.154.452.452,0,0,0-.082-.1.874.874,0,0,0-.2-.2h0a.915.915,0,0,0-.257-.144,2.148,2.148,0,0,0-1.994.247L82.441,290.341c-1.634.946-2.971,2.385-2.971,6.548v4.471a2.056,2.056,0,0,0,3.084,1.768L231.6,217.308a6.579,6.579,0,0,0,2.971-5.14v-5.931C234.561,206.052,234.551,205.95,234.541,205.837Z" transform="translate(-75.749 -201.954)" fill="#455a64" opacity="0.8"/>
          <path id="Path_622" data-name="Path 622" d="M80.6,300.763l-.113-.051L77.4,298.893A3.166,3.166,0,0,1,75.85,296.6v-5.633a6.168,6.168,0,0,1,1.028-3.217h0l3.659,2.107a8.522,8.522,0,0,0-.966,4.328v4.79a2.19,2.19,0,0,0,.144.73,2.056,2.056,0,0,0,.884,1.059Z" transform="translate(-75.85 -199.619)" fill="#263238" opacity="0.9"/>
          <path id="Path_623" data-name="Path 623" d="M233.659,204.3a2.128,2.128,0,0,0-1.994.257L82.515,290.4a6.33,6.33,0,0,0-.822.586,4.272,4.272,0,0,0-.493.473,4.172,4.172,0,0,0-.658.863l-3.721-2.138a6.4,6.4,0,0,1,.627-.843l.236-.257.247-.236.257-.216a4.532,4.532,0,0,1,.535-.37l149.16-85.851a2.056,2.056,0,0,1,2.148-.175C230.575,202.565,233.021,203.963,233.659,204.3Z" transform="translate(-75.823 -202.013)" fill="#455a64" opacity="0.6"/>
          <path id="Path_624" data-name="Path 624" d="M80.47,300.41Z" transform="translate(-75.721 -199.266)" fill="#263238" opacity="0.9"/>
        </g>
        <path id="Path_625" data-name="Path 625" d="M90.38,291.494v-3.649c0-.267.164-.545.329-.545h3.217c.206,0,.206.463,0,.709l-3.217,3.67C90.544,291.833,90.38,291.751,90.38,291.494Z" transform="translate(-75.444 -199.632)" fill="#fff"/>
        <path id="Path_626" data-name="Path 626" d="M97.66,287.284v-3.649c0-.257.164-.535.329-.535h3.217c.206,0,.206.463,0,.7l-3.2,3.649C97.824,287.633,97.66,287.551,97.66,287.284Z" transform="translate(-75.241 -199.749)" fill="#fff"/>
        <path id="Path_627" data-name="Path 627" d="M101.507,285.44h0c-.134.082-.247,0-.247-.185v-3.742a.606.606,0,0,1,.247-.473h0c.134-.072.247,0,.247.185v3.752a.586.586,0,0,1-.247.463Z" transform="translate(-75.141 -199.807)" fill="#fff"/>
        <path id="Path_628" data-name="Path 628" d="M86.8,293.6v-3.6c0-.257-.164-.339-.329-.164l-3.207,3.68c-.216.247-.216.709,0,.709h3.207A.824.824,0,0,0,86.8,293.6Z" transform="translate(-75.648 -199.564)" fill="#fff"/>
        <path id="Path_629" data-name="Path 629" d="M82.867,296.2h0a.586.586,0,0,0,.247-.463v-3.731c0-.175-.113-.257-.247-.185h0a.606.606,0,0,0-.247.473v3.742C82.62,296.2,82.733,296.282,82.867,296.2Z" transform="translate(-75.661 -199.507)" fill="#fff"/>
        <path id="Path_630" data-name="Path 630" d="M223.328,212.552a.3.3,0,0,1-.288-.288V210.6a.3.3,0,0,1,.144-.247l1.336-.771a.288.288,0,0,1,.391.1.278.278,0,0,1-.1.38l-1.2.7v1.5a.288.288,0,0,1-.278.288Z" transform="translate(-71.742 -201.802)" fill="#fff"/>
        <path id="Path_631" data-name="Path 631" d="M226.9,210.48a.288.288,0,0,1-.288-.278v-1.182l-.9.524a.288.288,0,0,1-.391-.1.278.278,0,0,1,.1-.38l1.336-.771a.288.288,0,0,1,.288,0,.267.267,0,0,1,.134.236V210.2a.278.278,0,0,1-.278.278Z" transform="translate(-71.679 -201.838)" fill="#fff"/>
        <path id="Path_632" data-name="Path 632" d="M225.568,214.322a.28.28,0,0,1-.144-.524l1.192-.689V211.6a.288.288,0,0,1,.288-.278.278.278,0,0,1,.278.278v1.675a.288.288,0,0,1-.134.247l-1.336.771Z" transform="translate(-71.679 -201.753)" fill="#fff"/>
        <path id="Path_633" data-name="Path 633" d="M223.328,215.6a.339.339,0,0,1-.144,0,.3.3,0,0,1-.144-.247v-1.665a.3.3,0,0,1,.288-.288.288.288,0,0,1,.278.288v1.172l.915-.524a.288.288,0,1,1,.288.493l-1.336.771a.38.38,0,0,1-.144,0Z" transform="translate(-71.742 -201.695)" fill="#fff"/>
        <path id="Path_634" data-name="Path 634" d="M221.434,213.42l-.545.216h-.072a1.911,1.911,0,0,0-.134-.349s0-.113,0-.175l.308-.689v-.154l-.432-.319a.135.135,0,0,0-.113.093l-.38.617c0,.062-.082.113-.113.1a1.2,1.2,0,0,0-.329,0,.066.066,0,0,1-.062-.062l-.051-.689s0-.051-.072,0l-.586.349a.134.134,0,0,0-.072.123l-.062.73a.339.339,0,0,1-.072.164,2.775,2.775,0,0,0-.288.319.2.2,0,0,1-.123.082l-.432-.226a.154.154,0,0,0-.092.113l-.38.72c0,.062-.062.134,0,.154l.349.38a.288.288,0,0,1,0,.164,3.546,3.546,0,0,0-.123.442.267.267,0,0,1-.093.154l-.524.38a.185.185,0,0,0-.062.134v.781c0,.051,0,.082.062.062l.535-.236h.072a1.88,1.88,0,0,0,.144.36.308.308,0,0,1,0,.175l-.3.668v.154l.432.339s.062,0,.1-.092l.38-.617a.129.129,0,0,1,.113-.113.709.709,0,0,0,.329,0,.072.072,0,0,1,.062.072l.062.678s0,.062.072,0l.586-.339a.2.2,0,0,0,.072-.123l.051-.74a.288.288,0,0,1,.082-.154,2.139,2.139,0,0,0,.278-.329c.051-.051.093-.092.123-.072l.432.206a.135.135,0,0,0,.113-.092l.37-.72c0-.072.051-.144,0-.164l-.339-.38a.2.2,0,0,1,0-.154,3.489,3.489,0,0,0,.113-.442.36.36,0,0,1,.093-.164l.524-.38a.2.2,0,0,0,.072-.134v-.781C221.5,213.42,221.464,213.4,221.434,213.42Zm-2.251,3.084c-.545.319-1.028,0-1.028-.75a2.416,2.416,0,0,1,1.028-1.912c.555-.308,1.028,0,1.028.761a2.374,2.374,0,0,1-1.028,1.922Z" transform="translate(-71.914 -201.735)" fill="#fff"/>
        <path id="Path_635" data-name="Path 635" d="M135.164,264.861V263l-28.257,16.323a1.943,1.943,0,0,0-.977,1.47c0,.5.432.658.977.339Z" transform="translate(-75.01 -200.31)" fill="#f069a7"/>
        <path id="Path_636" data-name="Path 636" d="M214.465,218.131a1.1,1.1,0,0,0-.38.144L134.37,264.253v1.819l79.715-46.02a2.138,2.138,0,0,0,.7-.658,2.561,2.561,0,0,0,.206-.411,1.1,1.1,0,0,0,.072-.4.452.452,0,0,0-.6-.452Z" transform="translate(-74.217 -201.563)" fill="#fff" opacity="0.5"/>
        <path id="Path_637" data-name="Path 637" d="M135.827,263.284a3.443,3.443,0,0,1-1.419,2.7c-.781.442-1.408,0-1.408-1.079a3.371,3.371,0,0,1,1.408-2.693C135.179,261.762,135.827,262.235,135.827,263.284Z" transform="translate(-74.255 -200.337)" fill="#ba68c8"/>
        <path id="Path_638" data-name="Path 638" d="M135.827,263.284a3.443,3.443,0,0,1-1.419,2.7c-.781.442-1.408,0-1.408-1.079a3.371,3.371,0,0,1,1.408-2.693C135.179,261.762,135.827,262.235,135.827,263.284Z" transform="translate(-74.255 -200.337)" fill="#fff" opacity="0.5"/>
        <path id="Path_639" data-name="Path 639" d="M135.31,263.552a2.21,2.21,0,0,1-.915,1.747c-.5.288-.915,0-.915-.7a2.179,2.179,0,0,1,.915-1.737C134.9,262.575,135.31,262.873,135.31,263.552Z" transform="translate(-74.241 -200.317)" fill="#ba68c8"/>
      </g>
    </g>
    <g id="freepik--speech-bubbles--inject-2" transform="translate(72.489 65.922)">
      <g id="freepik--speech-bubbles--inject-2-2" data-name="freepik--speech-bubbles--inject-2" transform="translate(0 0)">
        <g id="freepik--speech-bubble--inject-2">
          <g id="freepik--speech-bubble--inject-2-2" data-name="freepik--speech-bubble--inject-2">
            <path id="Path_468" data-name="Path 468" d="M372.241,108.752c-6.862-3.973-16.294-3.436-26.719,2.579-20.96,12.12-37.992,41.8-37.992,66.306,0,12.33,4.32,20.96,11.273,25,1.613.911,7.919,4.556,7.919,4.556a17.388,17.388,0,0,1-8.849,13.36c-.4.228-.155.62.2.82l9.632,5.568a.912.912,0,0,0,.428.128c9.487,0,20.468-6.379,23.53-19.629,1.148-.547,2.306-1.139,3.481-1.823,20.96-12.111,37.992-41.8,37.992-66.3,0-12.339-4.31-20.96-11.264-25.024Z" transform="translate(-307.53 -106.204)" fill="#0177b4"/>
            <path id="Path_469" data-name="Path 469" d="M356.082,117.43c-20.96,12.111-37.992,41.8-37.992,66.3,0,16.631,7.828,26.583,19.42,27.494-.437,5.285-1.978,11.227-9.113,15.428-.565.337.173.966.647.966,9.487,0,20.468-6.379,23.53-19.629,1.148-.547,2.306-1.139,3.481-1.823,20.96-12.111,37.992-41.8,37.992-66.3S377.06,105.319,356.082,117.43Z" transform="translate(-308.467 -106.745)" fill="#0088ce"/>
            <path id="Path_470" data-name="Path 470" d="M328.474,235.937c-.346.219-.191.538.1.756l-9.514-5.468c-.355-.219-.6-.592-.2-.829a17.379,17.379,0,0,0,8.849-13.4l1.048.62.966.565a18.91,18.91,0,0,0,7.837,2.3C337.131,225.794,335.582,231.736,328.474,235.937Z" transform="translate(-308.517 -116.032)" fill="#0177b4"/>
          </g>
          <path id="Path_471" data-name="Path 471" d="M355.232,189.489c-1.012-.72-1.522-2.014-1.522-3.882a11.537,11.537,0,0,1,1.495-5.55,10.234,10.234,0,0,1,3.828-4.092q2.324-1.34,3.818-.319c.993.674,1.495,1.95,1.495,3.818a11.91,11.91,0,0,1-1.522,5.65,10.171,10.171,0,0,1-3.791,4.146C357.519,190.127,356.253,190.209,355.232,189.489Zm-1.358-49.538L364.181,134l-1.722,34.739L355.6,172.7Z" transform="translate(-311.626 -108.67)" fill="#fafafa"/>
        </g>
        <path id="Path_472" data-name="Path 472" d="M365.34,208.227c11.191-8.2,20.841-21.206,26.747-35.167C380.9,181.271,371.245,194.266,365.34,208.227Z" transform="translate(-312.658 -112.135)" opacity="0.2"/>
        <g id="freepik--speech-bubble--inject-2-3" data-name="freepik--speech-bubble--inject-2" transform="translate(49.538 54.369)">
          <g id="freepik--speech-bubble--inject-2-4" data-name="freepik--speech-bubble--inject-2">
            <path id="Path_473" data-name="Path 473" d="M436.589,255.067c-3.882.046-6.771-2.67-8.584-6.087,11.628-14.3,19.493-33.344,19.493-50,0-12.348-4.329-21.024-11.3-25.033l-9.614-5.541c-6.862-3.964-16.285-3.417-26.7,2.588-20.96,12.12-37.992,41.8-37.992,66.306,0,12.33,4.31,20.96,11.264,25.015,1.622.911,8.01,4.611,9.587,5.532,6.871,4,16.321,3.472,26.765-2.561a57.85,57.85,0,0,0,7.937-5.559c7.053,5.586,15.656-.5,19.064-3.417C436.963,255.924,437.017,255.067,436.589,255.067Z" transform="translate(-361.89 -165.866)" fill="#e0e0e0"/>
            <path id="Path_474" data-name="Path 474" d="M393.686,270.478c-12.7,0-20.586-10.343-20.586-26.983,0-24.277,16.914-53.766,37.691-65.786,5.814-3.354,11.373-5.058,16.522-5.058,12.694,0,20.586,10.334,20.586,26.984,0,15.92-7.418,34.939-19.356,49.62l-.246.31.182.346c2.142,4.037,5.249,6.3,8.767,6.379a.473.473,0,0,1-.128.2c-2.424,2.078-7.236,5.55-12.22,5.55h0a9.6,9.6,0,0,1-6.1-2.151l-.374-.292-.374.3a57.777,57.777,0,0,1-7.855,5.468C404.394,268.728,398.835,270.478,393.686,270.478Z" transform="translate(-362.884 -166.467)" fill="#fafafa"/>
            <path id="Path_475" data-name="Path 475" d="M427.252,172v1.185c12.33,0,19.994,10.115,19.994,26.382,0,15.8-7.363,34.675-19.219,49.256l-.5.611.374.693c1.968,3.718,4.739,6.005,7.919,6.58-2.524,2.014-6.707,4.7-10.981,4.7a9.012,9.012,0,0,1-5.732-2.023l-.747-.592-.738.611a57.725,57.725,0,0,1-7.773,5.468c-5.723,3.3-11.182,4.976-16.221,4.976-12.33,0-19.994-10.115-19.994-26.428,0-24.086,16.777-53.366,37.363-65.276,5.723-3.3,11.182-4.976,16.221-4.976V172m0,0c-5.067,0-10.772,1.649-16.813,5.14-20.96,12.111-37.992,41.792-37.992,66.3,0,17.451,8.63,27.576,21.178,27.576,5.067,0,10.772-1.65,16.813-5.14a57.854,57.854,0,0,0,7.937-5.559,10.106,10.106,0,0,0,6.461,2.278c5.213,0,10.2-3.645,12.6-5.7.456-.383.51-1.239.082-1.239h-.091c-3.828,0-6.689-2.688-8.493-6.087,11.628-14.3,19.493-33.344,19.493-50,0-17.451-8.63-27.567-21.179-27.567Z" transform="translate(-362.823 -166.41)" fill="#f069a7"/>
          </g>
          <path id="Path_476" data-name="Path 476" d="M410.7,227.708a69.386,69.386,0,0,1,3.8-7.728,58.17,58.17,0,0,0,2.679-5.276,9.951,9.951,0,0,0,.866-3.928c0-1.823-.547-2.944-1.64-3.381s-2.533-.118-4.347.911a15.919,15.919,0,0,0-4.62,4.1,25.306,25.306,0,0,0-3.408,6l-6.7-1.376a39.609,39.609,0,0,1,6.288-10.936,33.719,33.719,0,0,1,9.386-8.01q6.379-3.645,10.216-2.278t3.846,7.819a21.477,21.477,0,0,1-.747,5.75,27.616,27.616,0,0,1-1.823,4.93c-.72,1.476-1.659,3.235-2.8,5.276a58.424,58.424,0,0,0-2.989,5.823,11.481,11.481,0,0,0-.911,4.556l-8.357,4.83A19.074,19.074,0,0,1,410.7,227.708Zm-.911,23.448c-1.012-.72-1.522-2.014-1.522-3.891a11.537,11.537,0,0,1,1.495-5.55,10.279,10.279,0,0,1,3.818-4.092c1.558-.911,2.825-1,3.827-.319s1.495,1.959,1.495,3.827a11.9,11.9,0,0,1-1.522,5.641,10.124,10.124,0,0,1-3.8,4.146c-1.467.875-2.725.948-3.745.237Z" transform="translate(-365.034 -168.488)" fill="#455a64"/>
        </g>
      </g>
    </g>
  </g>
</svg>
