<svg xmlns="http://www.w3.org/2000/svg" width="320.591" height="267.604" viewBox="0 0 320.591 267.604">
  <g id="Envelope-amico" transform="translate(50.916 0)">
    <g id="freepik--Floor--inject-5" transform="translate(-50.916 82.512)" opacity="0.75">
      <ellipse id="freepik--floor--inject-5-2" data-name="freepik--floor--inject-5" cx="160.296" cy="92.546" rx="160.296" ry="92.546" transform="translate(0 0)" fill="#f0f0f0"/>
    </g>
    <g id="freepik--Shadows--inject-5" transform="translate(34.772 87.817)">
      <path id="freepik--Shadow--inject-5" d="M42.716,350.919a1.751,1.751,0,0,0,1.413-.563,1.25,1.25,0,0,1,.94-.327h.18l.726.056a1.291,1.291,0,0,0,.208,0,1.819,1.819,0,0,0,1.408-.563.777.777,0,0,0,.158-.67.163.163,0,0,1,.039-.152,1.267,1.267,0,0,1,.929-.321h.372a1.819,1.819,0,0,0,1.408-.563.777.777,0,0,0,.158-.642.163.163,0,0,1,.039-.152,1.267,1.267,0,0,1,.929-.315H52a1.808,1.808,0,0,0,1.408-.563.777.777,0,0,0,.158-.67.152.152,0,0,1,.039-.146,1.233,1.233,0,0,1,.929-.321H54.9a1.808,1.808,0,0,0,1.408-.563.754.754,0,0,0,.152-.67.174.174,0,0,1,.045-.146,1.245,1.245,0,0,1,.929-.321h.372a1.808,1.808,0,0,0,1.408-.563.755.755,0,0,0,.152-.67l-.1-.417c-.028-.13.163-.327.535-.417.783-.2,1.031-.659,1.008-1.019-.028-.507-.529-.9-1.278-.986l-.3-.039a1.042,1.042,0,0,1-.7-.31.186.186,0,0,1-.045-.13l.079-.563a.794.794,0,0,0-.208-.631,1.864,1.864,0,0,0-1.374-.513h-.113l-.7.034a1.29,1.29,0,0,1-.918-.31c-.068-.079-.062-.13-.056-.146l.045-.349a.811.811,0,0,0-.208-.636,1.858,1.858,0,0,0-1.374-.512h-.113l-.7.028a1.267,1.267,0,0,1-.912-.3.175.175,0,0,1-.062-.146l.045-.355a.771.771,0,0,0-.2-.631,1.881,1.881,0,0,0-1.38-.512h-.113l-.693.028a1.306,1.306,0,0,1-.918-.3c-.068-.079-.062-.135-.056-.152l.045-.349a.794.794,0,0,0-.208-.631,1.842,1.842,0,0,0-1.374-.512h-.113l-.7.028a1.256,1.256,0,0,1-.912-.3c-.073-.079-.068-.129-.062-.146l.045-.355a.783.783,0,0,0-.208-.631,1.858,1.858,0,0,0-1.374-.512h-.113l-1.076.045a1.076,1.076,0,0,1-.963-.389l-.068-.175a1.632,1.632,0,0,0-1.549-.783,1.78,1.78,0,0,0-1.413.563,1.205,1.205,0,0,1-.935.332h-.158L36.7,328.9h-.208a1.791,1.791,0,0,0-1.408.563.777.777,0,0,0-.158.67.158.158,0,0,1-.045.146,1.222,1.222,0,0,1-.929.321h-.366a1.791,1.791,0,0,0-1.408.563.777.777,0,0,0-.158.67.158.158,0,0,1-.045.146,1.222,1.222,0,0,1-.929.321h-.36a1.791,1.791,0,0,0-1.408.563.772.772,0,0,0-.158.67.158.158,0,0,1-.045.146,1.244,1.244,0,0,1-.929.321h-.366a1.791,1.791,0,0,0-1.408.563.771.771,0,0,0-.158.67.163.163,0,0,1-.045.146,1.239,1.239,0,0,1-.924.321H24.87a1.791,1.791,0,0,0-1.408.563.766.766,0,0,0-.158.665l.1.422c.034.13-.163.321-.529.417-.783.2-1.031.653-1.008,1.019,0,.507.529.89,1.273.985l.3.039a1.047,1.047,0,0,1,.7.3c.056.073.051.118.045.135l-.073.563a.783.783,0,0,0,.208.631,1.858,1.858,0,0,0,1.374.512h.124l.693-.028a1.273,1.273,0,0,1,.918.3.18.18,0,0,1,.062.152l-.045.349a.772.772,0,0,0,.2.631,1.864,1.864,0,0,0,1.374.512h.118l.693-.034a1.307,1.307,0,0,1,.918.3c.068.084.062.135.056.152l-.045.349a.811.811,0,0,0,.208.636,1.864,1.864,0,0,0,1.374.513h.811a1.267,1.267,0,0,1,.912.3.175.175,0,0,1,.062.146l-.045.355a.771.771,0,0,0,.18.569,1.858,1.858,0,0,0,1.374.512h.113l.693-.034a1.307,1.307,0,0,1,.918.3.208.208,0,0,1,.062.152l-.051.349a.811.811,0,0,0,.208.636,1.864,1.864,0,0,0,1.374.507h.113l1.076-.045a1.081,1.081,0,0,1,.969.389l.068.175A1.6,1.6,0,0,0,42.716,350.919Z" transform="translate(167.617 -259.584)" fill="#e0e0e0"/>
      <path id="freepik--shadow--inject-5-2" data-name="freepik--shadow--inject-5" d="M82.492,374.829a1.751,1.751,0,0,0,1.413-.563,1.25,1.25,0,0,1,.94-.315H85l.726.062h.214a1.808,1.808,0,0,0,1.408-.563.755.755,0,0,0,.152-.67.175.175,0,0,1,.045-.146,1.233,1.233,0,0,1,.929-.321h.372a1.808,1.808,0,0,0,1.408-.563.755.755,0,0,0,.152-.67.175.175,0,0,1,.045-.146,1.233,1.233,0,0,1,.929-.321h.366a1.813,1.813,0,0,0,1.413-.563.771.771,0,0,0,.152-.67.175.175,0,0,1,.045-.146,1.233,1.233,0,0,1,.929-.321h.372a1.808,1.808,0,0,0,1.408-.563.766.766,0,0,0,.152-.67.158.158,0,0,1,.045-.146,1.256,1.256,0,0,1,.929-.321h.366a1.813,1.813,0,0,0,1.413-.563.766.766,0,0,0,.152-.67l-.1-.417c-.034-.13.163-.321.563-.417.777-.2,1.031-.653,1.008-1.019-.034-.507-.563-.89-1.278-.985l-.3-.039a1.048,1.048,0,0,1-.7-.3.2.2,0,0,1-.045-.135l.073-.563a.771.771,0,0,0-.2-.631,1.875,1.875,0,0,0-1.374-.512h-.118l-.693.028a1.278,1.278,0,0,1-.918-.3c-.068-.079-.062-.135-.056-.152l.045-.349a.794.794,0,0,0-.208-.631,1.864,1.864,0,0,0-1.374-.512h-.113l-.7.028a1.267,1.267,0,0,1-.912-.3.175.175,0,0,1-.062-.146l.045-.355a.783.783,0,0,0-.208-.631,1.858,1.858,0,0,0-1.374-.512H90l-.693.028a1.278,1.278,0,0,1-.918-.3.2.2,0,0,1-.062-.146l.051-.355a.794.794,0,0,0-.208-.631,1.864,1.864,0,0,0-1.374-.512h-.113l-.7.028a1.306,1.306,0,0,1-.918-.3c-.068-.085-.062-.135-.056-.152l.045-.349a.811.811,0,0,0-.208-.636,1.864,1.864,0,0,0-1.374-.507h-.113l-1.07.045a1.081,1.081,0,0,1-.969-.389l-.068-.175a1.633,1.633,0,0,0-1.549-.783,1.763,1.763,0,0,0-1.413.563,1.239,1.239,0,0,1-.935.327H77.2l-.726-.062h-.208a1.83,1.83,0,0,0-1.413.563.771.771,0,0,0-.152.67.175.175,0,0,1-.045.152,1.256,1.256,0,0,1-.929.321h-.372a1.785,1.785,0,0,0-1.4.563.76.76,0,0,0-.158.67.175.175,0,0,1-.045.152,1.245,1.245,0,0,1-.929.315h-.366a1.791,1.791,0,0,0-1.408.563.777.777,0,0,0-.158.67.158.158,0,0,1-.045.146,1.222,1.222,0,0,1-.929.321h-.366a1.791,1.791,0,0,0-1.408.563.777.777,0,0,0-.158.67.158.158,0,0,1-.045.146,1.222,1.222,0,0,1-.929.321h-.366a1.791,1.791,0,0,0-1.408.563.777.777,0,0,0-.158.67l.1.417c.034.13-.163.321-.535.417-.777.2-1.031.659-1.008,1.019.034.507.563.9,1.278.985l.3.039a1.07,1.07,0,0,1,.7.3c.056.073.051.118.045.135l-.073.563a.788.788,0,0,0,.2.631,1.881,1.881,0,0,0,1.38.512h.113l.693-.034a1.278,1.278,0,0,1,.918.3.208.208,0,0,1,.062.152l-.051.349a.811.811,0,0,0,.208.636,1.864,1.864,0,0,0,1.374.507h.062l.7-.028a1.278,1.278,0,0,1,.918.3c.068.079.062.13.056.146l-.045.355a.794.794,0,0,0,.208.631,1.859,1.859,0,0,0,1.374.512h.113l.7-.028a1.267,1.267,0,0,1,.912.3.18.18,0,0,1,.062.152l-.045.349a.772.772,0,0,0,.2.631,1.875,1.875,0,0,0,1.374.512H75.5l.693-.028a1.278,1.278,0,0,1,.918.3c.068.079.062.13.056.146l-.045.355a.8.8,0,0,0,.208.631,1.864,1.864,0,0,0,1.374.512h.113l1.076-.045a1.092,1.092,0,0,1,.969.389l.062.175A1.7,1.7,0,0,0,82.492,374.829Z" transform="translate(105.44 -270.029)" fill="#e0e0e0"/>
      <path id="freepik--shadow--inject-5-3" data-name="freepik--shadow--inject-5" d="M190.621,302.2l25.161-14.529L119.711,232.2,94.55,246.729Z" transform="translate(-28.284 -217.705)" fill="#e0e0e0"/>
      <path id="freepik--shadow--inject-5-4" data-name="freepik--shadow--inject-5" d="M145.841,276.452l25.167-14.529L74.931,206.46,49.77,220.983Z" transform="translate(41.707 -206.46)" fill="#e0e0e0"/>
      <path id="freepik--shadow--inject-5-5" data-name="freepik--shadow--inject-5" d="M233.66,388.838,297.295,352.1c1.633-.946,1.633-2.483,0-3.43l-94.247-54.41a6.549,6.549,0,0,0-5.93,0L133.484,331c-1.639.946-1.639,2.483,0,3.424l94.224,54.416A6.561,6.561,0,0,0,233.66,388.838Z" transform="translate(-132.255 -244.506)" fill="#e0e0e0"/>
    </g>
    <g id="freepik--Plants--inject-5" transform="translate(224.213 103.22)">
      <g id="freepik--plants--inject-5-2" data-name="freepik--plants--inject-5" transform="translate(0 0)">
        <path id="Path_249" data-name="Path 249" d="M38.776,263.2c-.056-4.606,3.165-14.2,7.884-20.239S58.841,232.437,64.2,234.2c4.984,1.644,4.539,8.165-1.447,12.575S47.764,256.714,45.2,264.232l-5.457,9.241Z" transform="translate(-38.157 -233.812)" fill="#37474f"/>
        <path id="Path_250" data-name="Path 250" d="M48.957,271.923a.332.332,0,0,0,.3-.276c2.9-15.768,15.475-28.72,23.06-31.631a.338.338,0,0,0,.191-.434.327.327,0,0,0-.434-.191c-7.732,2.973-20.538,16.128-23.477,32.138a.332.332,0,0,0,.27.389Z" transform="translate(-48.591 -236.238)" fill="#fff"/>
        <path id="Path_251" data-name="Path 251" d="M44.858,294.955c.71-2.6,3.824-6.91,8.9-10.5,5.631-3.976,12.761-5.862,14.377-8.92,1.943-3.677-1.177-7.09-6.989-6.3s-15.937,8.853-17.429,20.836Z" transform="translate(-42.026 -249.235)" fill="#455a64"/>
        <path id="Path_252" data-name="Path 252" d="M52.581,294.721a.338.338,0,0,0,.287-.225c4.663-13.515,14.889-18.392,19.642-19.068a.338.338,0,0,0,.287-.383.332.332,0,0,0-.377-.287c-5.26.749-15.43,5.7-20.188,19.518a.338.338,0,0,0,.208.428A.293.293,0,0,0,52.581,294.721Z" transform="translate(-50.903 -251.698)" fill="#fff"/>
      </g>
    </g>
    <g id="freepik--Envelopes--inject-5" transform="translate(39.634 0)">
      <g id="freepik--open-envelope--inject-5" transform="translate(89.381)">
        <path id="Path_253" data-name="Path 253" d="M183.493,149.21,90.238,95.34,86.521,97.5a3.9,3.9,0,0,0-1.751,3.041v68.793a3.9,3.9,0,0,0,1.751,3.035l89.747,51.809a3.891,3.891,0,0,0,3.508,0l1.977-1.126a3.886,3.886,0,0,0,1.757-3.041Z" transform="translate(-84.747 -70.099)" fill="#0088ce"/>
        <path id="Path_254" data-name="Path 254" d="M183.493,149.21,90.238,95.34,86.521,97.5a3.9,3.9,0,0,0-1.751,3.041v68.793a3.9,3.9,0,0,0,1.751,3.035l89.747,51.809a3.891,3.891,0,0,0,3.508,0l1.977-1.126a3.886,3.886,0,0,0,1.757-3.041Z" transform="translate(-84.747 -70.099)" opacity="0.3"/>
        <path id="Path_255" data-name="Path 255" d="M85.312,71.742l-.383-.208,1.453-.845h0a2.146,2.146,0,0,1,.383-.18L127.824,55.3a2.816,2.816,0,0,1,3.154,1l45.9,67.047a7.957,7.957,0,0,1,1.183,3.829v4.477l-1.425.828L84.8,77.785V73.336a2.985,2.985,0,0,1,.512-1.594Z" transform="translate(-79.309 -52.544)" fill="#0088ce"/>
        <path id="Path_256" data-name="Path 256" d="M85.38,57.171a2.377,2.377,0,0,1,.479.5l45.913,67.041a7.322,7.322,0,0,1,.856,1.92l1.425-.828a9.4,9.4,0,0,0-.372-1.014h0l-.2-.405a.337.337,0,0,1-.034-.062,3.862,3.862,0,0,0-.248-.405L87.295,56.907a1.865,1.865,0,0,0-.231-.282l-.242-.225Z" transform="translate(-35.633 -53.088)" opacity="0.05"/>
        <path id="Path_257" data-name="Path 257" d="M169.27,71.541a2.31,2.31,0,0,1,.394-.191l41.047-15.2a2.816,2.816,0,0,1,2.669.507l1.43-.828a2.861,2.861,0,0,0-2.68-.5l-41.041,15.2a2.214,2.214,0,0,0-.383.191Z" transform="translate(-163.633 -52.557)" fill="#fff" opacity="0.35"/>
        <path id="Path_258" data-name="Path 258" d="M86.712,176.685c-.079-.146-.163-.282-.242-.405A2.566,2.566,0,0,1,86.712,176.685Z" transform="translate(11.093 -105.459)" fill="#0088ce"/>
        <path id="Path_259" data-name="Path 259" d="M169.088,56.525a3.186,3.186,0,0,0-.248-.225A3.186,3.186,0,0,1,169.088,56.525Z" transform="translate(-117.668 -53.044)" fill="#0088ce"/>
        <path id="Path_260" data-name="Path 260" d="M85.752,178.864a8.327,8.327,0,0,0-.372-1.014A8.331,8.331,0,0,1,85.752,178.864Z" transform="translate(12.668 -106.145)" fill="#0088ce"/>
        <path id="Path_261" data-name="Path 261" d="M86.257,177.485c-.062-.141-.13-.276-.2-.405C86.128,177.21,86.2,177.345,86.257,177.485Z" transform="translate(11.779 -105.808)" fill="#0088ce"/>
        <path id="Path_262" data-name="Path 262" d="M86.013,177.846Z" transform="translate(12.058 -106.141)" opacity="0.2"/>
        <path id="Path_263" data-name="Path 263" d="M85.38,179.66Z" transform="translate(13.039 -106.935)" opacity="0.2"/>
        <path id="Path_264" data-name="Path 264" d="M169.28,56.3Z" transform="translate(-118.108 -53.044)" opacity="0.2"/>
        <path id="Path_265" data-name="Path 265" d="M86.444,177.032l-.034-.062Z" transform="translate(11.396 -105.76)" opacity="0.2"/>
        <path id="Path_266" data-name="Path 266" d="M168.661,56.976a1.818,1.818,0,0,0-.231-.276A1.819,1.819,0,0,1,168.661,56.976Z" transform="translate(-117.01 -53.219)" opacity="0.2"/>
        <path id="Path_267" data-name="Path 267" d="M133.468,57.783,179.4,124.83a7.935,7.935,0,0,1,1.183,3.824v4.454L87.33,79.261V74.812A3.227,3.227,0,0,1,89.3,72l41.041-15.2a2.816,2.816,0,0,1,3.131.991Z" transform="translate(-83.264 -53.198)" fill="#0088ce"/>
        <path id="Path_268" data-name="Path 268" d="M133.468,57.783,179.4,124.83a7.935,7.935,0,0,1,1.183,3.824v4.454L87.33,79.261V74.812A3.227,3.227,0,0,1,89.3,72l41.041-15.2a2.816,2.816,0,0,1,3.131.991Z" transform="translate(-83.264 -53.198)" opacity="0.15"/>
        <path id="Path_269" data-name="Path 269" d="M87.34,87.686a2.974,2.974,0,0,1,.5-1.566l92.428,53.5h0a7.046,7.046,0,0,1,.321,1.9v4.454L87.34,92.134Z" transform="translate(-83.274 -66.071)" opacity="0.1"/>
        <path id="Path_270" data-name="Path 270" d="M99.595,53.239a1.076,1.076,0,0,1,.439-.98l2.861-1.644a1.064,1.064,0,0,1,1.07.107l76.48,44.161a3.379,3.379,0,0,1,1.515,2.647v91.583a1.059,1.059,0,0,1-.445.98l-2.816,1.639a1.064,1.064,0,0,1-1.07-.107l-76.491-44.161a3.345,3.345,0,0,1-1.515-2.619Z" transform="translate(-91.548 -50.518)" fill="#f0f0f0"/>
        <path id="Path_271" data-name="Path 271" d="M182.656,192.895l-76.491-44.161a3.345,3.345,0,0,1-1.515-2.619V54.51c0-.969.681-1.357,1.515-.878l76.491,44.161a3.379,3.379,0,0,1,1.515,2.624v91.605C184.171,192.991,183.495,193.407,182.656,192.895Z" transform="translate(-96.603 -51.789)" fill="#fafafa"/>
        <path id="Path_272" data-name="Path 272" d="M100.018,226.068a1.126,1.126,0,0,1-.36.924c.512-.287,2.5-1.442,2.748-1.582a1.048,1.048,0,0,0,.451-.974V132.847a3.013,3.013,0,0,0-.45-1.487l-2.816,1.633a3.069,3.069,0,0,1,.451,1.5Z" transform="translate(-12.444 -85.835)" fill="#e0e0e0"/>
        <path id="Path_273" data-name="Path 273" d="M205.406,78.537,219,86.382a2.619,2.619,0,0,1,1.216,2.022c0,.732-.563,1.008-1.222.619l-13.589-7.844a2.619,2.619,0,0,1-1.216-2.027C204.19,78.425,204.736,78.16,205.406,78.537Z" transform="translate(-188.704 -62.684)" fill="#e0e0e0"/>
        <path id="Path_274" data-name="Path 274" d="M145.151,139.872l-25.015-14.439c-.67-.389-1.216-.113-1.216.619a2.619,2.619,0,0,0,1.216,2.022l25.015,14.439c.67.389,1.216.113,1.216-.614A2.607,2.607,0,0,0,145.151,139.872Z" transform="translate(-66.835 -83.169)" fill="#e0e0e0"/>
        <path id="Path_275" data-name="Path 275" d="M181.749,137.551l-61.613-35.568c-.67-.389-1.216-.113-1.216.614a2.619,2.619,0,0,0,1.216,2.027l61.613,35.585c.67.394,1.216.113,1.216-.614A2.63,2.63,0,0,0,181.749,137.551Z" transform="translate(-103.434 -72.924)" fill="#e0e0e0"/>
        <path id="Path_276" data-name="Path 276" d="M181.749,146.937l-61.613-35.573c-.67-.389-1.216-.113-1.216.614A2.619,2.619,0,0,0,120.136,114l61.613,35.573c.67.389,1.216.113,1.216-.619a2.618,2.618,0,0,0-1.216-2.022Z" transform="translate(-103.434 -77.022)" fill="#e0e0e0"/>
        <path id="Path_277" data-name="Path 277" d="M181.749,156.317l-61.613-35.573c-.67-.389-1.216-.113-1.216.619a2.619,2.619,0,0,0,1.216,2.022l61.613,35.573c.67.389,1.216.113,1.216-.619A2.618,2.618,0,0,0,181.749,156.317Z" transform="translate(-103.434 -81.12)" fill="#e0e0e0"/>
        <path id="Path_278" data-name="Path 278" d="M181.749,171.731l-61.613-35.568c-.67-.389-1.216-.113-1.216.614a2.619,2.619,0,0,0,1.216,2.027l61.613,35.568c.67.389,1.216.113,1.216-.614A2.618,2.618,0,0,0,181.749,171.731Z" transform="translate(-103.434 -87.856)" fill="#e0e0e0"/>
        <path id="Path_279" data-name="Path 279" d="M181.749,181.111l-61.613-35.568c-.67-.389-1.216-.113-1.216.614a2.619,2.619,0,0,0,1.216,2.027l61.613,35.568c.67.389,1.216.113,1.216-.614a2.618,2.618,0,0,0-1.216-2.027Z" transform="translate(-103.434 -91.954)" fill="#e0e0e0"/>
        <path id="Path_280" data-name="Path 280" d="M181.749,190.5l-61.613-35.573c-.67-.389-1.216-.113-1.216.614a2.619,2.619,0,0,0,1.216,2.027l61.613,35.573c.67.389,1.216.113,1.216-.619A2.607,2.607,0,0,0,181.749,190.5Z" transform="translate(-103.434 -96.052)" fill="#e0e0e0"/>
        <path id="Path_281" data-name="Path 281" d="M93.23,217.8a.776.776,0,0,0,.1.141l38.856-12.321a6.69,6.69,0,0,1,8.4,2.585l41.554,61.77,1.537.89h0a1.262,1.262,0,0,0,1.188.135l-42.725-63.634a6.713,6.713,0,0,0-8.408-2.59Z" transform="translate(-90.859 -117.657)" fill="#0088ce"/>
        <path id="Path_282" data-name="Path 282" d="M93.331,221.38l-.1-.079,37.82,55.79,1.537.884h0a1.29,1.29,0,0,0,1.188.13L94.807,220.49Z" transform="translate(-39.777 -124.773)" fill="#fff" opacity="0.4"/>
        <path id="Path_283" data-name="Path 283" d="M169.17,217.778a.964.964,0,0,0,.1.141l38.856-12.327a6.7,6.7,0,0,1,8.4,2.585l1.537-.9a6.713,6.713,0,0,0-8.391-2.574Z" transform="translate(-166.833 -117.629)" fill="#fff" opacity="0.4"/>
        <path id="Path_284" data-name="Path 284" d="M96.19,100.758h0c.084-.507.349-.648.693-.405a2.147,2.147,0,0,1,.445.456l.2.276,38.361,58.3,5.727,7.98a3.278,3.278,0,0,0,3.154,1.183l4.939-1.177,37.73-13.893a2,2,0,0,1,.771,0,1.639,1.639,0,0,1,.282.09l-1.419-.822-36.176,13.262-4.764,1.689a3.255,3.255,0,0,1-3.154-1.183l-5.727-7.974L98.713,99.975a1.594,1.594,0,0,0-.434-.4l3.334-1.92-1.4-.805-2.309,1.329A3.993,3.993,0,0,0,96.19,100.758Z" transform="translate(-96.156 -70.759)" fill="#0088ce"/>
        <path id="Path_285" data-name="Path 285" d="M165.05,207.3l5.727,7.974a3.255,3.255,0,0,0,3.154,1.183l4.944-1.177-.1-.079-.237-.383-3.238.772a3.249,3.249,0,0,1-3.154-1.183l-5.671-7.884Z" transform="translate(-125.321 -118.67)" fill="#fff" opacity="0.4"/>
        <path id="Path_286" data-name="Path 286" d="M188.752,98.129l2.309-1.329,1.4.805-3.334,1.92h0a1.628,1.628,0,0,1,.434.4L228.1,158.492l.051.073h0l-1.425.777-38.35-58.307-.2-.27a1.847,1.847,0,0,0-.445-.462c-.344-.237-.608-.1-.693.405h0A4,4,0,0,1,188.752,98.129Z" transform="translate(-186.978 -70.737)" opacity="0.05"/>
        <path id="Path_287" data-name="Path 287" d="M84.8,195.725,93.027,191v70.792a3.885,3.885,0,0,1-1.757,3.041l-1.977,1.126a3.891,3.891,0,0,1-3.508,0L84.8,265.4Z" transform="translate(5.719 -111.89)" fill="#0088ce"/>
        <path id="Path_288" data-name="Path 288" d="M84.8,195.725,93.027,191v70.792a3.885,3.885,0,0,1-1.757,3.041l-1.977,1.126a3.891,3.891,0,0,1-3.508,0L84.8,265.4Z" transform="translate(5.719 -111.89)" opacity="0.3"/>
        <path id="Path_289" data-name="Path 289" d="M94.578,103.82v68.787a3.565,3.565,0,0,0,.563,1.78,3.869,3.869,0,0,0,1.031,1.154l.068.034a.805.805,0,0,0,.113.079l89.741,51.809h0a1.261,1.261,0,0,0,1.194.141,1.059,1.059,0,0,0,.524-.839,1.886,1.886,0,0,0,0-.315V157.656a1.526,1.526,0,0,0-1.971-1.554l-37.73,13.893-4.939,1.177a3.277,3.277,0,0,1-3.154-1.183l-5.71-7.98-38.35-58.3-.2-.276C95.113,102.53,94.578,102.7,94.578,103.82Z" transform="translate(-94.578 -73.381)" fill="#0088ce"/>
        <path id="Path_290" data-name="Path 290" d="M94.578,103.82v68.787a3.565,3.565,0,0,0,.563,1.78,3.869,3.869,0,0,0,1.031,1.154l.068.034a.805.805,0,0,0,.113.079l89.741,51.809h0a1.261,1.261,0,0,0,1.194.141,1.059,1.059,0,0,0,.524-.839,1.886,1.886,0,0,0,0-.315V157.656a1.526,1.526,0,0,0-1.971-1.554l-35.8,13.183-1.689.625-.231.084-4.939,1.177a3.277,3.277,0,0,1-3.154-1.183l-5.716-7.98-38.35-58.3-.2-.276C95.113,102.53,94.578,102.7,94.578,103.82Z" transform="translate(-94.578 -73.381)" opacity="0.2"/>
        <path id="Path_291" data-name="Path 291" d="M94.5,220.864l38.935,57.693A1.222,1.222,0,0,0,134,277.4v-1.126L95.7,219.49Z" transform="translate(-40.72 -124.336)" fill="#0088ce"/>
        <path id="Path_292" data-name="Path 292" d="M94.5,210.646l42.99,63.674a1.222,1.222,0,0,0,.563-1.154v-1.126L96.082,209.79Z" transform="translate(-44.774 -120.098)" opacity="0.25"/>
        <path id="Path_293" data-name="Path 293" d="M191.384,221.545l-.113-.079-.068-.039a3.706,3.706,0,0,1-1.031-1.126,3.548,3.548,0,0,1-.563-1.746L229.334,207.9l-26.6,20.205Z" transform="translate(-189.61 -119.272)" fill="#ba68c8"/>
        <path id="Path_294" data-name="Path 294" d="M191.384,221.545l-.113-.079-.068-.039a3.706,3.706,0,0,1-1.031-1.126,3.548,3.548,0,0,1-.563-1.746L229.334,207.9l-26.6,20.205Z" transform="translate(-189.61 -119.272)" opacity="0.25"/>
        <path id="Path_295" data-name="Path 295" d="M95.54,219.291a3.706,3.706,0,0,0,1.031,1.126l.068.039,89.86,51.91h0a1.239,1.239,0,0,0,1.194.135l-42.973-63.691a6.758,6.758,0,0,0-8.447-2.6Z" transform="translate(-94.994 -118.286)" fill="#0088ce"/>
        <path id="Path_296" data-name="Path 296" d="M95.54,219.291a3.706,3.706,0,0,0,1.031,1.126l.068.039,89.86,51.91h0a1.239,1.239,0,0,0,1.194.135l-42.973-63.691a6.758,6.758,0,0,0-8.447-2.6Z" transform="translate(-94.994 -118.286)" opacity="0.15"/>
        <path id="Path_297" data-name="Path 297" d="M86.225,179.65l-1.425.828a6.966,6.966,0,0,1,.327,1.915v4.443l1.425-.794v-4.505A6.96,6.96,0,0,0,86.225,179.65Z" transform="translate(12.195 -106.931)" opacity="0.15"/>
        <path id="Path_298" data-name="Path 298" d="M87.32,193.836l1.425.822,1.436-.828,3.548-2.044-1.38-.817Z" transform="translate(3.598 -111.876)" fill="#0088ce"/>
        <path id="Path_299" data-name="Path 299" d="M123.26,193.865l5.068-2.895,1.38.817-3.548,2.044-1.442.828h0a1.161,1.161,0,0,0-.27-.084,1.808,1.808,0,0,0-.771,0l-2.866,1.053-32.938,12.13-.512-.766Z" transform="translate(-32.403 -111.876)" opacity="0.05"/>
      </g>
      <g id="freepik--back-envelope--inject-5" transform="translate(64.406 37.983)">
        <g id="freepik--Envelope--inject-5">
          <g id="freepik--Letter--inject-5">
            <path id="Path_300" data-name="Path 300" d="M227.9,173.173a3.993,3.993,0,0,0-1.813-3.137L136.654,118.4a4,4,0,0,0-3.627,0l-2.044,1.177a4.021,4.021,0,0,0-1.813,3.142v71.107a4.021,4.021,0,0,0,1.813,3.137L220.426,248.6a4.021,4.021,0,0,0,3.621,0l2.044-1.177a4.032,4.032,0,0,0,1.813-3.142Z" transform="translate(-129.17 -117.968)" fill="#0088ce"/>
            <path id="Path_301" data-name="Path 301" d="M227.76,171.435l-5.147,2.968L130.09,120.978a3.7,3.7,0,0,1,1.278-1.352l2.05-1.177a3.942,3.942,0,0,1,3.615,0l89.443,51.628a3.734,3.734,0,0,1,1.284,1.357Z" transform="translate(-129.544 -117.987)" fill="#0088ce"/>
            <path id="Path_302" data-name="Path 302" d="M227.76,171.435l-5.147,2.968L130.09,120.978a3.7,3.7,0,0,1,1.278-1.352l2.05-1.177a3.942,3.942,0,0,1,3.615,0l89.443,51.628a3.734,3.734,0,0,1,1.284,1.357Z" transform="translate(-129.544 -117.987)" fill="#fff" opacity="0.35"/>
            <path id="Path_303" data-name="Path 303" d="M136.257,214.661v71.085a4,4,0,0,1-1.813,3.142l-2.044,1.205a3.081,3.081,0,0,1-.5.225,4.288,4.288,0,0,1-.749.169,4.353,4.353,0,0,1-1.43-.051,3.265,3.265,0,0,1-.355-.09l-.22-.073a1.126,1.126,0,0,0,.873-.034,1.256,1.256,0,0,0,.563-1.194V215.838l5.147-2.968A3.711,3.711,0,0,1,136.257,214.661Z" transform="translate(-37.511 -159.427)" opacity="0.1"/>
          </g>
        </g>
        <path id="Path_304" data-name="Path 304" d="M182.2,217.391l-25.989-15.008c-.405-.231-.732-.045-.732.422v.208a1.616,1.616,0,0,0,.732,1.267l25.989,15c.4.231.726.045.726-.422v-.2A1.616,1.616,0,0,0,182.2,217.391Z" transform="translate(-99.009 -154.803)" fill="#455a64"/>
        <path id="Path_305" data-name="Path 305" d="M182.2,225.091l-25.989-15.008c-.405-.231-.732-.045-.732.422v.208a1.627,1.627,0,0,0,.732,1.267l25.989,15c.4.231.726.045.726-.422v-.2a1.616,1.616,0,0,0-.726-1.267Z" transform="translate(-99.009 -158.166)" fill="#455a64"/>
        <path id="Path_306" data-name="Path 306" d="M182.2,232.785l-25.989-15c-.405-.231-.732-.045-.732.422v.22a1.627,1.627,0,0,0,.732,1.267l25.989,15c.4.231.726.045.726-.422v-.208A1.633,1.633,0,0,0,182.2,232.785Z" transform="translate(-99.009 -161.53)" fill="#455a64"/>
        <path id="Path_307" data-name="Path 307" d="M266.015,230.415l-25.983-15c-.405-.231-.732-.045-.732.422v.2a1.616,1.616,0,0,0,.726,1.267l25.989,15.008c.405.231.732.045.732-.422v-.208A1.627,1.627,0,0,0,266.015,230.415Z" transform="translate(-230.031 -160.495)" fill="#455a64"/>
        <path id="Path_308" data-name="Path 308" d="M266.015,238.115l-25.983-15c-.405-.231-.732-.045-.732.422v.2a1.616,1.616,0,0,0,.726,1.267l25.989,15.008c.405.231.732.039.732-.422v-.208A1.616,1.616,0,0,0,266.015,238.115Z" transform="translate(-230.031 -163.859)" fill="#455a64"/>
        <path id="Path_309" data-name="Path 309" d="M266.015,245.813l-25.983-15c-.405-.237-.732-.045-.732.422v.2a1.616,1.616,0,0,0,.726,1.267l25.989,15.008c.405.231.732.039.732-.422v-.208A1.616,1.616,0,0,0,266.015,245.813Z" transform="translate(-230.031 -167.221)" fill="#455a64"/>
        <path id="Path_310" data-name="Path 310" d="M266.015,253.513l-25.983-15c-.405-.236-.732-.045-.732.422v.2a1.616,1.616,0,0,0,.726,1.267l25.989,15c.405.236.732.045.732-.422v-.2A1.616,1.616,0,0,0,266.015,253.513Z" transform="translate(-230.031 -170.585)" fill="#455a64"/>
        <path id="Path_311" data-name="Path 311" d="M273.349,159.879l-.208.253c-.265.321-.743.045-1.008-.563l-.2-.484c-.265-.631-.743-.907-1.008-.563l-.208.253c-.265.321-.743.045-1.008-.563l-.2-.49c-.265-.631-.743-.907-1.008-.563l-.208.248c-.265.321-.738.045-1.008-.563l-.2-.49c-.265-.625-.743-.9-1.008-.563l-.208.248c-.265.321-.738.045-1-.563l-.208-.49c-.265-.625-.743-.9-1.008-.563l-.332.405c-.214.259-.563.13-.862-.3l-.135-.214c-.563-.845-1.211-.389-.98.67h0a1.034,1.034,0,0,1-.22,1.064l-.3.175c-.355.208-.355,1.025,0,1.639h0c.349.608.349,1.43,0,1.633h0c-.355.2-.355,1.019,0,1.633h0c.349.614.349,1.43,0,1.633h0c-.355.208-.355,1.025,0,1.639h0c.349.614.349,1.43,0,1.633h0c-.355.2-.355,1.019,0,1.633h0c.349.614.349,1.43,0,1.639h0c-.355.2-.355,1.019,0,1.633l.3.524a1.8,1.8,0,0,1,.22,1.318h0c-.231.788.439,2.022.98,1.8l.135-.056c.276-.113.648.18.862.693l.332.788c.265.631.743.907,1.008.563l.208-.253c.265-.321.738-.045,1,.563l.208.484c.265.631.743.907,1.008.563l.2-.253c.27-.321.743-.045,1.008.563l.208.49c.265.631.743.907,1.008.563l.2-.248c.265-.321.743-.045,1.008.563l.208.49c.265.625.743.9,1.008.563l.2-.236c.265-.321.743-.051,1.008.563l.208.49c.265.625.743.9,1.008.563l.332-.405c.214-.265.563-.135.862.3l.135.214c.563.845,1.211.389.98-.67h0a1.035,1.035,0,0,1,.22-1.059l.3-.175c.355-.208.355-1.025,0-1.639h0c-.355-.614-.355-1.43,0-1.633h0c.355-.2.355-1.019,0-1.633h0c-.355-.614-.355-1.43,0-1.639h0c.355-.2.355-1.019,0-1.633h0c-.355-.614-.355-1.43,0-1.633h0c.355-.2.355-1.025,0-1.633h0c-.355-.614-.355-1.43,0-1.639h0c.355-.2.355-1.019,0-1.633l-.3-.524a1.858,1.858,0,0,1-.22-1.318h0c.231-.788-.439-2.022-.98-1.8l-.135.056c-.276.113-.648-.18-.862-.693l-.332-.794C274.092,159.834,273.614,159.575,273.349,159.879Z" transform="translate(-252.704 -133.652)" opacity="0.1"/>
        <path id="Path_312" data-name="Path 312" d="M274.509,159.536l-.2.248c-.265.321-.743.045-1.008-.563l-.208-.49c-.265-.631-.743-.9-1.008-.563l-.2.248c-.265.321-.743.045-1.008-.563l-.208-.49c-.265-.625-.738-.9-1-.563l-.208.248c-.265.327-.743.051-1.008-.563l-.208-.49c-.265-.625-.738-.9-1-.563l-.208.253c-.265.321-.743.045-1.008-.563l-.2-.484c-.265-.631-.743-.907-1.008-.563l-.338.405c-.214.265-.563.135-.862-.3l-.135-.208c-.563-.85-1.211-.394-.974.665h0a1.036,1.036,0,0,1-.22,1.059l-.3.18c-.355.2-.355,1.019,0,1.633h0c.355.614.355,1.43,0,1.633h0c-.355.208-.355,1.025,0,1.639h0c.355.608.355,1.425,0,1.633h0c-.355.2-.355,1.019,0,1.633h0c.355.614.355,1.43,0,1.633h0c-.355.208-.355,1.025,0,1.639h0c.355.614.355,1.43,0,1.633h0c-.355.2-.355,1.019,0,1.633l.3.529a1.842,1.842,0,0,1,.22,1.312h0c-.237.788.434,2.022.974,1.8l.135-.056c.282-.118.648.18.862.693l.338.788c.265.625.743.9,1.008.563l.2-.248c.265-.327.743-.051,1.008.563l.208.49c.265.625.738.9,1,.563l.208-.253c.265-.321.743-.045,1.008.563l.208.484c.265.631.738.907,1,.563l.208-.253c.265-.321.743-.045,1.008.563l.2.484c.265.631.743.907,1.008.563l.208-.253c.265-.321.743-.045,1.008.563l.2.49c.265.631.743.907,1.008.563l.332-.405c.22-.259.563-.13.867.3l.135.214c.563.85,1.211.389.974-.67h0a1.05,1.05,0,0,1,.22-1.064l.3-.175c.355-.2.355-1.019,0-1.633h0c-.355-.614-.355-1.43,0-1.639h0c.355-.2.355-1.019,0-1.633h0c-.355-.614-.355-1.43,0-1.633h0c.355-.208.355-1.025,0-1.633h0c-.355-.614-.355-1.43,0-1.639h0c.355-.2.355-1.019,0-1.633h0c-.355-.614-.355-1.43,0-1.633h0c.355-.208.355-1.025,0-1.639l-.3-.524a1.853,1.853,0,0,1-.22-1.318h0c.237-.788-.434-2.016-.974-1.8l-.135.056c-.282.113-.648-.18-.867-.693l-.332-.788C275.258,159.485,274.779,159.209,274.509,159.536Z" transform="translate(-254.518 -133.501)" fill="#f0f0f0"/>
        <path id="Path_313" data-name="Path 313" d="M276.508,163.442l-9.889-5.71c-.946-.563-1.689-.107-1.689.985V172.7a3.773,3.773,0,0,0,1.689,2.956l9.889,5.71c.946.563,1.689.1,1.689-.985V166.4A3.762,3.762,0,0,0,276.508,163.442Z" transform="translate(-255.914 -135.234)" fill="#455a64"/>
        <path id="Path_314" data-name="Path 314" d="M279.422,173.522a.045.045,0,0,0,.068,0l.614-1.087,1.126-4.24a.421.421,0,0,0-.039-.253l-.631-1.126v-.146l.259.146c.045,0,.084,0,.084-.079a.231.231,0,0,0-.084-.18l-.293-.169c-.073-.045-.135,0-.135.13v.225a.461.461,0,0,0,.051.191l.619,1.126-1.126,4.2-.6,1.053a.22.22,0,0,0,.028.191A.136.136,0,0,0,279.422,173.522Z" transform="translate(-267.055 -139.113)" fill="#ba68c8"/>
        <path id="Path_315" data-name="Path 315" d="M280.972,179.374c1.126.648,2.022-.237,2.022-1.965a5.374,5.374,0,0,0-2.022-4.3c-1.115-.648-2.022.242-2.022,1.971A5.354,5.354,0,0,0,280.972,179.374Zm0-5.919a4.756,4.756,0,0,1,1.8,3.824c0,1.537-.805,2.32-1.8,1.751a4.776,4.776,0,0,1-1.8-3.829C279.175,173.663,279.981,172.881,280.972,173.455Z" transform="translate(-268.605 -141.963)" fill="#f0f0f0"/>
        <path id="Path_316" data-name="Path 316" d="M278.64,174.769c.028,0,.056,0,.056-.056,0-1.819.952-2.748,2.129-2.067a5.633,5.633,0,0,1,2.129,4.505.147.147,0,0,0,.056.118c.034,0,.056,0,.056-.051,0-1.92-1.008-4.055-2.253-4.77s-2.253.265-2.253,2.179a.135.135,0,0,0,.079.141Z" transform="translate(-268.458 -141.666)" fill="#ba68c8"/>
        <path id="Path_317" data-name="Path 317" d="M278.64,174.769c.028,0,.056,0,.056-.056,0-1.819.952-2.748,2.129-2.067a5.633,5.633,0,0,1,2.129,4.505.147.147,0,0,0,.056.118c.034,0,.056,0,.056-.051,0-1.92-1.008-4.055-2.253-4.77s-2.253.265-2.253,2.179a.135.135,0,0,0,.079.141Z" transform="translate(-268.458 -141.666)" opacity="0.2"/>
        <path id="Path_318" data-name="Path 318" d="M266.98,181.5c.028,0,.056,0,.056-.051,0-1.819.952-2.748,2.129-2.072s2.129,2.709,2.129,4.505a.169.169,0,0,0,.056.124c.034,0,.056,0,.056-.056,0-1.915-1-4.055-2.253-4.77s-2.253.265-2.253,2.179a.135.135,0,0,0,.079.141Z" transform="translate(-250.232 -144.606)" fill="#ba68c8"/>
        <path id="Path_319" data-name="Path 319" d="M266.98,181.5c.028,0,.056,0,.056-.051,0-1.819.952-2.748,2.129-2.072s2.129,2.709,2.129,4.505a.169.169,0,0,0,.056.124c.034,0,.056,0,.056-.056,0-1.915-1-4.055-2.253-4.77s-2.253.265-2.253,2.179a.135.135,0,0,0,.079.141Z" transform="translate(-250.232 -144.606)" opacity="0.2"/>
        <path id="Path_320" data-name="Path 320" d="M269.312,186.109c1.126.642,2.022-.242,2.022-1.971a5.374,5.374,0,0,0-2.022-4.3c-1.115-.648-2.022.242-2.022,1.971A5.365,5.365,0,0,0,269.312,186.109Zm0-5.924a4.764,4.764,0,0,1,1.8,3.824c0,1.532-.805,2.326-1.8,1.751a4.772,4.772,0,0,1-1.8-3.824C267.515,180.4,268.321,179.616,269.312,180.185Z" transform="translate(-250.379 -144.903)" fill="#f0f0f0"/>
        <path id="Path_321" data-name="Path 321" d="M273.462,179.188h0l2.748.952c.034,0,.056,0,.068-.045a.213.213,0,0,0,0-.141l-1.858-4.291c-.034-.073-.084-.107-.118-.079a.163.163,0,0,0,0,.18l1.751,4.049-2.551-.884-2.607-6c-.028-.073-.085-.107-.118-.079a.163.163,0,0,0,0,.18l2.624,6.093a.208.208,0,0,0,.062.062Z" transform="translate(-257.283 -141.941)" fill="#ba68c8"/>
        <path id="Path_322" data-name="Path 322" d="M273.323,180c.039,0,.068,0,.079-.045l1.34-5.018a.237.237,0,0,0-.051-.2c-.039-.051-.09-.039-.107,0l-1.34,5.018a.276.276,0,0,0,.051.2Z" transform="translate(-257.144 -142.756)" fill="#ba68c8"/>
        <path id="Path_323" data-name="Path 323" d="M271.37,182.595h0l2.253,1.031c.045,0,.079,0,.079-.1a.248.248,0,0,0-.09-.175l-2.253-1.025c-.045,0-.079,0-.079.1A.254.254,0,0,0,271.37,182.595Z" transform="translate(-254.994 -146.085)" fill="#ba68c8"/>
        <path id="Path_324" data-name="Path 324" d="M273.072,173.492c.169.056.158-.028.467.175a.884.884,0,0,1,.417.766c0,.079-.039.118-.09.079a.759.759,0,0,0-.27-.146.389.389,0,0,1-.3-.084c-.1-.09-.237-.332-.417-.5a2.085,2.085,0,0,0-.422-.253l-.107-.068a.236.236,0,0,1-.073-.208c.028-.1.084-.208.2-.163A5.579,5.579,0,0,0,273.072,173.492Z" transform="translate(-255.806 -142.045)" fill="#ba68c8"/>
        <path id="Path_325" data-name="Path 325" d="M273.072,173.492c.169.056.158-.028.467.175a.884.884,0,0,1,.417.766c0,.079-.039.118-.09.079a.759.759,0,0,0-.27-.146.389.389,0,0,1-.3-.084c-.1-.09-.237-.332-.417-.5a2.085,2.085,0,0,0-.422-.253l-.107-.068a.236.236,0,0,1-.073-.208c.028-.1.084-.208.2-.163A5.579,5.579,0,0,0,273.072,173.492Z" transform="translate(-255.806 -142.045)" opacity="0.2"/>
        <path id="Path_326" data-name="Path 326" d="M277.726,176.919c.034,0,.062,0,.079-.039a.237.237,0,0,0-.051-.2,10.947,10.947,0,0,1-2.523-6.155.18.18,0,0,0-.1-.158c-.045,0-.079.034-.073.107a11.489,11.489,0,0,0,2.63,6.442Z" transform="translate(-261.232 -140.86)" fill="#ba68c8"/>
        <path id="Path_327" data-name="Path 327" d="M277.943,177.661H278l.237-.169c.039,0,.045-.1,0-.175s-.079-.113-.113-.084l-.242.163c-.034,0-.039.1,0,.175A.192.192,0,0,0,277.943,177.661Z" transform="translate(-263.262 -143.855)" fill="#ba68c8"/>
        <path id="Path_328" data-name="Path 328" d="M275.358,184c.287.169.524-.062.524-.5a1.391,1.391,0,0,0-.524-1.126c-.282-.163-.518.062-.518.507A1.385,1.385,0,0,0,275.358,184Zm0-1.425a1.064,1.064,0,0,1,.405.856c0,.338-.18.518-.405.389a1.075,1.075,0,0,1-.4-.856C274.958,182.617,275.138,182.442,275.358,182.572Z" transform="translate(-259.179 -146.079)" fill="#f0f0f0"/>
        <path id="Path_329" data-name="Path 329" d="M275.746,184.46a.034.034,0,0,0,.039,0l.907-.608a.171.171,0,0,0,0-.124c-.028-.051-.062-.079-.084-.062l-.907.563c-.028,0-.034.068,0,.118A.1.1,0,0,0,275.746,184.46Z" transform="translate(-260.474 -146.667)" fill="#f0f0f0"/>
        <path id="Path_330" data-name="Path 330" d="M276.877,184.75l.445.259c.028,0,.056,0,.056-.062a.163.163,0,0,0-.056-.124l-.445-.253c-.034,0-.056,0-.056.056A.147.147,0,0,0,276.877,184.75Z" transform="translate(-261.79 -147.064)" fill="#ba68c8"/>
        <path id="Path_331" data-name="Path 331" d="M276.877,184.75l.445.259c.028,0,.056,0,.056-.062a.163.163,0,0,0-.056-.124l-.445-.253c-.034,0-.056,0-.056.056A.147.147,0,0,0,276.877,184.75Z" transform="translate(-261.79 -147.064)" opacity="0.2"/>
        <path id="Path_332" data-name="Path 332" d="M279.709,166.881a.647.647,0,0,0-.22-.518c-.124-.073-.22.045-.22.265a.631.631,0,0,0,.22.518C279.608,167.219,279.709,167.1,279.709,166.881Z" transform="translate(-265.501 -139.101)" fill="#ba68c8"/>
        <path id="Path_333" data-name="Path 333" d="M279.709,166.881a.647.647,0,0,0-.22-.518c-.124-.073-.22.045-.22.265a.631.631,0,0,0,.22.518C279.608,167.219,279.709,167.1,279.709,166.881Z" transform="translate(-265.501 -139.101)" opacity="0.4"/>
        <path id="Path_334" data-name="Path 334" d="M278.292,167.113l.732.422c.1.056.1-.31,0-.366l-.732-.422C278.213,166.7,278.213,167.068,278.292,167.113Z" transform="translate(-264.303 -139.276)" fill="#ba68c8"/>
        <path id="Path_335" data-name="Path 335" d="M278.292,167.113l.732.422c.1.056.1-.31,0-.366l-.732-.422C278.213,166.7,278.213,167.068,278.292,167.113Z" transform="translate(-264.303 -139.276)" opacity="0.2"/>
        <path id="Path_336" data-name="Path 336" d="M282.572,178.755a.372.372,0,0,0-.141-.3c-.079-.045-.141,0-.141.141a.36.36,0,0,0,.141.293C282.51,178.924,282.572,178.862,282.572,178.755Z" transform="translate(-270.064 -144.386)" fill="#f0f0f0"/>
        <path id="Path_337" data-name="Path 337" d="M270.911,185.47a.36.36,0,0,0-.141-.293c-.079-.045-.141,0-.141.135a.372.372,0,0,0,.141.3C270.85,185.633,270.911,185.594,270.911,185.47Z" transform="translate(-251.838 -147.322)" fill="#f0f0f0"/>
      </g>
      <g id="freepik--envelope--inject-5-2" data-name="freepik--envelope--inject-5" transform="translate(0 133.651)">
        <path id="Path_338" data-name="Path 338" d="M143.236,323.891a.232.232,0,0,1,0-.09h0a.38.38,0,0,1,0-.079.242.242,0,0,1,.028-.118.434.434,0,0,1,.056-.13,1.183,1.183,0,0,1,.439-.484h0l.068-.039.079-.051h.028l58.96-34.042.113-.062a6.548,6.548,0,0,1,3.43-.811h.051a6.435,6.435,0,0,1,2.9.856h0l4.285,2.467,74.407,42.86,9.478,5.468h0a2.253,2.253,0,0,1,.884,1.689v5.243a2.3,2.3,0,0,1-1.154,2.016h0l-.935.563L238.563,382.52a3.942,3.942,0,0,1-3.542,0h0l-79.515-45.907-11.533-6.656-.113-.079-.068-.039a1.194,1.194,0,0,1-.563-.884C143.236,328.9,143.258,324.207,143.236,323.891Z" transform="translate(-143.219 -287.907)" fill="#b4e1e8"/>
        <path id="Path_339" data-name="Path 339" d="M144.257,424.276l-.13.039a3.934,3.934,0,0,1-.462.073h-.484v-5.1a3.548,3.548,0,0,0,1.785-.428l58.718-33.878a2.292,2.292,0,0,0,1.166-2.146v5.226a2.3,2.3,0,0,1-1.154,2.016h0l-.935.563-57.789,33.371a2.889,2.889,0,0,1-.4.186,2.805,2.805,0,0,1-.315.073Z" transform="translate(-49.605 -329.348)" opacity="0.25"/>
        <path id="Path_340" data-name="Path 340" d="M252.767,356.851a1.194,1.194,0,0,0,.563.884l.068.039.113.079,11.527,6.656,79.515,45.907h0a3.615,3.615,0,0,0,1.689.417h.056v-5.1a3.853,3.853,0,0,1-1.757-.417h0l-91.161-52.636-.068-.039a1.194,1.194,0,0,1-.563-.884C252.789,352.07,252.767,356.761,252.767,356.851Z" transform="translate(-252.75 -315.77)" opacity="0.15"/>
        <path id="Path_341" data-name="Path 341" d="M143.186,323.835a1.194,1.194,0,0,0,.563.884l.068.039,11.668,6.729L203.644,359.3l31.35,18.094h0a3.942,3.942,0,0,0,3.542,0l1.008-.563,44.995-25.983,11.786-6.8.935-.535a2.3,2.3,0,0,0,1.154-2.095v-.068a2.253,2.253,0,0,0-.884-1.689h0l-9.5-5.547L213.7,291.178l-4.285-2.466h0a6.436,6.436,0,0,0-2.9-.856h-.051a6.55,6.55,0,0,0-3.429.811l-.113.062-58.96,34.042h-.028l-.079.051-.068.039a1.183,1.183,0,0,0-.439.484.433.433,0,0,0-.056.129.242.242,0,0,0-.028.118.236.236,0,0,0,0,.079h0A.231.231,0,0,0,143.186,323.835Z" transform="translate(-143.169 -287.851)" opacity="0.4"/>
        <path id="Path_342" data-name="Path 342" d="M143.188,323.852a1.194,1.194,0,0,0,.563.884l.068.039,11.668,6.729,48.159,27.813L235,377.412h0a3.942,3.942,0,0,0,3.542,0l1.008-.563,44.995-25.983,11.786-6.8.935-.535a2.3,2.3,0,0,0,1.154-2.095v-.068a5.953,5.953,0,0,0-1.076-.186l-10.553-1.047-54.765-5.457h0l-8.548-.856c-1.881-.186-3.57-.867-3.75-1.52l-1.729-5.738h0l-10.7-35.793-.805-2.664v-.034a.812.812,0,0,0-.073-.175,6.55,6.55,0,0,0-3.43.811l-.113.062-2.562,1.487-56.4,32.555h-.028l-.079.051-.068.039a1.183,1.183,0,0,0-.439.484.434.434,0,0,0-.056.129.242.242,0,0,0-.028.118.236.236,0,0,0,0,.079h0A.231.231,0,0,0,143.188,323.852Z" transform="translate(-143.171 -287.868)" fill="#b4e1e8"/>
        <path id="Path_343" data-name="Path 343" d="M299.953,351.939a.778.778,0,0,1-.113-.073l-.068-.039a1.177,1.177,0,0,1-.563-.884,1.194,1.194,0,0,1,.7-1.042l66.529,3.232.141,1.346-55.109,4.117Z" transform="translate(-299.199 -314.958)" opacity="0.25"/>
        <path id="Path_344" data-name="Path 344" d="M282.536,416.948a3.626,3.626,0,0,1-1.847.428,3.705,3.705,0,0,1-1.689-.417h0l-31.35-18.094,23.579-20.476,5.6.2,6.758,37.792Z" transform="translate(-187.169 -327.404)" opacity="0.25"/>
        <path id="Path_345" data-name="Path 345" d="M252.85,351.75a1.177,1.177,0,0,0,.563.884l.068.039L344.63,405.31h0a3.706,3.706,0,0,0,1.689.417l-5.125-47.388c-.208-1.965-4.719-3.576-10.581-3.79Z" transform="translate(-252.828 -315.766)" fill="#b4e1e8"/>
        <path id="Path_346" data-name="Path 346" d="M143.21,287.86l.293,2.816,3.717,35.478v.107l.09.867.805,7.709c.208,1.965,4.713,3.582,10.587,3.8l5.265.191h0l5.282.191h.315l53.8,1.937,11.826.434v-.068a2.253,2.253,0,0,0-.884-1.689h0l-9.489-5.513L150.441,291.2l-4.269-2.467h0a6.435,6.435,0,0,0-2.9-.856Z" transform="translate(-79.953 -287.855)" opacity="0.25"/>
        <path id="Path_347" data-name="Path 347" d="M143.27,287.87v.2l.439,2.635,5.845,35.579v.068l.1.6,1.076,6.549c.3,1.853,4.415,3.379,9.883,3.689l4.922.27h0l3.565.2h.22l54.089,3.024,11.758.653h0a2.253,2.253,0,0,0-.884-1.689h0l-9.455-5.53L150.45,291.2l-4.269-2.467h0A6.437,6.437,0,0,0,143.27,287.87Z" transform="translate(-79.962 -287.859)" fill="#b4e1e8"/>
        <path id="Path_348" data-name="Path 348" d="M279.7,371.827a20.371,20.371,0,0,0,7.918-1.267c1.892-.811,3.092-2.134,3.283-3.627a3.846,3.846,0,0,0-1.689-3.548,9.844,9.844,0,0,0-5.93-1.757,8.586,8.586,0,0,0-.935.034,3.3,3.3,0,0,0-.051-1,4.19,4.19,0,0,0-2.754-2.861,9.349,9.349,0,0,0-3.514-.636,10.614,10.614,0,0,0-6.161,1.853c-1.014.76-4.179,3.655-2.331,9.01l.9,2.557,4.3.67a46.349,46.349,0,0,0,6.966.563Z" transform="translate(-205.39 -318.133)" fill="#fafafa"/>
        <path id="Path_349" data-name="Path 349" d="M280,359.728c2.253.924,2.754,2.754,1.284,4.3,2.765-.794,6.194-.355,8.12,1.126,2.134,1.661,1.532,4.015-1.352,5.248-1.453.62-5.75,1.926-14.264.608l-3.632-.563-.67-1.92c-1.554-4.505.839-6.9,1.943-7.726A9.725,9.725,0,0,1,280,359.728Z" transform="translate(-206.265 -319.014)" fill="#455a64"/>
      </g>
    </g>
    <g id="freepik--Stamps--inject-5" transform="translate(202.146 155.985)">
      <g id="freepik--mail-stamp--inject-5" transform="translate(22.424)">
        <path id="Path_350" data-name="Path 350" d="M57.169,336.532l-.608.028c-.788.034-1.442-.344-1.38-.8l.045-.349c.062-.456-.591-.833-1.38-.794h-.608c-.783.034-1.436-.343-1.38-.794l.051-.349c.056-.456-.6-.833-1.38-.8h-.608c-.788.034-1.442-.344-1.38-.794l.045-.355c.062-.451-.563-.828-1.38-.794H46.6c-.783.039-1.442-.338-1.38-.794l.045-.349c.062-.456-.563-.833-1.374-.8l-.991.045a1.374,1.374,0,0,1-1.352-.563l-.068-.175c-.265-.7-1.932-.8-2.433-.141h0a1.6,1.6,0,0,1-1.357.434l-.732-.056c-.845-.073-1.571.349-1.453.839h0c.124.484-.6.907-1.447.839h0c-.85-.073-1.577.349-1.453.833h0c.118.49-.608.912-1.453.839h0c-.85-.068-1.577.349-1.453.839h0c.118.49-.608.912-1.453.839h0c-.85-.068-1.577.349-1.453.839h0c.118.49-.608.907-1.453.839h0c-.85-.068-1.577.349-1.453.839l.1.422c.079.327-.225.648-.755.783h0c-1.126.287-.974,1.25.242,1.408l.3.034c.625.079,1.059.417,1.008.783l-.073.563c-.062.456.563.833,1.38.8l.58.068c.783-.034,1.436.344,1.38.794l-.051.355c-.056.451.6.828,1.38.794h.608c.788-.034,1.442.344,1.38.8l-.045.349c-.062.456.563.833,1.38.794h.608c.783-.034,1.436.343,1.38.794l-.045.355c-.062.45.563.828,1.374.794h.614c.783-.034,1.436.344,1.374.794l-.045.355c-.056.451.6.828,1.38.794l.985-.039a1.386,1.386,0,0,1,1.357.563l.062.174c.265.7,1.932.8,2.433.141h0a1.616,1.616,0,0,1,1.357-.439l.726.062c.85.068,1.571-.349,1.453-.839h0c-.118-.49.608-.907,1.453-.839h0c.845.068,1.571-.349,1.453-.839h0c-.118-.49.608-.907,1.453-.839h0c.845.073,1.571-.349,1.453-.839h0c-.118-.49.6-.907,1.453-.839h0c.845.073,1.571-.349,1.453-.839h0c-.118-.484.6-.907,1.453-.839h0c.845.073,1.571-.349,1.453-.833L59.236,341c-.079-.332.231-.648.76-.783h0c1.126-.287.98-1.25-.242-1.4l-.3-.039c-.625-.079-1.053-.411-1-.777l.073-.563C58.6,336.875,57.952,336.5,57.169,336.532Z" transform="translate(-22.471 -327.511)" fill="#fafafa"/>
        <path id="Path_351" data-name="Path 351" d="M58.849,339.414,45.334,331.6a4.62,4.62,0,0,0-4.083-.338l-12.451,7.2c-.969.563-.71,1.616.563,2.36l13.515,7.816a4.631,4.631,0,0,0,4.088.338L59.435,341.8C60.4,341.232,60.139,340.179,58.849,339.414Z" transform="translate(-24.962 -329.001)" fill="#f069a7"/>
        <path id="Path_352" data-name="Path 352" d="M51.786,341.982a.248.248,0,0,0,.146,0l2.117-.259,5.9-1.616c.1-.028.158-.084.146-.152l-.152-.9.13-.073.355.2a.276.276,0,0,0,.231,0c.062-.039.062-.1,0-.135l-.4-.231a.417.417,0,0,0-.366,0l-.2.118c-.056.034-.084.073-.073.118l.152.9-5.834,1.6-2.061.248c-.09,0-.146.056-.13.113a.084.084,0,0,0,.045.073Z" transform="translate(-38.892 -332.432)" fill="#455a64"/>
        <path id="Path_353" data-name="Path 353" d="M61.535,344.21a6.161,6.161,0,0,0,5.553,0c1.537-.89,1.543-2.326,0-3.2a6.144,6.144,0,0,0-5.553,0C60.02,341.89,60.02,343.326,61.535,344.21Zm5.243-3.041c1.357.783,1.352,2.061,0,2.849a5.468,5.468,0,0,1-4.939,0c-1.357-.783-1.352-2.061,0-2.849A5.456,5.456,0,0,1,66.778,341.169Z" transform="translate(-51.311 -333.116)" fill="#f0f0f0"/>
        <path id="Path_354" data-name="Path 354" d="M59.664,340.722a.146.146,0,0,0,.152,0,6.5,6.5,0,0,1,5.851,0c1.6.929,1.594,2.444,0,3.379-.039,0-.045.062,0,.09a.18.18,0,0,0,.152,0c1.689-.986,1.689-2.579,0-3.553a6.791,6.791,0,0,0-6.155,0C59.619,340.661,59.619,340.7,59.664,340.722Z" transform="translate(-49.721 -332.923)" fill="#ba68c8"/>
        <path id="Path_355" data-name="Path 355" d="M59.664,340.722a.146.146,0,0,0,.152,0,6.5,6.5,0,0,1,5.851,0c1.6.929,1.594,2.444,0,3.379-.039,0-.045.062,0,.09a.18.18,0,0,0,.152,0c1.689-.986,1.689-2.579,0-3.553a6.791,6.791,0,0,0-6.155,0C59.619,340.661,59.619,340.7,59.664,340.722Z" transform="translate(-49.721 -332.923)" opacity="0.2"/>
        <path id="Path_356" data-name="Path 356" d="M43.7,349.943a.192.192,0,0,0,.158,0,6.459,6.459,0,0,1,5.845,0c1.6.923,1.6,2.438,0,3.379-.045,0-.045.062,0,.09a.191.191,0,0,0,.158,0c1.689-.985,1.689-2.579,0-3.553a6.791,6.791,0,0,0-6.155,0C43.659,349.875,43.659,349.914,43.7,349.943Z" transform="translate(-24.774 -336.951)" fill="#ba68c8"/>
        <path id="Path_357" data-name="Path 357" d="M43.7,349.943a.192.192,0,0,0,.158,0,6.459,6.459,0,0,1,5.845,0c1.6.923,1.6,2.438,0,3.379-.045,0-.045.062,0,.09a.191.191,0,0,0,.158,0c1.689-.985,1.689-2.579,0-3.553a6.791,6.791,0,0,0-6.155,0C43.659,349.875,43.659,349.914,43.7,349.943Z" transform="translate(-24.774 -336.951)" opacity="0.2"/>
        <path id="Path_358" data-name="Path 358" d="M45.585,353.418a6.16,6.16,0,0,0,5.553,0c1.537-.884,1.549-2.326,0-3.2a6.127,6.127,0,0,0-5.553,0C44.071,351.1,44.059,352.534,45.585,353.418Zm5.271-3.052c1.357.783,1.352,2.067,0,2.855a5.468,5.468,0,0,1-4.939,0c-1.357-.783-1.346-2.061,0-2.849A5.468,5.468,0,0,1,50.856,350.366Z" transform="translate(-26.379 -337.138)" fill="#f0f0f0"/>
        <path id="Path_359" data-name="Path 359" d="M50.6,346.848h0l4.331,1.853a.27.27,0,0,0,.163,0,.112.112,0,0,0,.1-.079l.332-3.125c0-.051-.062-.1-.152-.1s-.169.039-.175.09l-.3,2.945-4.01-1.689.445-4.37c0-.056-.062-.1-.152-.1s-.169.039-.175.09l-.445,4.415A.068.068,0,0,0,50.6,346.848Z" transform="translate(-33.05 -333.958)" fill="#455a64"/>
        <path id="Path_360" data-name="Path 360" d="M46.449,348.776a.259.259,0,0,0,.186,0l6.983-1.915c.079,0,.118-.079.079-.124a.237.237,0,0,0-.22-.045l-6.983,1.915a.082.082,0,0,0-.079.124Z" transform="translate(-28.899 -335.886)" fill="#455a64"/>
        <path id="Path_361" data-name="Path 361" d="M51.067,349.774h0l3.379,1.644a.259.259,0,0,0,.231,0,.074.074,0,0,0,0-.129l-3.379-1.65a.242.242,0,0,0-.225,0,.068.068,0,1,0-.006.135Z" transform="translate(-32.491 -337.165)" fill="#455a64"/>
        <path id="Path_362" data-name="Path 362" d="M46.063,345.641a2.5,2.5,0,0,1,.721.321c.338.214.4.405.107.6a.242.242,0,0,1-.248,0,1.358,1.358,0,0,0-.372-.208,1.262,1.262,0,0,1-.479-.186c-.113-.1-.146-.287-.344-.462a3.136,3.136,0,0,0-.563-.338l-.13-.09c-.068-.045-.045-.113.051-.141a.721.721,0,0,1,.507,0A5.552,5.552,0,0,0,46.063,345.641Z" transform="translate(-21.315 -335.19)" fill="#ba68c8"/>
        <path id="Path_363" data-name="Path 363" d="M46.063,345.641a2.5,2.5,0,0,1,.721.321c.338.214.4.405.107.6a.242.242,0,0,1-.248,0,1.358,1.358,0,0,0-.372-.208,1.262,1.262,0,0,1-.479-.186c-.113-.1-.146-.287-.344-.462a3.136,3.136,0,0,0-.563-.338l-.13-.09c-.068-.045-.045-.113.051-.141a.721.721,0,0,1,.507,0A5.552,5.552,0,0,0,46.063,345.641Z" transform="translate(-21.315 -335.19)" opacity="0.2"/>
        <path id="Path_364" data-name="Path 364" d="M55.432,345.977a.242.242,0,0,0,.18,0c.084,0,.118-.073.084-.124-1.2-1.566-.957-3.047.721-4.4.051-.039.034-.1-.039-.13a.259.259,0,0,0-.225,0c-1.751,1.413-2,2.956-.755,4.59A.056.056,0,0,0,55.432,345.977Z" transform="translate(-36.259 -333.532)" fill="#455a64"/>
        <path id="Path_365" data-name="Path 365" d="M57.334,345.808a.2.2,0,0,0,.1.028l.6.034c.09,0,.169-.034.18-.084s-.056-.1-.146-.1l-.6-.034c-.09,0-.169.034-.18.084a.068.068,0,0,0,.045.073Z" transform="translate(-39.529 -335.435)" fill="#455a64"/>
        <path id="Path_366" data-name="Path 366" d="M57.6,350.23a1.571,1.571,0,0,0,1.425,0c.394-.231.394-.6,0-.822a1.571,1.571,0,0,0-1.425,0C57.206,349.667,57.206,350.01,57.6,350.23Zm1.267-.732a.337.337,0,0,1,0,.636,1.2,1.2,0,0,1-1.126,0,.338.338,0,0,1,0-.636,1.211,1.211,0,0,1,1.126.006Z" transform="translate(-40.647 -337.002)" fill="#f0f0f0"/>
        <path id="Path_367" data-name="Path 367" d="M58.886,350a.118.118,0,0,0,.068,0l2.253.146c.062,0,.124,0,.13-.062s-.039-.068-.1-.073l-2.253-.146c-.062,0-.118,0-.13.062S58.863,349.984,58.886,350Z" transform="translate(-43.531 -337.274)" fill="#f0f0f0"/>
        <path id="Path_368" data-name="Path 368" d="M62.255,349.754l.6.349a.169.169,0,0,0,.163,0,.045.045,0,1,0,0-.09l-.608-.349a.158.158,0,0,0-.158,0,.045.045,0,0,0,0,.09Z" transform="translate(-47.154 -337.179)" fill="#ba68c8"/>
        <path id="Path_369" data-name="Path 369" d="M62.255,349.754l.6.349a.169.169,0,0,0,.163,0,.045.045,0,1,0,0-.09l-.608-.349a.158.158,0,0,0-.158,0,.045.045,0,0,0,0,.09Z" transform="translate(-47.154 -337.179)" opacity="0.2"/>
        <path id="Path_370" data-name="Path 370" d="M51.479,339.662c.191-.107.214-.276.051-.372a.727.727,0,0,0-.653.028c-.191.113-.214.276-.051.372A.727.727,0,0,0,51.479,339.662Z" transform="translate(-29.254 -332.629)" fill="#ba68c8"/>
        <path id="Path_371" data-name="Path 371" d="M51.479,339.662c.191-.107.214-.276.051-.372a.727.727,0,0,0-.653.028c-.191.113-.214.276-.051.372A.727.727,0,0,0,51.479,339.662Z" transform="translate(-29.254 -332.629)" opacity="0.4"/>
        <path id="Path_372" data-name="Path 372" d="M49.394,339.755l1,.563c.13.073.456-.113.327-.186l-1-.563C49.608,339.5,49.27,339.687,49.394,339.755Z" transform="translate(-27.608 -332.772)" fill="#ba68c8"/>
        <path id="Path_373" data-name="Path 373" d="M49.394,339.755l1,.563c.13.073.456-.113.327-.186l-1-.563C49.608,339.5,49.27,339.687,49.394,339.755Z" transform="translate(-27.608 -332.772)" opacity="0.2"/>
        <path id="Path_374" data-name="Path 374" d="M67.311,344.341a.118.118,0,0,0,0-.225.433.433,0,0,0-.383,0,.118.118,0,0,0,0,.22A.428.428,0,0,0,67.311,344.341Z" transform="translate(-54.097 -334.745)" fill="#f0f0f0"/>
        <path id="Path_375" data-name="Path 375" d="M51.391,353.554c.107-.062.107-.163,0-.22a.417.417,0,0,0-.383,0c-.107.062-.107.158,0,.22a.417.417,0,0,0,.383,0Z" transform="translate(-29.205 -338.772)" fill="#f0f0f0"/>
      </g>
      <g id="freepik--mail-stamp--inject-5-2" data-name="freepik--mail-stamp--inject-5" transform="translate(0 13.481)">
        <path id="Path_376" data-name="Path 376" d="M96.942,360.455l-.608.028c-.788.034-1.442-.344-1.38-.794l.045-.355c.062-.451-.563-.828-1.38-.794h-.608c-.783.034-1.436-.344-1.38-.8l.045-.349c.062-.456-.563-.833-1.374-.8l-.614.028c-.783.034-1.436-.344-1.374-.794l.045-.355c.056-.451-.6-.828-1.38-.794h-.608c-.788.034-1.442-.344-1.38-.8l.045-.349c.062-.45-.563-.828-1.38-.794l-.985.039a1.374,1.374,0,0,1-1.352-.563l-.068-.175c-.265-.7-1.932-.8-2.433-.141h0a1.611,1.611,0,0,1-1.357.439l-.726-.062c-.845-.068-1.571.349-1.453.839h0c.124.49-.6.907-1.453.839h0c-.845-.073-1.571.349-1.453.839h0c.124.49-.6.907-1.453.839h0c-.845-.073-1.571.349-1.453.839h0c.124.484-.6.907-1.453.839h0c-.845-.073-1.571.349-1.453.839h0c.118.484-.608.907-1.453.833h0c-.85-.068-1.577.355-1.453.839l.1.422c.079.327-.231.648-.755.783h0c-1.126.287-.974,1.25.242,1.4l.3.039c.625.079,1.053.411,1.008.777l-.073.563c-.062.451.563.828,1.374.794l.614-.028c.783-.034,1.436.344,1.374.794l-.045.355c-.056.451.6.828,1.38.794h.608c.788-.039,1.442.338,1.38.794l-.045.349c-.062.456.563.833,1.38.8l.608-.028c.783-.034,1.436.344,1.38.794l-.051.355c-.056.451.6.828,1.38.794l.608-.028c.788-.034,1.442.344,1.38.8l-.045.349c-.062.456.563.833,1.38.8l.986-.045a1.368,1.368,0,0,1,1.352.563l.068.175c.265.7,1.932.8,2.433.141h0a1.594,1.594,0,0,1,1.357-.434l.726.056c.845.073,1.571-.349,1.453-.839h0c-.124-.49.6-.907,1.453-.839h0c.845.073,1.571-.349,1.453-.839h0c-.124-.484.6-.907,1.453-.833h0c.845.068,1.571-.355,1.453-.839h0c-.124-.49.6-.912,1.453-.839h0c.845.068,1.571-.349,1.453-.839h0c-.124-.49.6-.912,1.453-.839h0c.845.068,1.571-.349,1.453-.839l-.107-.422c-.079-.327.231-.648.76-.783h0c1.126-.293.974-1.25-.242-1.408l-.3-.034c-.625-.079-1.053-.417-1.008-.783l.079-.563C98.378,360.8,97.725,360.421,96.942,360.455Z" transform="translate(-62.244 -351.451)" fill="#fafafa"/>
        <path id="Path_377" data-name="Path 377" d="M98.651,363.414,85.136,355.6a4.631,4.631,0,0,0-4.088-.338l-12.423,7.174c-.969.563-.71,1.616.563,2.36L82.7,372.61a4.631,4.631,0,0,0,4.088.338l12.445-7.2C100.2,365.187,99.941,364.129,98.651,363.414Z" transform="translate(-64.764 -352.968)" fill="#455a64"/>
        <path id="Path_378" data-name="Path 378" d="M85.406,364.223a.479.479,0,0,1,.36-.619,1.751,1.751,0,0,1,1.166.225s.3-.287,1.194-.2a2.23,2.23,0,0,1,1.988,1.566,1.873,1.873,0,0,1,.1.321,1.892,1.892,0,0,1,.372-.755,2.969,2.969,0,0,1,2.495-1.374c1.29.107,1.126.563,1.126.563a1.733,1.733,0,0,1,1.126,0c.417.237,0,.71,0,.71a.879.879,0,0,1,.7.6c.141.524-.265.929-2.027,1.475-.507.158-1.053.3-1.582.434.952-.073,1.96-.141,2.382-.152.912,0,2.855.079,3.08.817s-.563.783-.563.783.6.321.338.619-1.177.214-1.177.214.051.338-.755.563-1.616.141-3.063-.653c-.389-.214-.772-.45-1.126-.687.405.5.822,1.014.969,1.239.321.5.755,1.594-.394,1.943s-1.47-.079-1.47-.079a1.126,1.126,0,0,1-.918.377.805.805,0,0,1-.715-.563,1.69,1.69,0,0,1-1.171-.237c-.648-.383-.732-.845.135-1.887a12,12,0,0,1,.867-.918c-.7.383-1.442.783-1.78.935-.71.327-2.388.907-3.323.383s-.321-.828-.321-.828-.805-.056-.907-.389.732-.563.732-.563-.377-.253.034-.715,1.245-.766,3.227-.608h.327a8.063,8.063,0,0,1-1.092-.389c-.771-.372-2.129-1.053-1.56-1.723A1.289,1.289,0,0,1,85.406,364.223Z" transform="translate(-71.025 -356.66)" fill="#f0f0f0"/>
        <path id="Path_379" data-name="Path 379" d="M96.845,366.287a5.936,5.936,0,0,1,2.337,1.126c.372.276,1.126.85.783,1.233-.039.045-.158.045-.225.028-.67-.169-.907-.721-1.278-1.064a16.463,16.463,0,0,0-1.763-1.16C96.6,366.361,96.682,366.265,96.845,366.287Z" transform="translate(-81.113 -357.931)" fill="#e0e0e0"/>
        <path id="Path_380" data-name="Path 380" d="M91.487,368.907h0l.062.039a.231.231,0,0,1,.051-.146.185.185,0,0,1-.175-.135c-.135-1.053,2.106-2.157,3.649-2.455.045,0,.248.028.169.068a12.57,12.57,0,0,0-2,1.29c-.377.31-.71.788-1.126,1.126h.315a6.843,6.843,0,0,1,1.368.13A7.048,7.048,0,0,1,96.961,370c.068.068-.152.062-.2.045a13,13,0,0,0-2.562-.6,6.646,6.646,0,0,0-1.977-.073.563.563,0,0,1-.389-.051,3.745,3.745,0,0,1,.315,1.267,1.475,1.475,0,0,1-.648,1.374c-.09.062-.389,0-.321-.1.175-.191.1-.5.135-.721a3.1,3.1,0,0,0-.242-1.56l-.084-.208h0l-.034-.056c-.422.068-.969.062-1.233.079a12.507,12.507,0,0,0-2.855.467c-.084.028-.327,0-.237-.1a6.757,6.757,0,0,1,2.669-.929C89.786,368.71,91.318,368.384,91.487,368.907Z" transform="translate(-72.376 -357.898)" fill="#e0e0e0"/>
        <path id="Path_381" data-name="Path 381" d="M94.459,369.7a.563.563,0,0,0,0,1.042,1.971,1.971,0,0,0,1.808,0,.563.563,0,0,0,0-1.042,1.971,1.971,0,0,0-1.808,0Z" transform="translate(-76.244 -359.327)" fill="#ba68c8"/>
        <path id="Path_382" data-name="Path 382" d="M95.085,371.111a1.5,1.5,0,0,0,1.509-.563c.084.237-.034.484-.349.665a1.971,1.971,0,0,1-1.808,0c-.327-.186-.439-.451-.338-.693a1.126,1.126,0,0,0,.985.591Z" transform="translate(-76.222 -359.781)" opacity="0.05"/>
      </g>
    </g>
  </g>
</svg>
